<?xml version="1.0" encoding="UTF-8" standalone="no"?>
<svg xmlns="http://www.w3.org/2000/svg" version="1.1" height="68" width="220">
  <g transform="matrix(0.61524215,0,0,0.61524215,1,0.91434476)">
    <path style="fill:#4e5d6e;stroke:none"
       d="m 24.634766,9.3964844 c -0.869442,0.029685 -1.739297,0.3109375 -2.496094,0.8593746 -2.01175,1.46375 -2.465875,4.285391 -1,6.306641 1.46725,2.015 4.290562,2.464844 6.304687,0.996094 2.016625,-1.45875 2.472657,-4.285938 1.003907,-6.304688 -0.916172,-1.260156 -2.363431,-1.9068967 -3.8125,-1.8574216 z m 58.146484,0 C 81.332654,9.3470093 79.8875,9.99375 78.972656,11.253906 c -1.47,2.0175 -1.022109,4.840938 0.994141,6.304688 2.01625,1.46375 4.840547,1.021406 6.310547,-0.996094 1.46375,-2.02125 1.015703,-4.842891 -0.998047,-6.306641 C 84.520859,9.7074219 83.650408,9.4261694 82.78125,9.3964844 Z m -9.957031,3.5273436 c -1.480676,-0.106699 -2.950219,0.664922 -3.667969,2.06836 -0.95275,1.8725 -0.210859,4.167343 1.666016,5.121093 1.877125,0.96 4.173437,0.214688 5.117187,-1.664062 0.95625,-1.875 0.215547,-4.165938 -1.658203,-5.117188 -0.468437,-0.239375 -0.963473,-0.372636 -1.457031,-0.408203 z m -8.701172,4.72461 c -1.232602,0.105878 -2.340719,0.931953 -2.746094,2.18164 -0.541,1.66375 0.37061,3.456797 2.037109,3.998047 1.6675,0.54 3.463829,-0.371406 4.001954,-2.035156 0.541875,-1.66875 -0.375438,-3.46125 -2.039063,-4 -0.417,-0.135625 -0.843039,-0.179824 -1.253906,-0.144531 z m -39.763672,2.898437 c -0.975234,4.69e-4 -1.949922,0.374063 -2.693359,1.117187 -1.489275,1.4875 -1.487829,3.897969 -0.002,5.386719 1.49025,1.4825 3.898,1.48375 5.390626,0 1.4795,-1.48875 1.485875,-3.900468 0,-5.386719 -0.743875,-0.744999 -1.720079,-1.117656 -2.695313,-1.117187 z m 33.736328,2.048828 c -1.2279,0.05313 -2.288469,0.964141 -2.486328,2.228516 -0.230375,1.43875 0.753953,2.79789 2.189453,3.02539 1.441875,0.22875 2.802266,-0.757968 3.025391,-2.199218 0.234375,-1.445 -0.753438,-2.797188 -2.195313,-3.023438 -0.18025,-0.02891 -0.357789,-0.03884 -0.533203,-0.03125 z m -4.386719,5.095703 c -1.207,0 -2.189453,0.980547 -2.189453,2.185547 0,1.21 0.982453,2.185547 2.189453,2.185547 1.21,0 2.189454,-0.975547 2.189454,-2.185547 -10e-7,-1.205 -0.979454,-2.185547 -2.189454,-2.185547 z m -27.871093,2.511719 c -1.018279,-0.03412 -2.03625,0.421875 -2.677735,1.3125 -1.03275,1.41125 -0.714406,3.396453 0.699219,4.423828 1.418375,1.032625 3.407172,0.714328 4.435547,-0.701172 1.027875,-1.416625 0.714922,-3.398593 -0.705078,-4.433593 -0.529735,-0.384844 -1.140986,-0.581092 -1.751953,-0.601563 z m 24.888671,2.347656 c -0.119465,-0.0053 -0.240421,0.0018 -0.363281,0.02148 -0.986375,0.15625 -1.656219,1.076093 -1.496093,2.058593 0.151374,0.9815 1.06789,1.645969 2.05664,1.496094 0.9825,-0.15675 1.646016,-1.079 1.494141,-2.0625 -0.134094,-0.853125 -0.855151,-1.476894 -1.691407,-1.513672 z m -22.511718,5.431641 c -1.028274,-0.07317 -2.048953,0.459781 -2.548828,1.4375 -0.65525,1.300875 -0.140547,2.893109 1.158203,3.552734 1.307125,0.670875 2.893187,0.149438 3.554687,-1.148437 0.664125,-1.307125 0.147406,-2.898922 -1.152344,-3.560547 -0.325687,-0.165281 -0.66896,-0.256859 -1.011718,-0.28125 z m 42.828125,5.03125 c -0.232285,0.01629 -0.465235,0.0785 -0.685547,0.191406 -0.88875,0.44975 -1.240281,1.534625 -0.785156,2.421875 0.451625,0.876005 1.538359,1.228578 2.412109,0.783203 0.8925,-0.451625 1.248359,-1.532125 0.787109,-2.421875 -0.338437,-0.658406 -1.03166,-1.023476 -1.728515,-0.974609 z m -40.181641,1.148437 c -0.84866,0.07484 -1.615187,0.644782 -1.890625,1.503907 -0.375,1.1455 0.252375,2.379875 1.40625,2.75 1.145,0.376 2.379297,-0.24761 2.748047,-1.396485 0.375,-1.144625 -0.253969,-2.38614 -1.402344,-2.759765 -0.286,-0.09278 -0.578441,-0.122604 -0.861328,-0.09766 z m 45.695313,0 c -0.283575,-0.02495 -0.57836,0.0049 -0.865235,0.09766 -1.14375,0.373625 -1.772344,1.61514 -1.402344,2.759765 0.37625,1.148875 1.612813,1.772485 2.757813,1.396485 1.1475,-0.370125 1.770781,-1.6045 1.394531,-2.75 -0.269062,-0.859125 -1.034043,-1.429065 -1.884765,-1.503907 z m 5.74414,2.390625 c -0.175295,-0.008 -0.355,0.0029 -0.535156,0.03125 -1.4475,0.2285 -2.431172,1.585969 -2.201172,3.027344 0.22625,1.4385 1.583594,2.429141 3.027344,2.197266 1.44125,-0.229 2.424062,-1.581969 2.195312,-3.027344 -0.20125,-1.260328 -1.25926,-2.172575 -2.486328,-2.228516 z m -48.035156,2.289063 c -0.829413,0.0427 -1.551609,0.659125 -1.693359,1.513672 -0.15625,0.98875 0.514703,1.903797 1.501953,2.060547 0.976625,0.150875 1.892578,-0.518032 2.048828,-1.488282 0.15775,-0.98725 -0.506344,-1.911609 -1.496094,-2.068359 -0.121453,-0.01836 -0.24284,-0.02368 -0.361328,-0.01758 z m 54.029297,1.691406 c -1.7475,0 -3.171875,1.418375 -3.171875,3.171875 0,1.756375 1.424375,3.173828 3.171875,3.173828 1.75625,0 3.171875,-1.417453 3.171875,-3.173828 0,-1.7535 -1.415625,-3.171875 -3.171875,-3.171875 z m 6.236328,5.859375 c -1.772371,0.07988 -3.306094,1.38975 -3.59375,3.208984 -0.325,2.077126 1.093828,4.030251 3.173828,4.359376 2.075,0.330499 4.022969,-1.085485 4.355469,-3.16211 0.325,-2.080125 -1.086563,-4.034281 -3.164063,-4.363281 -0.26,-0.04095 -0.518288,-0.05438 -0.771484,-0.04297 z M 7.3085938,64.408203 c -0.5838887,-0.04969 -1.1853126,0.01389 -1.7773438,0.208985 -2.373625,0.766125 -3.6703906,3.311046 -2.9003906,5.685546 0.77,2.367125 3.3178437,3.666938 5.6835937,2.898438 2.3721249,-0.774 3.6689689,-3.314953 2.9023439,-5.689453 -0.578625,-1.776844 -2.1565372,-2.954442 -3.9082032,-3.103516 z m 92.7988262,0 c -1.749781,0.149074 -3.325076,1.326672 -3.908201,3.103516 -0.76375,2.3745 0.52664,4.915453 2.90039,5.689453 2.368751,0.7685 4.912331,-0.531313 5.683591,-2.898438 0.77249,-2.3745 -0.51968,-4.919421 -2.89843,-5.685546 -0.59157,-0.195094 -1.19409,-0.258676 -1.77735,-0.208985 z m -32.542967,1.357422 c -0.459156,0 -0.917016,0.175531 -1.267578,0.527344 -0.706625,0.700625 -0.707484,1.846172 -0.0059,2.544922 0.711,0.70075 1.843796,0.70075 2.544922,0 0.703124,-0.703625 0.703124,-1.841297 0,-2.544922 -0.352313,-0.351813 -0.812329,-0.527344 -1.271485,-0.527344 z M 16.453125,68.75 c -0.49399,0.03405 -0.988281,0.165156 -1.457031,0.402344 -1.8735,0.955625 -2.619641,3.250453 -1.666016,5.126953 0.954625,1.8735 3.2485,2.61864 5.125,1.666015 1.872625,-0.9575 2.622141,-3.251421 1.666016,-5.123046 C 19.40625,69.419016 17.935096,68.647859 16.453125,68.75 Z m 28.486328,0.625 c -0.702281,-0.04769 -1.393531,0.315906 -1.730469,0.976562 -0.454125,0.889626 -0.102093,1.968297 0.785157,2.419922 0.88525,0.44725 1.968718,0.100594 2.417968,-0.785156 0.4575,-0.88575 0.100578,-1.966375 -0.779297,-2.421875 -0.224,-0.112062 -0.459265,-0.173557 -0.693359,-0.189453 z m -5.158203,1.419922 c -0.701298,-0.02334 -1.402578,0.292109 -1.845703,0.904297 -0.7105,0.976125 -0.496156,2.341781 0.480469,3.050781 0.975,0.7085 2.351562,0.494547 3.054687,-0.486328 0.707,-0.97125 0.489703,-2.340859 -0.482422,-3.052734 -0.366047,-0.266063 -0.786252,-0.402015 -1.207031,-0.416016 z m 27.855469,0 c -0.421019,0.01403 -0.840797,0.150328 -1.207031,0.416016 -0.976501,0.711874 -1.192375,2.081484 -0.484376,3.052734 0.704126,0.980875 2.078157,1.194281 3.050782,0.488281 0.976625,-0.7115 1.19975,-2.080609 0.484375,-3.052734 -0.440938,-0.612188 -1.142052,-0.927681 -1.84375,-0.904297 z m -42.021485,0.06836 c -0.611497,0.01974 -1.223968,0.214906 -1.755859,0.59961 -1.413625,1.03325 -1.730969,3.021 -0.699219,4.4375 1.026375,1.423875 3.017063,1.735797 4.429688,0.701171 1.42,-1.03275 1.735328,-3.014234 0.705078,-4.427734 -0.642734,-0.887734 -1.660525,-1.343442 -2.679688,-1.310547 z m 7.712891,0.580078 c -0.677875,-2.34e-4 -1.355484,0.257063 -1.873047,0.773438 l -0.002,0 c -1.02875,1.031625 -1.02875,2.706031 0,3.738281 1.035125,1.036125 2.712891,1.032625 3.744141,0 1.03515,-1.03225 1.035156,-2.707531 0.0039,-3.738281 C 34.683609,71.701359 34.006,71.443594 33.328125,71.443359 Z M 66.605469,76.75 c -0.343033,0.02447 -0.687141,0.115 -1.013672,0.28125 -1.30525,0.661625 -1.813531,2.254016 -1.160156,3.556641 0.668875,1.30225 2.263203,1.819297 3.564453,1.154297 1.295,-0.665125 1.818812,-2.251391 1.148437,-3.556641 C 68.651969,77.211484 67.634568,76.676582 66.605469,76.75 Z m -1.939453,6.6875 c -0.411358,-0.03555 -0.835079,0.0078 -1.251954,0.142578 -1.666499,0.5425 -2.578109,2.334578 -2.037109,4.001953 0.5405,1.661125 2.332,2.58011 4,2.03711 1.663625,-0.544875 2.580938,-2.333079 2.039063,-4.001953 -0.403594,-1.2495 -1.515928,-2.07303 -2.75,-2.179688 z m -4.289063,7.455078 c -0.251945,-0.01145 -0.509094,0.0019 -0.767578,0.04297 -2.0795,0.332625 -3.497594,2.280328 -3.167969,4.361328 0.328125,2.077625 2.276469,3.494609 4.355469,3.162109 2.077625,-0.326125 3.489656,-2.276312 3.160156,-4.351562 -0.285468,-1.820875 -1.816462,-3.134689 -3.580078,-3.214844 z m -6.667969,7.490234 c -2.493625,0 -4.513672,2.026458 -4.513672,4.517578 0,2.49125 2.020047,4.51367 4.513672,4.51367 2.496625,0 4.513672,-2.02242 4.513672,-4.51367 0,-2.49112 -2.017047,-4.517578 -4.513672,-4.517578 z"/>
    <path style="fill:#96d325;stroke:none"
       d="m 53.708984,0 c -2.493625,0 -4.513672,2.0211719 -4.513672,4.5136719 0,2.49125 2.020047,4.5136719 4.513672,4.5136719 2.496625,0 4.513672,-2.0224219 4.513672,-4.5136719 C 58.222656,2.0211719 56.205609,0 53.708984,0 Z m -6.318359,8.9042969 c -0.252434,-0.011121 -0.510125,0.00352 -0.769531,0.044922 -2.0805,0.3325 -3.501469,2.2754681 -3.167969,4.3554691 0.329625,2.079999 2.277375,3.499765 4.359375,3.166015 2.07575,-0.32625 3.491719,-2.284219 3.167969,-4.355469 -0.296953,-1.82 -1.822807,-3.1330928 -3.589844,-3.210937 z m -4.099609,8.7441411 c -0.410844,-0.03535 -0.835079,0.0092 -1.251954,0.144531 -1.666499,0.53875 -2.578062,2.33125 -2.039062,4 0.542,1.66375 2.3325,2.575156 4,2.035156 1.661125,-0.54125 2.583016,-2.334297 2.041016,-3.998047 -0.407625,-1.249687 -1.517469,-2.075586 -2.75,-2.18164 z m -2.857422,7.738281 c -0.34299,0.0251 -0.687391,0.116953 -1.013672,0.283203 -1.296375,0.66 -1.818828,2.251328 -1.158203,3.548828 0.665,1.30625 2.256922,1.820312 3.560547,1.164062 1.297375,-0.67 1.824609,-2.26125 1.162109,-3.5625 -0.50175,-0.977812 -1.521811,-1.508886 -2.550781,-1.433593 z m 41.148437,4.816406 c -0.610832,0.02047 -1.221406,0.216719 -1.753906,0.601563 -1.425,1.0275 -1.738828,3.016968 -0.705078,4.433593 1.03375,1.4155 3.018437,1.734781 4.429687,0.707031 1.42125,-1.036 1.735079,-3.018437 0.705078,-4.429687 -0.641406,-0.890625 -1.657727,-1.346619 -2.675781,-1.3125 z m -7.49414,0.476563 c -0.677344,3.12e-4 -1.352813,0.259843 -1.867188,0.777343 -1.038125,1.0275 -1.038125,2.708031 0,3.738281 1.0325,1.033125 2.703281,1.033125 3.738281,0 1.03,-1.03025 1.031407,-2.705781 0.0039,-3.738281 -0.51875,-0.51875 -1.197657,-0.777656 -1.875,-0.777343 z m 16.330078,0.380859 c -0.492949,0.03465 -0.986641,0.167812 -1.455078,0.40625 -1.87625,0.9525 -2.619922,3.249578 -1.669922,5.126953 0.95375,1.871625 3.254297,2.615281 5.123047,1.660156 1.8775,-0.9595 2.624218,-3.25039 1.667968,-5.11914 -0.72,-1.405313 -2.187168,-2.178164 -3.666015,-2.074219 z M 39.625,32.244141 c -0.421952,0.0145 -0.843359,0.150234 -1.208984,0.416015 -0.976625,0.7075 -1.190969,2.081641 -0.480469,3.056641 0.709,0.971625 2.076609,1.194297 3.052734,0.482422 0.972125,-0.7085 1.189422,-2.075235 0.482422,-3.052735 C 41.03125,32.533203 40.328253,32.219971 39.625,32.244141 Z m 28.164062,0 c -0.70156,-0.02417 -1.402968,0.289062 -1.841796,0.902343 -0.716375,0.9775 -0.494079,2.344282 0.482422,3.050782 0.976624,0.713875 2.345281,0.491156 3.050781,-0.480469 0.715375,-0.975 0.49225,-2.351641 -0.484375,-3.056641 -0.364735,-0.265781 -0.786095,-0.401513 -1.207032,-0.416015 z M 6.5371094,34.005859 c -1.7517891,0.154243 -3.32875,1.327516 -3.90625,3.103516 -0.77,2.3745 0.5267656,4.9195 2.9003906,5.6875 2.368125,0.7745 4.915047,-0.524859 5.685547,-2.896484 0.767625,-2.374 -0.530766,-4.91461 -2.9003908,-5.69336 C 7.7243438,34.016406 7.1210391,33.954445 6.5371094,34.005859 Z m 94.3398406,0 c -0.58334,-0.05141 -1.186714,0.01055 -1.777341,0.201172 -2.37375,0.77625 -3.67164,3.31936 -2.90039,5.69336 0.7775,2.371625 3.319302,3.670984 5.685551,2.896484 2.37875,-0.768 3.67093,-3.313 2.89843,-5.6875 -0.57844,-1.776 -2.15623,-2.949273 -3.90625,-3.103516 z m -38.144528,0.439453 c -0.696727,-0.04957 -1.392703,0.315625 -1.728516,0.976563 -0.454125,0.890125 -0.10014,1.97025 0.78711,2.421875 0.88375,0.451625 1.961015,0.09656 2.416015,-0.789062 0.454125,-0.881875 0.102485,-1.966219 -0.791015,-2.417969 -0.219125,-0.112813 -0.451352,-0.174883 -0.683594,-0.191407 z m -22.882813,3.59961 c -0.460921,0 -0.923343,0.176031 -1.277343,0.527344 -0.699725,0.707125 -0.699219,1.838375 0.0039,2.546875 0.704625,0.69875 1.84275,0.703625 2.546875,0 0.700625,-0.700625 0.702125,-1.844625 0,-2.546875 -0.352063,-0.351313 -0.812516,-0.527344 -1.273438,-0.527344 z M 12.541016,43.40625 c -1.772805,0.08001 -3.2997504,1.388672 -3.5937504,3.207031 -0.323125,2.081625 1.0918434,4.030375 3.1679684,4.359375 2.077625,0.332625 4.029797,-1.084984 4.357422,-3.162109 0.329,-2.077625 -1.082531,-4.030703 -3.160156,-4.361328 -0.260438,-0.04089 -0.518227,-0.0544 -0.771484,-0.04297 z m 6.580078,7.126953 c -1.754375,0 -3.177735,1.418375 -3.177735,3.171875 0.0049,1.756375 1.42336,3.173828 3.177735,3.173828 1.7515,0 3.173828,-1.417453 3.173828,-3.173828 0,-1.7535 -1.422328,-3.171875 -3.173828,-3.171875 z m 53.863281,4.443359 c -0.833198,0.03312 -1.554687,0.655219 -1.691406,1.509766 -0.15625,0.98575 0.508734,1.907703 1.490234,2.064453 0.97875,0.1485 1.900547,-0.513719 2.060547,-1.496093 C 75.0025,56.065938 74.336406,55.149 73.347656,55 73.225469,54.97962 73.103403,54.97183 72.984375,54.97656 Z m -47.626953,0.597657 c -0.176073,-0.0079 -0.356141,6.72e-4 -0.53711,0.0293 -1.4355,0.225625 -2.420406,1.58014 -2.191406,3.02539 0.2245,1.4415 1.579485,2.424391 3.021485,2.197266 1.44625,-0.227 2.431718,-1.582016 2.199218,-3.025391 -0.197312,-1.260328 -1.259678,-2.171579 -2.492187,-2.226562 z m 5.880859,3.316406 c -0.282449,-0.02464 -0.575078,0.0052 -0.861328,0.09766 -1.153875,0.373625 -1.78125,1.606938 -1.40625,2.757813 0.36725,1.148375 1.602953,1.773515 2.751953,1.40039 1.148375,-0.370125 1.7755,-1.612328 1.40625,-2.751953 -0.280875,-0.862781 -1.043277,-1.429996 -1.890625,-1.503906 z m 44.945313,0 c -0.849668,0.07391 -1.618125,0.641125 -1.898438,1.503906 -0.3675,1.139625 0.2625,2.381828 1.40625,2.751953 1.1475,0.373125 2.38625,-0.252015 2.75,-1.40039 0.37625,-1.150875 -0.247031,-2.384188 -1.394531,-2.757813 -0.28625,-0.09241 -0.580059,-0.122293 -0.863281,-0.09766 z m -40.064453,1.917969 c -0.23134,0.01587 -0.462797,0.07802 -0.681641,0.189453 -0.897,0.45175 -1.248063,1.531703 -0.789062,2.423828 0.445875,0.88237 1.526828,1.230953 2.408203,0.783203 0.888625,-0.45175 1.239359,-1.531765 0.787109,-2.416016 -0.339469,-0.662906 -1.03059,-1.028087 -1.724609,-0.980468 z m 43.460937,3.34375 c -1.026387,-0.07307 -2.04625,0.464094 -2.546875,1.4375 -0.6675,1.30225 -0.14375,2.896968 1.15625,3.558594 1.30125,0.659624 2.898594,0.144499 3.558594,-1.15625 0.66625,-1.30125 0.146797,-2.895969 -1.158203,-3.558594 -0.324688,-0.1665 -0.667637,-0.256893 -1.009766,-0.28125 z m 2.222656,6.710937 c -1.01665,-0.03289 -2.034375,0.422813 -2.683593,1.310547 -1.03125,1.4135 -0.716016,3.39986 0.708984,4.427734 1.42,1.034625 3.403437,0.722704 4.429687,-0.701171 1.030001,-1.4165 0.716172,-3.40425 -0.705078,-4.4375 -0.529218,-0.384704 -1.140009,-0.579872 -1.75,-0.59961 z m -24.947265,0.402344 c -0.120227,-0.0056 -0.243406,3.75e-4 -0.367188,0.01953 -0.983,0.15675 -1.645484,1.078625 -1.490234,2.0625 0.15725,0.9785 1.073766,1.650391 2.056641,1.494141 0.98975,-0.15775 1.649937,-1.080141 1.492187,-2.056641 -0.129828,-0.858375 -0.849822,-1.480375 -1.691406,-1.519531 z m -3.146485,4.082031 c -1.207,0 -2.189453,0.975547 -2.189453,2.185547 0,1.2075 0.982453,2.185547 2.189453,2.185547 1.21,0 2.189454,-0.978047 2.189454,-2.185547 -10e-7,-1.21 -0.979454,-2.185547 -2.189454,-2.185547 z m 29.34961,3.900391 c -0.974844,0.0011 -1.949688,0.372031 -2.695313,1.113281 -1.48875,1.48775 -1.48875,3.898844 0,5.386719 1.49125,1.48725 3.894375,1.483375 5.390625,0 1.48875,-1.487875 1.48875,-3.898969 0,-5.386719 -0.745,-0.745625 -1.720468,-1.114375 -2.695312,-1.113281 z M 49.080078,79.53125 c -1.228734,0.05634 -2.294203,0.96525 -2.49414,2.226562 -0.2295,1.440876 0.753843,2.799719 2.199218,3.027344 1.441875,0.2275 2.794891,-0.751422 3.025391,-2.201172 0.235875,-1.439 -0.755266,-2.794312 -2.197266,-3.023437 -0.180172,-0.02825 -0.357669,-0.03735 -0.533203,-0.0293 z M 42.748047,83.4375 C 41.515691,83.543156 40.4065,84.367688 40,85.617188 c -0.539,1.670374 0.370063,3.457078 2.039062,4.001953 1.670876,0.543 3.458454,-0.375985 4.001954,-2.03711 0.542,-1.667375 -0.379891,-3.459875 -2.041016,-4 -0.416875,-0.135375 -0.841168,-0.17975 -1.251953,-0.144531 z m -7.611328,3.451172 c -1.480061,-0.10469 -2.948813,0.665937 -3.667969,2.070312 -0.95125,1.874 -0.206109,4.163563 1.666016,5.117188 1.875,0.956625 4.173296,0.212375 5.123046,-1.65625 0.953626,-1.875 0.21236,-4.170453 -1.666015,-5.126953 -0.4685,-0.238406 -0.961725,-0.369401 -1.455078,-0.404297 z m -10.1875,2.101562 c -1.447519,-0.0495 -2.893516,0.59586 -3.810547,1.857422 -1.465875,2.015125 -1.01175,4.840813 1,6.304688 2.018125,1.463875 4.838844,1.021953 6.308594,-0.998047 1.46875,-2.016625 1.012718,-4.842766 -1.003907,-6.306641 -0.755296,-0.548953 -1.625629,-0.82772 -2.49414,-0.857422 z m 57.511719,0 c -0.869605,0.02982 -1.738047,0.309969 -2.494141,0.857422 -2.01625,1.463875 -2.464141,4.290016 -0.994141,6.306641 1.4675,2.02 4.284141,2.466797 6.306641,0.998047 2.01375,-1.461375 2.461797,-4.289563 0.998047,-6.304688 -0.917969,-1.261562 -2.367066,-1.90712 -3.816406,-1.857422 z"/>
    <path style="fill:#c53753;stroke:none"
       d="m 68.519531,2.4199219 c -1.753172,0.1482422 -3.328047,1.3214062 -3.90039,3.1054687 -0.7715,2.36875 0.522484,4.9162504 2.896484,5.6875004 2.370625,0.77375 4.916406,-0.526641 5.691406,-2.900391 0.765,-2.36625 -0.53475,-4.9098437 -2.90625,-5.6835938 -0.593406,-0.1940625 -1.196859,-0.2583984 -1.78125,-0.2089843 z m -8.492187,6.484375 c -1.76802,0.07904 -3.298828,1.3909371 -3.585938,3.2109371 -0.3335,2.07625 1.08936,4.029219 3.16211,4.355469 2.074625,0.32875 4.026328,-1.085156 4.361328,-3.160156 0.32075,-2.085 -1.090344,-4.0288283 -3.167969,-4.3613282 -0.259266,-0.041094 -0.516957,-0.056213 -0.769531,-0.044922 z m -6.31836,7.0390621 c -1.755375,0 -3.173828,1.419375 -3.173828,3.171875 0,1.7575 1.418453,3.177735 3.173828,3.177735 1.7535,0 3.169922,-1.420235 3.169922,-3.177735 0,-1.7525 -1.416422,-3.171875 -3.169922,-3.171875 z m -39.640625,4.333985 c -1.449235,-0.04771 -2.898359,0.603125 -3.814453,1.863281 -1.4614998,2.01125 -1.0082966,4.837031 1.001953,6.300781 2.016625,1.4675 4.840328,1.019453 6.298829,-0.998047 1.473625,-2.01625 1.028234,-4.83789 -0.994141,-6.30664 -0.753469,-0.550781 -1.622646,-0.830752 -2.492188,-0.859375 z m 35.25,2.318359 c -0.175663,-0.0076 -0.354609,0.0023 -0.535156,0.03125 -1.438,0.22875 -2.426766,1.583438 -2.197265,3.023438 0.228499,1.44125 1.585968,2.425468 3.027343,2.199218 1.442,-0.2275 2.422766,-1.58164 2.197266,-3.02539 -0.201688,-1.264375 -1.262541,-2.175384 -2.492188,-2.228516 z m -2.785156,6.269531 c -0.282691,-0.02441 -0.574359,0.0048 -0.861328,0.09766 -1.151875,0.3725 -1.778344,1.610312 -1.402344,2.757812 0.370125,1.1475 1.605,1.776094 2.75,1.402344 1.148375,-0.3725 1.781328,-1.607813 1.408203,-2.757813 -0.283781,-0.859687 -1.046457,-1.426757 -1.894531,-1.5 z M 17,31.060547 c -1.480055,-0.103945 -2.951422,0.668906 -3.669922,2.074219 -0.953625,1.876125 -0.207484,4.167437 1.666016,5.117187 1.875,0.961875 4.171875,0.208547 5.125,-1.658203 0.956125,-1.873625 0.206609,-4.168203 -1.666016,-5.126953 C 17.986953,31.228359 17.493352,31.095195 17,31.060547 Z m 27.681641,3.386719 c -0.234246,0.01727 -0.46961,0.08062 -0.69336,0.195312 -0.877495,0.449625 -1.232031,1.530234 -0.785156,2.41211 0.4565,0.892499 1.534625,1.244187 2.421875,0.789062 0.88275,-0.451625 1.240234,-1.535594 0.787109,-2.417969 -0.335812,-0.664594 -1.02773,-1.030318 -1.730468,-0.978515 z m 28.228515,3.068359 c -0.42086,0.01461 -0.84275,0.150328 -1.208984,0.416016 -0.9775,0.71 -1.196703,2.074734 -0.486328,3.052734 0.715,0.974625 2.080937,1.195828 3.054687,0.486328 0.97875,-0.714875 1.193516,-2.081109 0.478516,-3.052734 -0.438281,-0.613438 -1.136456,-0.926687 -1.837891,-0.902344 z m 6.291016,0.464844 c -0.342891,0.02453 -0.686406,0.117203 -1.011719,0.283203 -1.30375,0.65875 -1.814297,2.253422 -1.154297,3.560547 0.665,1.297875 2.249688,1.815922 3.554688,1.154297 1.305,-0.6645 1.820547,-2.257719 1.154297,-3.558594 -0.492188,-0.977719 -1.514297,-1.513029 -2.542969,-1.439453 z m -11.634766,0.06641 c -0.460203,-0.0012 -0.918469,0.173328 -1.269531,0.525391 -0.705075,0.705625 -0.707016,1.846703 0.0059,2.548828 0.694875,0.69725 1.832032,0.7065 2.535157,0 0.706025,-0.707 0.706031,-1.847094 0.0039,-2.542969 -0.3535,-0.352075 -0.815188,-0.530028 -1.275391,-0.53125 z m -47.027344,1.808594 c -1.232015,0.104361 -2.339718,0.931765 -2.742187,2.18164 -0.5445,1.6655 0.366703,3.453047 2.033203,3.998047 1.666,0.542375 3.459953,-0.369203 4.001953,-2.033203 0.537125,-1.6695 -0.368765,-3.464797 -2.041015,-3.998047 -0.416282,-0.136718 -0.841282,-0.183224 -1.251954,-0.148437 z m 66.335938,0 c -0.410254,-0.03479 -0.833438,0.01172 -1.25,0.148437 -1.66875,0.53325 -2.579063,2.328547 -2.039062,3.998047 0.537499,1.664 2.331796,2.575578 3.998046,2.033203 1.66375,-0.545 2.584219,-2.332547 2.042969,-3.998047 -0.4125,-1.249875 -1.521191,-2.077279 -2.751953,-2.18164 z m 8.005859,3.550781 c -0.252614,-0.0116 -0.510156,0.0022 -0.769531,0.04297 -2.08625,0.329625 -3.498515,2.283703 -3.166016,4.361328 0.32875,2.077125 2.276719,3.494734 4.355469,3.162109 2.07625,-0.329 3.496016,-2.27775 3.166016,-4.359375 -0.287656,-1.814859 -1.817634,-3.125834 -3.585938,-3.207031 z m -69.765625,3.146484 c -1.22826,0.05447 -2.28989,0.972454 -2.486328,2.228516 -0.229,1.445375 0.755906,2.798344 2.191406,3.027344 1.44775,0.231875 2.803797,-0.758766 3.029297,-2.197266 0.2295,-1.441375 -0.752968,-2.798844 -2.199218,-3.027344 -0.18025,-0.02898 -0.359691,-0.03903 -0.535157,-0.03125 z m 77.791016,2.638672 c -2.4975,0 -4.519531,2.0225 -4.519531,4.515625 0,2.49225 2.022031,4.513672 4.519531,4.513672 2.48124,0 4.50781,-2.0205 4.50781,-4.515625 0,-2.49025 -2.02657,-4.513672 -4.50781,-4.513672 z m -73.023438,2.326172 c -1.2085,0 -2.191406,0.983875 -2.191406,2.1875 0,1.203625 0.982906,2.190494 2.191406,2.183594 1.203625,0 2.183594,-0.979969 2.183594,-2.183594 0,-1.203625 -0.979969,-2.1875 -2.183594,-2.1875 z m 4.548829,3.460938 c -0.119548,-0.0052 -0.24236,0.0023 -0.365235,0.02148 -0.976,0.15525 -1.65539,1.068359 -1.49414,2.052734 0.157125,0.983875 1.077125,1.648047 2.0625,1.498047 0.975,-0.15675 1.645062,-1.078703 1.492187,-2.064453 -0.136719,-0.859687 -0.858477,-1.471315 -1.695312,-1.507812 z m 36.871093,5.826172 c -0.698806,-0.0496 -1.397609,0.316906 -1.736328,0.980468 -0.44775,0.880875 -0.09764,1.965297 0.78711,2.419922 0.88775,0.451625 1.971328,0.101188 2.423828,-0.789062 0.45,-0.877375 0.09469,-1.961969 -0.789063,-2.417969 -0.219687,-0.113281 -0.452611,-0.176826 -0.685547,-0.193359 z m 1.759766,4.722656 c -0.700476,-0.02312 -1.400781,0.28914 -1.847656,0.896484 -0.710375,0.974625 -0.491172,2.346641 0.486328,3.056641 0.977875,0.7095 2.345625,0.495672 3.046875,-0.486328 0.70875,-0.974625 0.500234,-2.340735 -0.478516,-3.052735 -0.365156,-0.266203 -0.786745,-0.400191 -1.207031,-0.414062 z m -22.501953,5.736328 c -0.841589,0.0356 -1.561063,0.657094 -1.701172,1.521484 -0.149,0.9765 0.520906,1.892516 1.503906,2.056641 0.982875,0.15625 1.900922,-0.515125 2.060547,-1.5 0.149875,-0.9775 -0.524797,-1.893516 -1.498047,-2.056641 -0.12389,-0.01977 -0.245007,-0.02657 -0.365234,-0.02148 z m 23.529297,0.177734 c -0.677656,0 -1.354766,0.259016 -1.869141,0.775391 -1.038125,1.031625 -1.038125,2.706031 0,3.738281 1.02875,1.036125 2.710078,1.036125 3.736328,0 1.0337,-1.03225 1.031953,-2.706656 0.002,-3.738281 -0.515,-0.516375 -1.191484,-0.775391 -1.86914,-0.775391 z m -27.931641,2.748047 c -0.847846,0.07267 -1.611078,0.639297 -1.888672,1.498047 -0.376,1.15475 0.244094,2.389219 1.402344,2.761719 1.147875,0.371125 2.377484,-0.26125 2.755859,-1.40625 0.373125,-1.149875 -0.259828,-2.383781 -1.408203,-2.753907 -0.28625,-0.09316 -0.578713,-0.123833 -0.861328,-0.09961 z m -5.349609,2.558594 c -1.029838,-0.07199 -2.048125,0.463437 -2.546875,1.4375 -0.65675,1.30525 -0.138172,2.891515 1.158203,3.556641 1.30125,0.665 2.895453,0.147921 3.564453,-1.158204 0.657625,-1.29875 0.135719,-2.889687 -1.160156,-3.554687 -0.326907,-0.165406 -0.672346,-0.257252 -1.015625,-0.28125 z m -27.056641,1.359375 c -0.869193,0.02963 -1.739859,0.310469 -2.496094,0.859375 -2.0151246,1.463875 -2.4634371,4.290547 -0.992187,6.310547 1.463875,2.01025 4.28275,2.46389 6.296875,0.99414 2.022375,-1.466375 2.467781,-4.291062 1.003906,-6.304687 -0.917656,-1.260391 -2.363844,-1.908756 -3.8125,-1.859375 z m 19.738281,0.40625 c -1.017724,-0.03423 -2.035156,0.423047 -2.679687,1.310547 -1.03175,1.414 -0.713406,3.397515 0.699219,4.43164 1.420875,1.02975 3.406828,0.715328 4.439453,-0.701171 1.029375,-1.418501 0.712422,-3.408172 -0.705078,-4.435547 -0.531938,-0.388172 -1.143272,-0.584928 -1.753907,-0.605469 z m 40.435547,0 c -0.61122,0.02054 -1.223828,0.217297 -1.755859,0.605469 -1.414,1.027375 -1.727469,3.017047 -0.699219,4.435547 1.030875,1.4165 3.011094,1.729546 4.433594,0.701171 1.41875,-1.03025 1.731719,-3.01764 0.699219,-4.43164 -0.642969,-0.8875 -1.659034,-1.344782 -2.677735,-1.310547 z m -49.568359,0.730469 c -0.97475,0 -1.948469,0.371562 -2.691406,1.117187 -1.48925,1.48775 -1.48925,3.901344 0,5.386719 1.486875,1.48725 3.896046,1.48725 5.388672,0 1.484374,-1.487875 1.484374,-3.898969 0,-5.386719 -0.746313,-0.745625 -1.722516,-1.117187 -2.697266,-1.117187 z m 47.919922,7.644531 c -0.494369,0.0349 -0.991469,0.165891 -1.460938,0.404297 -1.871125,0.9565 -2.616281,3.245578 -1.660156,5.126953 0.957,1.8735 3.25125,2.612875 5.125,1.65625 1.86875,-0.951125 2.616953,-3.243188 1.658203,-5.117188 -0.709687,-1.404375 -2.179002,-2.175002 -3.662109,-2.070312 z m -2.980469,9.105469 c -0.584131,-0.05043 -1.188594,0.01283 -1.78125,0.205078 -2.368125,0.7725 -3.669844,3.313468 -2.902344,5.683587 0.767125,2.3725 3.32175,3.67094 5.6875,2.89844 2.3715,-0.7715 3.67125,-3.31692 2.90625,-5.685543 -0.58125,-1.777594 -2.157763,-2.950279 -3.910156,-3.101562 z"/>
    <path style="fill:#65cbb8;stroke:none"
       d="M 38.890625,2.421875 C 38.305732,2.3730469 37.703,2.438125 37.109375,2.6328125 34.746,3.3965625 33.440969,5.94625 34.214844,8.3125 c 0.769,2.37375 3.31989,3.674141 5.68164,2.900391 2.373125,-0.77125 3.671891,-3.3187504 2.900391,-5.6875004 C 42.223781,3.7413281 40.645303,2.5683594 38.890625,2.421875 Z m -4.298828,10.501953 c -0.493582,0.03557 -0.988781,0.168828 -1.457031,0.408203 -1.873625,0.95125 -2.617703,3.242188 -1.658204,5.117188 0.950625,1.87875 3.241235,2.624062 5.115235,1.664062 1.86525,-0.95375 2.621172,-3.243593 1.669922,-5.121093 -0.71775,-1.403438 -2.189176,-2.175059 -3.669922,-2.06836 z m 58.755859,7.353516 c -0.868703,0.02882 -1.74,0.308594 -2.496094,0.859375 -2.019999,1.46875 -2.459296,4.29039 -0.998046,6.30664 1.46375,2.0175 4.288437,2.464453 6.304687,1.001953 2.02125,-1.468749 2.467891,-4.293593 0.994141,-6.308593 -0.9125,-1.257813 -2.356848,-1.90741 -3.804688,-1.859375 z m -10.289062,0.269531 c -0.974063,0 -1.949688,0.371562 -2.695313,1.117187 -1.48625,1.485 -1.48625,3.897969 0,5.386719 1.49125,1.48375 3.897969,1.484297 5.386719,-0.002 1.4925,-1.48625 1.4925,-3.896016 0,-5.384766 -0.744375,-0.745625 -1.717344,-1.117187 -2.691406,-1.117187 z m -8.910156,2.001953 c -1.018339,-0.03438 -2.033438,0.423047 -2.677735,1.310547 -1.02825,1.42 -0.714078,3.402031 0.701172,4.425781 1.4175,1.03625 3.402891,0.722735 4.431641,-0.697265 1.0325,-1.42 0.719531,-3.399844 -0.699219,-4.433594 -0.533438,-0.38625 -1.144856,-0.584844 -1.755859,-0.605469 z m -40.882813,0.002 c -0.61167,0.0207 -1.223031,0.218203 -1.755859,0.603516 -1.412625,1.03375 -1.730969,3.01414 -0.699219,4.431641 1.03125,1.4225 3.015094,1.729375 4.433594,0.703124 1.4175,-1.02875 1.734453,-3.009687 0.705078,-4.429687 -0.645391,-0.8875 -1.664143,-1.343091 -2.683594,-1.308594 z m 33.716797,2.833985 c -1.02675,-0.07424 -2.047797,0.457734 -2.541016,1.435546 -0.672875,1.30625 -0.149437,2.899141 1.148438,3.556641 1.307625,0.6675 2.8985,0.147656 3.5625,-1.152344 0.66025,-1.30375 0.139719,-2.89914 -1.160156,-3.55664 -0.324469,-0.165625 -0.667516,-0.258457 -1.009766,-0.283203 z m -6.097656,3.480468 c -0.849498,0.07184 -1.614157,0.640313 -1.890625,1.5 -0.3745,1.15 0.257265,2.385313 1.40039,2.757813 1.148375,0.36875 2.38386,-0.254844 2.75586,-1.402344 0.369625,-1.1475 -0.254844,-2.383906 -1.402344,-2.753906 -0.286875,-0.09406 -0.580115,-0.125508 -0.863281,-0.101563 z m -27.558594,1.816407 c -0.678297,0.0014 -1.356719,0.261015 -1.871094,0.77539 -1.035125,1.0275 -1.03025,2.708125 0,3.734375 1.033625,1.037125 2.710938,1.037125 3.742188,0 1.03515,-1.02625 1.035156,-2.707734 0.0039,-3.740234 -0.517563,-0.515 -1.196703,-0.770938 -1.875,-0.769531 z m 23.365234,1.867187 c -0.838357,0.03708 -1.556922,0.656328 -1.699218,1.521484 -0.145001,0.974 0.521062,1.893516 1.492187,2.056641 0.99175,0.149875 1.915109,-0.514906 2.068359,-1.503906 0.152875,-0.975 -0.521968,-1.894688 -1.496093,-2.054688 -0.123282,-0.01953 -0.245469,-0.02483 -0.365235,-0.01953 z m -22.183594,4.966797 c -0.702143,-0.02434 -1.400859,0.288906 -1.83789,0.902344 -0.711,0.971625 -0.497141,2.338828 0.474609,3.048828 0.9765,0.714375 2.342813,0.492203 3.054688,-0.482422 0.712375,-0.978 0.489656,-2.342734 -0.480469,-3.052734 -0.367312,-0.265688 -0.789651,-0.40141 -1.210938,-0.416016 z m 1.863282,5.496094 c -0.697242,-0.04997 -1.390625,0.315203 -1.730469,0.982422 -0.45175,0.883875 -0.101094,1.96439 0.785156,2.416015 0.888625,0.4605 1.971641,0.100547 2.416016,-0.783203 0.454125,-0.890125 0.103469,-1.96925 -0.785156,-2.421875 -0.220344,-0.112906 -0.453133,-0.176703 -0.685547,-0.193359 z m 36.77539,5.832031 c -0.119707,-0.0056 -0.240312,-0.0012 -0.363281,0.01758 -0.976625,0.159625 -1.646484,1.078125 -1.490234,2.0625 0.152875,0.978 1.077187,1.643063 2.054687,1.492188 0.9775,-0.15675 1.648594,-1.072266 1.496094,-2.056641 -0.134531,-0.862641 -0.859316,-1.476079 -1.697266,-1.515625 z M 4.515625,49.191406 C 2.022375,49.191406 0,51.214828 0,53.705078 c 0,2.495125 2.0205,4.515625 4.515625,4.515625 2.493625,0 4.5097656,-2.0205 4.5097656,-4.515625 0,-2.49025 -2.0161406,-4.513672 -4.5097656,-4.513672 z m 73.021484,2.326172 c -1.2075,0 -2.185547,0.983875 -2.185547,2.1875 0,1.203625 0.978047,2.190494 2.185547,2.183594 1.21,0 2.185547,-0.979969 2.185547,-2.183594 0,-1.203625 -0.975547,-2.1875 -2.185547,-2.1875 z m 4.515625,4.054688 c -1.226777,0.05367 -2.290312,0.969781 -2.488281,2.234375 -0.23,1.4385 0.754766,2.792531 2.197266,3.019531 1.44625,0.23 2.79539,-0.755766 3.02539,-2.197266 0.22875,-1.44525 -0.752968,-2.799765 -2.199218,-3.02539 -0.179844,-0.02898 -0.359903,-0.03892 -0.535157,-0.03125 z m -69.166015,0.820312 c -0.252844,-0.01141 -0.511782,0.002 -0.771485,0.04297 -2.076125,0.329 -3.4935934,2.28225 -3.1679684,4.359375 0.331125,2.07775 2.2821714,3.496062 4.3574224,3.164062 2.085874,-0.327625 3.498468,-2.280296 3.167968,-4.357422 -0.286672,-1.819234 -1.816034,-3.129106 -3.585937,-3.208984 z m 8.195312,4.835938 c -0.410906,-0.03589 -0.835453,0.0075 -1.251953,0.142578 -1.6665,0.545375 -2.577703,2.335359 -2.033203,4.005859 0.542875,1.6645 2.329016,2.575125 3.994141,2.03125 1.67225,-0.537625 2.57714,-2.328547 2.041015,-3.998047 -0.40725,-1.246875 -1.517281,-2.073969 -2.75,-2.18164 z m 65.25,0 c -1.233222,0.1079 -2.343125,0.936968 -2.75,2.1875 -0.535,1.664625 0.374219,3.454562 2.042969,3.992187 1.66625,0.543875 3.451641,-0.36675 3.994141,-2.03125 0.54875,-1.6705 -0.371407,-3.460484 -2.035157,-4.005859 -0.416562,-0.135125 -0.840879,-0.178545 -1.251953,-0.142578 z m -58.496093,2.921875 c -0.342889,0.0236 -0.686157,0.114015 -1.011719,0.279297 -1.30125,0.662499 -1.823203,2.26125 -1.158203,3.5625 0.6665,1.306625 2.25689,1.82075 3.55664,1.15625 1.310125,-0.661625 1.82375,-2.257313 1.15625,-3.554688 -0.494344,-0.977063 -1.514302,-1.514146 -2.542968,-1.443359 z m 6.517578,1.376953 c -0.420709,0.01387 -0.842797,0.147859 -1.208985,0.414062 -0.97325,0.712 -1.186625,2.07811 -0.484375,3.052735 0.712875,0.982 2.079094,1.195828 3.058594,0.486328 0.970125,-0.71 1.193797,-2.082016 0.482422,-3.056641 -0.445547,-0.607344 -1.146476,-0.919603 -1.847656,-0.896484 z m 5.496093,0.238281 c -0.460078,-1.87e-4 -0.921125,0.173063 -1.273437,0.523437 -0.703125,0.708375 -0.703125,1.844172 0,2.544922 0.708,0.70365 1.842219,0.699782 2.542969,0.0039 0.7055,-0.708 0.7055,-1.845328 0,-2.548829 -0.350375,-0.349625 -0.809454,-0.52325 -1.269532,-0.523437 z m 51.115235,2.982422 c -1.478614,-0.103506 -2.95,0.668344 -3.671875,2.074219 -0.955,1.871625 -0.206328,4.165547 1.669922,5.123046 1.87375,0.952626 4.16039,0.207485 5.11914,-1.666015 0.9575,-1.8765 0.210938,-4.171328 -1.664062,-5.126953 -0.467188,-0.238157 -0.960254,-0.369795 -1.453125,-0.404297 z m -28.490235,0.625 c -0.234113,0.01689 -0.469953,0.08008 -0.693359,0.193359 -0.8725,0.454625 -1.228547,1.534219 -0.779297,2.417969 0.44925,0.88775 1.537047,1.243109 2.419922,0.787109 0.87888,-0.455125 1.237906,-1.534672 0.785156,-2.419922 -0.338718,-0.665437 -1.030082,-1.029193 -1.732422,-0.978515 z m -1.21875,4.816406 c -0.283259,-0.02422 -0.574234,0.0065 -0.861328,0.09961 -1.141625,0.370126 -1.77489,1.604032 -1.40039,2.753907 0.368625,1.145 1.606406,1.7725 2.753906,1.40625 1.1475,-0.3765 1.771969,-1.611844 1.402344,-2.761719 -0.279,-0.85875 -1.044752,-1.425373 -1.894532,-1.498047 z m 32.408203,3.919922 c -1.448022,-0.04859 -2.89414,0.599453 -3.810546,1.857422 -1.47,2.013625 -1.021953,4.840812 0.998046,6.304687 2.0225,1.46975 4.840782,1.01611 6.300782,-0.99414 1.47375,-2.02 1.024609,-4.846672 -0.994141,-6.310547 -0.756094,-0.548906 -1.625327,-0.82827 -2.494141,-0.857422 z m -35.330078,1.423828 c -0.175611,-0.0077 -0.354922,0.0025 -0.535156,0.03125 -1.4355,0.225125 -2.419828,1.580531 -2.189453,3.019531 0.226125,1.442375 1.574156,2.433672 3.019531,2.201172 1.441875,-0.229 2.427313,-1.582594 2.195313,-3.027344 -0.195235,-1.261312 -1.260952,-2.17095 -2.490235,-2.224609 z m -4.625,5.585938 c -1.755375,0 -3.173828,1.421453 -3.173828,3.173828 0,1.7525 1.418453,3.175781 3.173828,3.175781 1.7535,0 3.169922,-1.423281 3.169922,-3.175781 0,-1.752375 -1.416422,-3.173828 -3.169922,-3.173828 z m -6.664062,5.773437 c -1.770002,0.08016 -3.303375,1.393969 -3.591797,3.214844 -0.3305,2.068875 1.087469,4.025437 3.167969,4.351562 2.070375,0.3325 4.024859,-1.084515 4.349609,-3.166015 0.3335,-2.07625 -1.081547,-4.024797 -3.154297,-4.357422 -0.259578,-0.04106 -0.518627,-0.05442 -0.771484,-0.04297 z m -8.925781,5.101563 c -1.750248,0.151283 -3.327547,1.323968 -3.904297,3.101562 -0.773875,2.368627 0.524906,4.914047 2.894531,5.685547 2.3745,0.7725 4.923375,-0.52594 5.6875,-2.89844 0.7715,-2.370123 -0.527266,-4.911091 -2.900391,-5.683591 -0.591406,-0.19225 -1.193927,-0.255506 -1.777343,-0.205078 z"/>
  </g>
  <path style="fill:#4e5d6e;stroke:none"
     d="m 88.94598,17.540303 c -1.211258,0 -2.197805,0.985781 -2.197805,2.197808 0,1.210489 0.986547,2.197808 2.197805,2.197808 1.210489,0 2.242268,-0.987319 2.242268,-2.197808 0,-1.212027 -1.031779,-2.197808 -2.242268,-2.197808 z m -7.132964,0.537135 c -3.769127,0 -5.609279,2.647002 -5.609273,5.921705 l 0,4.173313 -2.823869,0 0,2.465775 2.823869,0 0,19.467848 3.23242,0 0,-19.467848 4.710448,0 0,-2.465775 -4.710448,0 0,-4.083189 c 0,-2.019455 0.896716,-3.230021 2.960853,-3.230021 l 1.749595,0 0,-2.781808 -2.333595,0 z m 56.211744,0.09012 0,31.938518 5.83158,0 0,-14.264726 c 0,-3.050678 1.92802,-4.126448 3.76836,-4.126448 1.83804,0 3.81282,1.031626 3.81282,4.126448 l 0,14.264726 5.83158,0 0,-15.116692 c 0,-4.935165 -2.69091,-8.523267 -7.80588,-8.523267 -2.06183,0 -4.03724,0.807477 -5.60688,2.423718 l 0,-10.722277 -5.83158,0 z m -12.29282,8.298559 c -4.75429,0 -9.01595,2.603071 -9.01595,7.447795 0,4.30608 2.60142,6.144933 6.81813,6.547763 l 3.67824,0.359291 c 1.83958,0.179651 2.46818,0.987743 2.46818,2.154549 0,1.74898 -2.10966,2.421315 -4.12765,2.421315 -1.79497,0 -4.30578,-0.267332 -6.23533,-2.197808 l -3.81283,3.812818 c 2.96086,2.960853 6.27966,3.364606 9.95804,3.364606 5.51795,0 9.91477,-2.467246 9.91477,-7.624436 0,-3.949547 -2.33345,-6.417072 -6.95392,-6.866199 l -3.67824,-0.35809 c -2.06413,-0.179035 -2.42251,-1.165317 -2.42251,-2.019965 0,-1.164423 0.98684,-2.239866 3.32014,-2.239866 2.01877,0 4.08199,0.358119 5.42783,1.568147 l 3.58811,-3.632573 c -2.24409,-2.108588 -5.29324,-2.737347 -8.92701,-2.737347 z m 43.29165,0 c -3.90294,0 -6.14521,0.71768 -8.43314,3.230022 l 3.72269,3.632572 c 1.21126,-1.389063 2.24439,-1.927439 4.48695,-1.927439 3.09467,0 4.34995,1.121135 4.34995,3.678235 l 0,1.165596 -5.51675,0 c -5.42874,0 -7.98493,3.050966 -7.98493,6.774873 0,2.063523 0.67355,3.947394 1.92864,5.248785 1.39045,1.391216 3.31985,2.062022 5.96616,2.062022 2.69169,0 4.17303,-0.670508 5.74267,-2.241067 l 0,2.01636 5.69579,0 0,-15.384659 c 0,-5.473194 -3.40878,-8.2553 -9.95803,-8.2553 z m 25.571,0 c -2.51249,0 -4.75519,1.16649 -5.87724,2.512639 l 0,-2.24347 -5.697,0 0,23.37079 5.83158,0 0,-14.084479 c 0,-2.960238 1.97459,-4.306695 3.76956,-4.306695 1.43506,0 2.19872,0.493895 3.09544,1.390303 l 4.39562,-4.440078 c -1.61425,-1.615318 -3.23079,-2.19901 -5.51796,-2.19901 z m 14.22147,0 c -6.05629,0 -10.18273,4.307022 -10.18273,11.932333 0,9.465039 5.29324,11.977996 10.81119,11.977996 4.21672,0 6.50542,-1.30017 8.88256,-3.678235 l -3.54485,-3.454729 c -1.47889,1.480427 -2.73615,2.19901 -5.29325,2.19901 -3.27462,0 -5.1142,-2.198125 -5.1142,-5.203122 l 14.62522,0 0,-2.601561 C 219,31.222528 215.31994,26.46612 208.81606,26.46612 Z m -105.46957,1.301381 c -2.24409,0 -4.217484,0.76368 -5.383367,1.928641 -2.199491,2.198106 -2.691685,5.60748 -2.691685,9.196188 0,3.589015 0.492194,6.99959 2.691685,9.197389 1.165883,1.165884 3.095147,1.971899 5.337707,1.971899 2.37791,0 4.39744,-0.581875 6.19087,-2.870729 l 0,3.453527 c 0,3.769819 -1.79299,6.774873 -6.05508,6.774873 -2.5571,0 -3.679439,-0.761573 -5.29445,-2.19901 l -2.107684,2.065628 c 2.330999,2.106512 4.171824,2.960853 7.491054,2.960853 5.78635,0 9.19618,-3.994258 9.19618,-9.46776 l 0,-22.741128 -3.18555,0 0,2.600359 c -1.7942,-2.33146 -3.76947,-2.87073 -6.18968,-2.87073 z m -16.015521,0.270371 0,22.068207 3.230022,0 0,-22.068207 -3.230022,0 z m 16.687241,2.600359 c 4.80043,0 5.47349,4.127362 5.47349,8.254099 0,4.127044 -0.67306,8.254098 -5.47349,8.254098 -4.800424,0 -5.516751,-4.127054 -5.516751,-8.254098 0,-4.126737 0.716327,-8.254099 5.516751,-8.254099 z m 104.79785,0.674123 c 1.97416,0 3.2754,1.031328 3.90295,2.421314 0.35991,0.852572 0.49293,1.480753 0.53833,2.511438 l -8.88256,0 c 0.0462,-1.030685 0.18039,-1.658866 0.53954,-2.511438 0.62601,-1.389986 1.92835,-2.421314 3.90174,-2.421314 z m -40.28634,8.927019 4.62032,0 0,1.254517 c 0,1.436898 -0.22365,2.378296 -0.85196,2.960853 -1.03207,0.98831 -2.06323,1.122337 -3.67824,1.122337 -2.28716,0 -3.36461,-1.077597 -3.36461,-2.691685 0,-1.660692 1.16651,-2.646022 3.27449,-2.646022 z"/>
</svg>
