<svg version="1.1" viewBox="0.0 0.0 960.0 720.0" fill="none" stroke="none" stroke-linecap="square" stroke-miterlimit="10" xmlns:xlink="http://www.w3.org/1999/xlink" xmlns="http://www.w3.org/2000/svg"><clipPath id="g100f93ba9f_0_222.0"><path d="m0 0l960.0 0l0 720.0l-960.0 0l0 -720.0z" clip-rule="nonzero"/></clipPath><g clip-path="url(#g100f93ba9f_0_222.0)"><path fill="#ffffff" d="m0 0l960.0 0l0 720.0l-960.0 0z" fill-rule="evenodd"/><path fill="#f3f3f3" d="m672.0 342.70865l74.14172 0l0 -17.29132l34.582703 34.582672l-34.582703 34.582672l0 -17.29132l-74.14172 0l17.29132 -17.291351z" fill-rule="evenodd"/><path stroke="#cccccc" stroke-width="4.0" stroke-linejoin="round" stroke-linecap="butt" d="m672.0 342.70865l74.14172 0l0 -17.29132l34.582703 34.582672l-34.582703 34.582672l0 -17.29132l-74.14172 0l17.29132 -17.291351z" fill-rule="evenodd"/><path fill="#f3f3f3" d="m240.70866 360.0l0 0c0 -132.15695 107.134384 -239.29134 239.29134 -239.29134l0 0c63.46399 0 124.328674 25.210983 169.20453 70.08681c44.875854 44.87584 70.08679 105.74051 70.08679 169.20453l0 0c0 132.15695 -107.13434 239.29132 -239.29132 239.29132l0 0c-132.15695 0 -239.29134 -107.13437 -239.29134 -239.29132z" fill-rule="evenodd"/><path stroke="#cccccc" stroke-width="4.0" stroke-linejoin="round" stroke-linecap="butt" d="m240.70866 360.0l0 0c0 -132.15695 107.134384 -239.29134 239.29134 -239.29134l0 0c63.46399 0 124.328674 25.210983 169.20453 70.08681c44.875854 44.87584 70.08679 105.74051 70.08679 169.20453l0 0c0 132.15695 -107.13434 239.29132 -239.29132 239.29132l0 0c-132.15695 0 -239.29134 -107.13437 -239.29134 -239.29132z" fill-rule="evenodd"/><path fill="#cccccc" d="m363.98438 377.41q0 -5.109375 -2.765625 -7.828125q-2.765625 -2.71875 -9.984375 -5.296875q-7.21875 -2.578125 -11.046875 -5.40625q-3.8125 -2.84375 -5.71875 -6.46875q-1.890625 -3.640625 -1.890625 -8.328125q0 -8.109375 5.40625 -13.359375q5.421875 -5.25 14.1875 -5.25q6.0 0 10.6875 2.703125q4.6875 2.6875 7.21875 7.46875q2.53125 4.78125 2.53125 10.5l-8.625 0q0 -6.328125 -3.046875 -9.796875q-3.046875 -3.46875 -8.765625 -3.46875q-5.203125 0 -8.0625 2.90625q-2.859375 2.90625 -2.859375 8.15625q0 4.3125 3.09375 7.21875q3.09375 2.90625 9.5625 5.203125q10.078125 3.328125 14.40625 8.203125q4.34375 4.875 4.34375 12.75q0 8.296875 -5.390625 13.296875q-5.390625 4.984375 -14.671875 4.984375q-5.953125 0 -11.0 -2.59375q-5.03125 -2.609375 -7.921875 -7.3125q-2.875 -4.71875 -2.875 -10.8125l8.625 0q0 6.328125 3.53125 9.84375q3.546875 3.515625 9.640625 3.515625q5.671875 0 8.53125 -2.90625q2.859375 -2.90625 2.859375 -7.921875zm60.609375 -51.0l0 48.515625q-0.09375 9.703125 -5.625 15.1875q-5.53125 5.484375 -15.421875 5.484375q-10.125 0 -15.46875 -5.359375q-5.34375 -5.375 -5.4375 -15.3125l0 -48.515625l8.53125 0l0 48.1875q0 6.890625 2.921875 10.296875q2.9375 3.390625 9.453125 3.390625q6.5625 0 9.484375 -3.390625q2.9375 -3.40625 2.9375 -10.296875l0 -48.1875l8.625 0zm33.84375 40.640625l-12.0 0l0 27.609375l-8.625 0l0 -68.25l19.125 0q10.03125 0 15.1875 5.234375q5.15625 5.21875 5.15625 15.296875q0 6.328125 -2.796875 11.046875q-2.78125 4.703125 -7.890625 7.09375l13.21875 29.015625l0 0.5625l-9.234375 0l-12.140625 -27.609375zm-12.0 -7.359375l10.40625 0q5.390625 0 8.59375 -3.46875q3.21875 -3.46875 3.21875 -9.28125q0 -13.125 -11.90625 -13.125l-10.3125 0l0 25.875zm61.828125 21.796875l15.609375 -55.078125l9.421875 0l-21.234375 68.25l-7.5 0l-21.1875 -68.25l9.375 0l15.515625 55.078125zm66.984375 -18.375l-24.140625 0l0 24.1875l28.125 0l0 7.359375l-36.703125 0l0 -68.25l36.234375 0l0 7.40625l-27.65625 0l0 21.9375l24.140625 0l0 7.359375zm32.71875 -2.4375l13.96875 -34.265625l9.703125 0l-19.40625 42.796875l0 25.453125l-8.578125 0l0 -25.453125l-19.40625 -42.796875l9.75 0l13.96875 34.265625z" fill-rule="nonzero"/><path fill="#6aa84f" fill-opacity="0.6" d="m256.71127 360.0l0 0c0 -54.289154 44.01007 -98.299225 98.299225 -98.299225l0 0c26.070557 0 51.073364 10.356506 69.508026 28.791199c18.434692 18.434662 28.791168 43.43744 28.791168 69.508026l0 0c0 54.289154 -44.01004 98.299194 -98.299194 98.299194l0 0c-54.289154 0 -98.299225 -44.01004 -98.299225 -98.299194z" fill-rule="evenodd"/><path stroke="#38761d" stroke-width="4.0" stroke-linejoin="round" stroke-linecap="butt" d="m256.71127 360.0l0 0c0 -54.289154 44.01007 -98.299225 98.299225 -98.299225l0 0c26.070557 0 51.073364 10.356506 69.508026 28.791199c18.434692 18.434662 28.791168 43.43744 28.791168 69.508026l0 0c0 54.289154 -44.01004 98.299194 -98.299194 98.299194l0 0c-54.289154 0 -98.299225 -44.01004 -98.299225 -98.299194z" fill-rule="evenodd"/><path fill="#ffffff" d="m328.64526 348.04l0 6.0l-3.4375 0l0 -17.0625l5.8125 0q2.53125 0 4.03125 1.578125q1.515625 1.5625 1.515625 4.078125q0 2.5 -1.5 3.953125q-1.484375 1.453125 -4.125 1.453125l-2.296875 0zm0 -2.875l2.375 0q0.984375 0 1.515625 -0.640625q0.546875 -0.640625 0.546875 -1.875q0 -1.28125 -0.5625 -2.03125q-0.546875 -0.765625 -1.46875 -0.765625l-2.40625 0l0 5.3125zm22.230469 1.875q0 3.4375 -1.625 5.34375q-1.625 1.890625 -4.515625 1.890625q-2.859375 0 -4.5 -1.875q-1.640625 -1.890625 -1.671875 -5.28125l0 -2.90625q0 -3.515625 1.625 -5.484375q1.640625 -1.984375 4.53125 -1.984375q2.84375 0 4.484375 1.9375q1.640625 1.9375 1.671875 5.4375l0 2.921875zm-3.46875 -2.859375q0 -2.3125 -0.65625 -3.4375q-0.65625 -1.125 -2.03125 -1.125q-1.375 0 -2.03125 1.09375q-0.65625 1.078125 -0.671875 3.296875l0 3.03125q0 2.234375 0.65625 3.296875q0.671875 1.0625 2.0625 1.0625q1.359375 0 2.015625 -1.03125q0.65625 -1.046875 0.65625 -3.21875l0 -2.96875zm9.53125 9.859375l-3.4375 0l0 -17.0625l3.4375 0l0 17.0625zm14.8203125 0l-3.4375 0l-5.046875 -11.1875l0 11.1875l-3.4375 0l0 -17.0625l3.4375 0l5.0625 11.203125l0 -11.203125l3.421875 0l0 17.0625zm13.8203125 -14.1875l-4.21875 0l0 14.1875l-3.453125 0l0 -14.1875l-4.15625 0l0 -2.875l11.828125 0l0 2.875z" fill-rule="nonzero"/><path fill="#ffffff" d="m313.41675 377.04l0 6.0l-3.4375 0l0 -17.0625l5.8125 0q2.53125 0 4.03125 1.578125q1.515625 1.5625 1.515625 4.078125q0 2.5 -1.5 3.953125q-1.484375 1.453125 -4.125 1.453125l-2.296875 0zm0 -2.875l2.375 0q0.984375 0 1.515625 -0.640625q0.546875 -0.640625 0.546875 -1.875q0 -1.28125 -0.5625 -2.03125q-0.546875 -0.765625 -1.46875 -0.765625l-2.40625 0l0 5.3125zm15.386719 2.640625l-1.71875 0l0 6.234375l-3.4375 0l0 -17.0625l5.484375 0q2.59375 0 4.0 1.34375q1.421875 1.34375 1.421875 3.8125q0 3.390625 -2.46875 4.75l2.984375 6.984375l0 0.171875l-3.703125 0l-2.5625 -6.234375zm-1.71875 -2.875l1.953125 0q1.03125 0 1.546875 -0.6875q0.515625 -0.6875 0.515625 -1.828125q0 -2.5625 -2.0 -2.5625l-2.015625 0l0 5.078125zm21.851562 2.109375q0 3.4375 -1.625 5.34375q-1.625 1.890625 -4.515625 1.890625q-2.859375 0 -4.5 -1.875q-1.640625 -1.890625 -1.671875 -5.28125l0 -2.90625q0 -3.515625 1.625 -5.484375q1.640625 -1.984375 4.53125 -1.984375q2.84375 0 4.484375 1.9375q1.640625 1.9375 1.671875 5.4375l0 2.921875zm-3.46875 -2.859375q0 -2.3125 -0.65625 -3.4375q-0.65625 -1.125 -2.03125 -1.125q-1.375 0 -2.03125 1.09375q-0.65625 1.078125 -0.671875 3.296875l0 3.03125q0 2.234375 0.65625 3.296875q0.671875 1.0625 2.0625 1.0625q1.359375 0 2.015625 -1.03125q0.65625 -1.046875 0.65625 -3.21875l0 -2.96875zm17.5 4.171875q-0.125 2.921875 -1.640625 4.421875q-1.515625 1.5 -4.265625 1.5q-2.890625 0 -4.4375 -1.90625q-1.53125 -1.90625 -1.53125 -5.4375l0 -2.859375q0 -3.515625 1.59375 -5.421875q1.59375 -1.90625 4.421875 -1.90625q2.796875 0 4.234375 1.5625q1.453125 1.546875 1.65625 4.46875l-3.46875 0q-0.046875 -1.796875 -0.5625 -2.484375q-0.5 -0.6875 -1.859375 -0.6875q-1.375 0 -1.953125 0.96875q-0.578125 0.96875 -0.609375 3.171875l0 3.234375q0 2.53125 0.5625 3.484375q0.578125 0.953125 1.953125 0.953125q1.359375 0 1.875 -0.65625q0.515625 -0.671875 0.59375 -2.40625l3.4375 0zm10.9375 -1.703125l-5.375 0l0 4.53125l6.359375 0l0 2.859375l-9.796875 0l0 -17.0625l9.765625 0l0 2.875l-6.328125 0l0 4.03125l5.375 0l0 2.765625zm10.167969 2.90625q0 -1.03125 -0.53125 -1.5625q-0.53125 -0.546875 -1.9375 -1.109375q-2.5625 -0.984375 -3.6875 -2.28125q-1.125 -1.3125 -1.125 -3.09375q0 -2.15625 1.515625 -3.453125q1.53125 -1.3125 3.890625 -1.3125q1.578125 0 2.796875 0.671875q1.234375 0.65625 1.890625 1.859375q0.671875 1.203125 0.671875 2.734375l-3.4375 0q0 -1.1875 -0.515625 -1.8125q-0.5 -0.625 -1.46875 -0.625q-0.890625 0 -1.40625 0.53125q-0.5 0.53125 -0.5 1.4375q0 0.703125 0.5625 1.265625q0.5625 0.5625 2.0 1.171875q2.484375 0.90625 3.609375 2.21875q1.140625 1.3125 1.140625 3.34375q0 2.21875 -1.421875 3.484375q-1.40625 1.25 -3.84375 1.25q-1.65625 0 -3.015625 -0.671875q-1.359375 -0.6875 -2.125 -1.953125q-0.765625 -1.265625 -0.765625 -2.984375l3.453125 0q0 1.46875 0.5625 2.140625q0.578125 0.671875 1.890625 0.671875q1.796875 0 1.796875 -1.921875zm12.9609375 0q0 -1.03125 -0.53125 -1.5625q-0.53125 -0.546875 -1.9375 -1.109375q-2.5625 -0.984375 -3.6875 -2.28125q-1.125 -1.3125 -1.125 -3.09375q0 -2.15625 1.515625 -3.453125q1.53125 -1.3125 3.890625 -1.3125q1.578125 0 2.796875 0.671875q1.234375 0.65625 1.890625 1.859375q0.671875 1.203125 0.671875 2.734375l-3.4375 0q0 -1.1875 -0.515625 -1.8125q-0.5 -0.625 -1.46875 -0.625q-0.890625 0 -1.40625 0.53125q-0.5 0.53125 -0.5 1.4375q0 0.703125 0.5625 1.265625q0.5625 0.5625 2.0 1.171875q2.484375 0.90625 3.609375 2.21875q1.140625 1.3125 1.140625 3.34375q0 2.21875 -1.421875 3.484375q-1.40625 1.25 -3.84375 1.25q-1.65625 0 -3.015625 -0.671875q-1.359375 -0.6875 -2.125 -1.953125q-0.765625 -1.265625 -0.765625 -2.984375l3.453125 0q0 1.46875 0.5625 2.140625q0.578125 0.671875 1.890625 0.671875q1.796875 0 1.796875 -1.921875z" fill-rule="nonzero"/><path fill="#f1c232" fill-opacity="0.6" d="m453.30972 255.05774l0 0c0 -54.289154 44.01004 -98.29921 98.299225 -98.29921l0 0c26.070557 0 51.073364 10.356491 69.507996 28.791168c18.434692 18.434677 28.791199 43.43747 28.791199 69.50804l0 0c0 54.289154 -44.01007 98.299225 -98.299194 98.299225l0 0c-54.289185 0 -98.299225 -44.01007 -98.299225 -98.299225z" fill-rule="evenodd"/><path stroke="#bf9000" stroke-width="4.0" stroke-linejoin="round" stroke-linecap="butt" d="m453.30972 255.05774l0 0c0 -54.289154 44.01004 -98.29921 98.299225 -98.29921l0 0c26.070557 0 51.073364 10.356491 69.507996 28.791168c18.434692 18.434677 28.791199 43.43747 28.791199 69.50804l0 0c0 54.289154 -44.01007 98.299225 -98.299194 98.299225l0 0c-54.289185 0 -98.299225 -44.01007 -98.299225 -98.299225z" fill-rule="evenodd"/><path fill="#ffffff" d="m507.2593 244.61336q0 -1.03125 -0.53125 -1.5625q-0.53125 -0.546875 -1.9375 -1.109375q-2.5625 -0.984375 -3.6875 -2.28125q-1.125 -1.3125 -1.125 -3.09375q0 -2.15625 1.515625 -3.453125q1.53125 -1.3125 3.890625 -1.3125q1.578125 0 2.796875 0.671875q1.234375 0.65625 1.890625 1.859375q0.671875 1.203125 0.671875 2.734375l-3.4375 0q0 -1.1875 -0.515625 -1.8125q-0.5 -0.625 -1.46875 -0.625q-0.890625 0 -1.40625 0.53125q-0.5 0.53125 -0.5 1.4375q0 0.703125 0.5625 1.265625q0.5625 0.5625 2.0 1.171875q2.484375 0.90625 3.609375 2.21875q1.140625 1.3125 1.140625 3.34375q0 2.21875 -1.421875 3.484375q-1.40625 1.25 -3.84375 1.25q-1.65625 0 -3.015625 -0.671875q-1.359375 -0.6875 -2.125 -1.953125q-0.765625 -1.265625 -0.765625 -2.984375l3.453125 0q0 1.46875 0.5625 2.140625q0.578125 0.671875 1.890625 0.671875q1.796875 0 1.796875 -1.921875zm13.898468 0.984375l-4.703125 0l-0.90625 3.5l-3.6406555 0l5.3281555 -17.0625l3.15625 0l5.359375 17.0625l-3.671875 0l-0.921875 -3.5zm-3.953125 -2.859375l3.1875 0l-1.59375 -6.09375l-1.59375 6.09375zm14.644531 -10.703125l3.21875 12.34375l3.21875 -12.34375l4.5 0l0 17.0625l-3.46875 0l0 -4.625l0.328125 -7.109375l-3.421875 11.734375l-2.34375 0l-3.40625 -11.734375l0.3125 7.109375l0 4.625l-3.4375 0l0 -17.0625l4.5 0zm17.136719 11.0625l0 6.0l-3.4375 0l0 -17.0625l5.8125 0q2.53125 0 4.03125 1.578125q1.515625 1.5625 1.515625 4.078125q0 2.5 -1.5 3.953125q-1.484375 1.453125 -4.125 1.453125l-2.296875 0zm0 -2.875l2.375 0q0.984375 0 1.515625 -0.640625q0.546875 -0.640625 0.546875 -1.875q0 -1.28125 -0.5625 -2.03125q-0.546875 -0.765625 -1.46875 -0.765625l-2.40625 0l0 5.3125zm13.652344 6.015625l6.046875 0l0 2.859375l-9.484375 0l0 -17.0625l3.4375 0l0 14.203125zm11.640625 2.859375l-3.4375 0l0 -17.0625l3.4375 0l0 17.0625zm14.8203125 0l-3.4375 0l-5.046875 -11.1875l0 11.1875l-3.4375 0l0 -17.0625l3.4375 0l5.0625 11.203125l0 -11.203125l3.421875 0l0 17.0625zm14.3671875 -1.9375q-0.984375 1.078125 -2.4375 1.625q-1.453125 0.546875 -3.171875 0.546875q-2.9375 0 -4.578125 -1.8125q-1.625 -1.828125 -1.671875 -5.3125l0 -3.078125q0 -3.515625 1.546875 -5.421875q1.546875 -1.90625 4.5 -1.90625q2.765625 0 4.171875 1.375q1.421875 1.359375 1.640625 4.296875l-3.34375 0q-0.140625 -1.625 -0.6875 -2.21875q-0.53125 -0.59375 -1.6875 -0.59375q-1.390625 0 -2.03125 1.015625q-0.625 1.015625 -0.640625 3.25l0 3.09375q0 2.328125 0.6875 3.390625q0.703125 1.0625 2.296875 1.0625q1.015625 0 1.65625 -0.40625l0.296875 -0.21875l0 -3.125l-2.40625 0l0 -2.609375l5.859375 0l0 7.046875z" fill-rule="nonzero"/><path fill="#ffffff" d="m510.67532 271.129l-5.359375 0l0 6.96875l-3.4375 0l0 -17.0625l9.4375 0l0 2.875l-6.0 0l0 4.359375l5.359375 0l0 2.859375zm13.710968 -10.09375l0 11.8125q-0.015625 2.65625 -1.46875 4.078125q-1.4375 1.40625 -4.125 1.40625q-2.75 0 -4.203125 -1.421875q-1.4375 -1.4375 -1.4375 -4.140625l0 -11.734375l3.46875 0l0 11.734375q0 1.453125 0.46875 2.078125q0.46875 0.625 1.6875 0.625q1.234375 0 1.6875 -0.609375q0.46875 -0.625 0.484375 -2.03125l0 -11.796875l3.4375 0zm14.5390625 17.0625l-3.4375 0l-5.046875 -11.1875l0 11.1875l-3.4375 0l0 -17.0625l3.4375 0l5.0625 11.203125l0 -11.203125l3.421875 0l0 17.0625zm14.3359375 -5.6875q-0.125 2.921875 -1.640625 4.421875q-1.515625 1.5 -4.265625 1.5q-2.890625 0 -4.4375 -1.90625q-1.53125 -1.90625 -1.53125 -5.4375l0 -2.859375q0 -3.515625 1.59375 -5.421875q1.59375 -1.90625 4.421875 -1.90625q2.796875 0 4.234375 1.5625q1.453125 1.546875 1.65625 4.46875l-3.46875 0q-0.046875 -1.796875 -0.5625 -2.484375q-0.5 -0.6875 -1.859375 -0.6875q-1.375 0 -1.953125 0.96875q-0.578125 0.96875 -0.609375 3.171875l0 3.234375q0 2.53125 0.5625 3.484375q0.578125 0.953125 1.953125 0.953125q1.359375 0 1.875 -0.65625q0.515625 -0.671875 0.59375 -2.40625l3.4375 0zm13.171875 -8.5l-4.21875 0l0 14.1875l-3.453125 0l0 -14.1875l-4.15625 0l0 -2.875l11.828125 0l0 2.875zm5.578125 14.1875l-3.4375 0l0 -17.0625l3.4375 0l0 17.0625zm14.9140625 -7.0q0 3.4375 -1.625 5.34375q-1.625 1.890625 -4.515625 1.890625q-2.859375 0 -4.5 -1.875q-1.640625 -1.890625 -1.671875 -5.28125l0 -2.90625q0 -3.515625 1.625 -5.484375q1.640625 -1.984375 4.53125 -1.984375q2.84375 0 4.484375 1.9375q1.640625 1.9375 1.671875 5.4375l0 2.921875zm-3.46875 -2.859375q0 -2.3125 -0.65625 -3.4375q-0.65625 -1.125 -2.03125 -1.125q-1.375 0 -2.03125 1.09375q-0.65625 1.078125 -0.671875 3.296875l0 3.03125q0 2.234375 0.65625 3.296875q0.671875 1.0625 2.0625 1.0625q1.359375 0 2.015625 -1.03125q0.65625 -1.046875 0.65625 -3.21875l0 -2.96875zm17.859375 9.859375l-3.4375 0l-5.046875 -11.1875l0 11.1875l-3.4375 0l0 -17.0625l3.4375 0l5.0625 11.203125l0 -11.203125l3.421875 0l0 17.0625z" fill-rule="nonzero"/><path fill="#8e7cc3" d="m444.47507 473.8819l0 0c0 -54.289154 44.01004 -98.299225 98.299225 -98.299225l0 0c26.070557 0 51.073364 10.356506 69.507996 28.791168c18.434692 18.434692 28.791199 43.43747 28.791199 69.50806l0 0c0 54.289124 -44.01007 98.299194 -98.299194 98.299194l0 0c-54.289185 0 -98.299225 -44.01007 -98.299225 -98.299194z" fill-rule="evenodd"/><path stroke="#674ea7" stroke-width="4.0" stroke-linejoin="round" stroke-linecap="butt" d="m444.47507 473.8819l0 0c0 -54.289154 44.01004 -98.299225 98.299225 -98.299225l0 0c26.070557 0 51.073364 10.356506 69.507996 28.791168c18.434692 18.434692 28.791199 43.43747 28.791199 69.50806l0 0c0 54.289124 -44.01007 98.299194 -98.299194 98.299194l0 0c-54.289185 0 -98.299225 -44.01007 -98.299225 -98.299194z" fill-rule="evenodd"/><path fill="#ffffff" d="m487.88168 467.92188l0 -17.0625l4.515625 0q2.984375 0 4.75 1.90625q1.78125 1.890625 1.8125 5.1875l0 2.765625q0 3.375 -1.78125 5.296875q-1.765625 1.90625 -4.875 1.90625l-4.421875 0zm3.4375 -14.1875l0 11.328125l1.03125 0q1.734375 0 2.4375 -0.90625q0.703125 -0.90625 0.734375 -3.140625l0 -2.96875q0 -2.390625 -0.671875 -3.328125q-0.671875 -0.9375 -2.265625 -0.984375l-1.265625 0zm18.933594 6.796875l-5.375 0l0 4.53125l6.359375 0l0 2.859375l-9.796875 0l0 -17.0625l9.765625 0l0 2.875l-6.328125 0l0 4.03125l5.375 0l0 2.765625zm14.011749 -6.796875l-4.21875 0l0 14.1875l-3.453125 0l0 -14.1875l-4.15625 0l0 -2.875l11.828125 0l0 2.875zm10.796875 6.796875l-5.375 0l0 4.53125l6.359375 0l0 2.859375l-9.796875 0l0 -17.0625l9.765625 0l0 2.875l-6.328125 0l0 4.03125l5.375 0l0 2.765625zm14.527344 1.703125q-0.125 2.921875 -1.640625 4.421875q-1.515625 1.5 -4.265625 1.5q-2.890625 0 -4.4375 -1.90625q-1.53125 -1.90625 -1.53125 -5.4375l0 -2.859375q0 -3.515625 1.59375 -5.421875q1.59375 -1.90625 4.421875 -1.90625q2.796875 0 4.234375 1.5625q1.453125 1.546875 1.65625 4.46875l-3.46875 0q-0.046875 -1.796875 -0.5625 -2.484375q-0.5 -0.6875 -1.859375 -0.6875q-1.375 0 -1.953125 0.96875q-0.578125 0.96875 -0.609375 3.171875l0 3.234375q0 2.53125 0.5625 3.484375q0.578125 0.953125 1.953125 0.953125q1.359375 0 1.875 -0.65625q0.515625 -0.671875 0.59375 -2.40625l3.4375 0zm13.171875 -8.5l-4.21875 0l0 14.1875l-3.453125 0l0 -14.1875l-4.15625 0l0 -2.875l11.828125 0l0 2.875zm5.578125 14.1875l-3.4375 0l0 -17.0625l3.4375 0l0 17.0625zm14.9140625 -7.0q0 3.4375 -1.625 5.34375q-1.625 1.890625 -4.515625 1.890625q-2.859375 0 -4.5 -1.875q-1.640625 -1.890625 -1.671875 -5.28125l0 -2.90625q0 -3.515625 1.625 -5.484375q1.640625 -1.984375 4.53125 -1.984375q2.84375 0 4.484375 1.9375q1.640625 1.9375 1.671875 5.4375l0 2.921875zm-3.46875 -2.859375q0 -2.3125 -0.65625 -3.4375q-0.65625 -1.125 -2.03125 -1.125q-1.375 0 -2.03125 1.09375q-0.65625 1.078125 -0.671875 3.296875l0 3.03125q0 2.234375 0.65625 3.296875q0.671875 1.0625 2.0625 1.0625q1.359375 0 2.015625 -1.03125q0.65625 -1.046875 0.65625 -3.21875l0 -2.96875zm17.859375 9.859375l-3.4375 0l-5.046875 -11.1875l0 11.1875l-3.4375 0l0 -17.0625l3.4375 0l5.0625 11.203125l0 -11.203125l3.421875 0l0 17.0625z" fill-rule="nonzero"/><path fill="#ffffff" d="m501.84067 489.95312l-5.359375 0l0 6.96875l-3.4375 0l0 -17.0625l9.4375 0l0 2.875l-6.0 0l0 4.359375l5.359375 0l0 2.859375zm13.710968 -10.09375l0 11.8125q-0.015625 2.65625 -1.46875 4.078125q-1.4375 1.40625 -4.1250305 1.40625q-2.75 0 -4.203125 -1.421875q-1.4375 -1.4375 -1.4375 -4.140625l0 -11.734375l3.46875 0l0 11.734375q0 1.453125 0.46875 2.078125q0.46875 0.625 1.6875 0.625q1.234375 0 1.6875 -0.609375q0.46878052 -0.625 0.48440552 -2.03125l0 -11.796875l3.4375 0zm14.5390625 17.0625l-3.4375 0l-5.046875 -11.1875l0 11.1875l-3.4375 0l0 -17.0625l3.4375 0l5.0625 11.203125l0 -11.203125l3.421875 0l0 17.0625zm14.3359375 -5.6875q-0.125 2.921875 -1.640625 4.421875q-1.515625 1.5 -4.265625 1.5q-2.890625 0 -4.4375 -1.90625q-1.53125 -1.90625 -1.53125 -5.4375l0 -2.859375q0 -3.515625 1.59375 -5.421875q1.59375 -1.90625 4.421875 -1.90625q2.796875 0 4.234375 1.5625q1.453125 1.546875 1.65625 4.46875l-3.46875 0q-0.046875 -1.796875 -0.5625 -2.484375q-0.5 -0.6875 -1.859375 -0.6875q-1.375 0 -1.953125 0.96875q-0.578125 0.96875 -0.609375 3.171875l0 3.234375q0 2.53125 0.5625 3.484375q0.578125 0.953125 1.953125 0.953125q1.359375 0 1.875 -0.65625q0.515625 -0.671875 0.59375 -2.40625l3.4375 0zm13.171875 -8.5l-4.21875 0l0 14.1875l-3.453125 0l0 -14.1875l-4.15625 0l0 -2.875l11.828125 0l0 2.875zm5.578125 14.1875l-3.4375 0l0 -17.0625l3.4375 0l0 17.0625zm14.9140625 -7.0q0 3.4375 -1.625 5.34375q-1.625 1.890625 -4.515625 1.890625q-2.859375 0 -4.5 -1.875q-1.640625 -1.890625 -1.671875 -5.28125l0 -2.90625q0 -3.515625 1.625 -5.484375q1.640625 -1.984375 4.53125 -1.984375q2.84375 0 4.484375 1.9375q1.640625 1.9375 1.671875 5.4375l0 2.921875zm-3.46875 -2.859375q0 -2.3125 -0.65625 -3.4375q-0.65625 -1.125 -2.03125 -1.125q-1.375 0 -2.03125 1.09375q-0.65625 1.078125 -0.671875 3.296875l0 3.03125q0 2.234375 0.65625 3.296875q0.671875 1.0625 2.0625 1.0625q1.359375 0 2.015625 -1.03125q0.65625 -1.046875 0.65625 -3.21875l0 -2.96875zm17.859375 9.859375l-3.4375 0l-5.046875 -11.1875l0 11.1875l-3.4375 0l0 -17.0625l3.4375 0l5.0625 11.203125l0 -11.203125l3.421875 0l0 17.0625z" fill-rule="nonzero"/><path fill="#000000" fill-opacity="0.0" d="m780.7113 312.56693l179.40155 0l0 94.86615l-179.40155 0z" fill-rule="evenodd"/><path fill="#000000" d="m831.2089 332.54q0 3.4375 -1.625 5.34375q-1.625 1.890625 -4.515625 1.890625q-2.859375 0 -4.5 -1.875q-1.640625 -1.890625 -1.671875 -5.28125l0 -2.90625q0 -3.515625 1.625 -5.484375q1.640625 -1.984375 4.53125 -1.984375q2.84375 0 4.484375 1.9375q1.640625 1.9375 1.671875 5.4375l0 2.921875zm-3.46875 -2.859375q0 -2.3125 -0.65625 -3.4375q-0.65625 -1.125 -2.03125 -1.125q-1.375 0 -2.03125 1.09375q-0.65625 1.078125 -0.671875 3.296875l0 3.03125q0 2.234375 0.65625 3.296875q0.671875 1.0625 2.0625 1.0625q1.359375 0 2.015625 -1.03125q0.65625 -1.046875 0.65625 -3.21875l0 -2.96875zm5.9375 9.859375l0 -17.0625l5.265625 0q2.671875 0 4.0625 1.1875q1.390625 1.1875 1.390625 3.484375q0 1.296875 -0.578125 2.234375q-0.5625 0.9375 -1.5625 1.375q1.140625 0.328125 1.765625 1.328125q0.625 0.984375 0.625 2.4375q0 2.484375 -1.375 3.75q-1.359375 1.265625 -3.953125 1.265625l-5.640625 0zm3.4375 -7.421875l0 4.5625l2.203125 0q0.9375 0 1.40625 -0.578125q0.484375 -0.578125 0.484375 -1.625q0 -2.296875 -1.65625 -2.359375l-2.4375 0zm0 -2.5l1.796875 0q2.03125 0 2.03125 -2.109375q0 -1.15625 -0.46875 -1.65625q-0.46875 -0.5 -1.53125 -0.5l-1.828125 0l0 4.265625zm17.230469 5.4375q0 -1.03125 -0.53125 -1.5625q-0.53125 -0.546875 -1.9375 -1.109375q-2.5625 -0.984375 -3.6875 -2.28125q-1.125 -1.3125 -1.125 -3.09375q0 -2.15625 1.515625 -3.453125q1.53125 -1.3125 3.890625 -1.3125q1.578125 0 2.796875 0.671875q1.234375 0.65625 1.890625 1.859375q0.671875 1.203125 0.671875 2.734375l-3.4375 0q0 -1.1875 -0.515625 -1.8125q-0.5 -0.625 -1.46875 -0.625q-0.890625 0 -1.40625 0.53125q-0.5 0.53125 -0.5 1.4375q0 0.703125 0.5625 1.265625q0.5625 0.5625 2.0 1.171875q2.484375 0.90625 3.609375 2.21875q1.140625 1.3125 1.140625 3.34375q0 2.21875 -1.421875 3.484375q-1.40625 1.25 -3.84375 1.25q-1.65625 0 -3.015625 -0.671875q-1.359375 -0.6875 -2.125 -1.953125q-0.765625 -1.265625 -0.765625 -2.984375l3.453125 0q0 1.46875 0.5625 2.140625q0.578125 0.671875 1.890625 0.671875q1.796875 0 1.796875 -1.921875zm14.5703125 -2.90625l-5.375 0l0 4.53125l6.359375 0l0 2.859375l-9.796875 0l0 -17.0625l9.765625 0l0 2.875l-6.328125 0l0 4.03125l5.375 0l0 2.765625zm8.136719 1.15625l-1.71875 0l0 6.234375l-3.4375 0l0 -17.0625l5.484375 0q2.59375 0 4.0 1.34375q1.421875 1.34375 1.421875 3.8125q0 3.390625 -2.46875 4.75l2.984375 6.984375l0 0.171875l-3.703125 0l-2.5625 -6.234375zm-1.71875 -2.875l1.953125 0q1.03125 0 1.546875 -0.6875q0.515625 -0.6875 0.515625 -1.828125q0 -2.5625 -2.0 -2.5625l-2.015625 0l0 5.078125zm15.3828125 4.421875l2.875 -12.375l3.84375 0l-4.921875 17.0625l-3.578125 0l-4.890625 -17.0625l3.8125 0l2.859375 12.375zm17.140625 -2.703125l-5.375 0l0 4.53125l6.359375 0l0 2.859375l-9.796875 0l0 -17.0625l9.765625 0l0 2.875l-6.328125 0l0 4.03125l5.375 0l0 2.765625zm2.9648438 7.390625l0 -17.0625l4.515625 0q2.984375 0 4.75 1.90625q1.78125 1.890625 1.8125 5.1875l0 2.765625q0 3.375 -1.78125 5.296875q-1.765625 1.90625 -4.875 1.90625l-4.421875 0zm3.4375 -14.1875l0 11.328125l1.03125 0q1.734375 0 2.4375 -0.90625q0.703125 -0.90625 0.734375 -3.140625l0 -2.96875q0 -2.390625 -0.671875 -3.328125q-0.671875 -0.9375 -2.265625 -0.984375l-1.265625 0z" fill-rule="nonzero"/><path fill="#000000" d="m844.0468 362.54l0 6.0l-3.4375 0l0 -17.0625l5.8125 0q2.53125 0 4.03125 1.578125q1.515625 1.5625 1.515625 4.078125q0 2.5 -1.5 3.953125q-1.484375 1.453125 -4.125 1.453125l-2.296875 0zm0 -2.875l2.375 0q0.984375 0 1.515625 -0.640625q0.546875 -0.640625 0.546875 -1.875q0 -1.28125 -0.5625 -2.03125q-0.546875 -0.765625 -1.46875 -0.765625l-2.40625 0l0 5.3125zm22.230469 1.875q0 3.4375 -1.625 5.34375q-1.625 1.890625 -4.515625 1.890625q-2.859375 0 -4.5 -1.875q-1.640625 -1.890625 -1.671875 -5.28125l0 -2.90625q0 -3.515625 1.625 -5.484375q1.640625 -1.984375 4.53125 -1.984375q2.84375 0 4.484375 1.9375q1.640625 1.9375 1.671875 5.4375l0 2.921875zm-3.46875 -2.859375q0 -2.3125 -0.65625 -3.4375q-0.65625 -1.125 -2.03125 -1.125q-1.375 0 -2.03125 1.09375q-0.65625 1.078125 -0.671875 3.296875l0 3.03125q0 2.234375 0.65625 3.296875q0.671875 1.0625 2.0625 1.0625q1.359375 0 2.015625 -1.03125q0.65625 -1.046875 0.65625 -3.21875l0 -2.96875zm9.53125 9.859375l-3.4375 0l0 -17.0625l3.4375 0l0 17.0625zm14.8203125 0l-3.4375 0l-5.046875 -11.1875l0 11.1875l-3.4375 0l0 -17.0625l3.4375 0l5.0625 11.203125l0 -11.203125l3.421875 0l0 17.0625zm13.8203125 -14.1875l-4.21875 0l0 14.1875l-3.453125 0l0 -14.1875l-4.15625 0l0 -2.875l11.828125 0l0 2.875z" fill-rule="nonzero"/><path fill="#000000" d="m828.32025 391.54l0 6.0l-3.4375 0l0 -17.0625l5.8125 0q2.53125 0 4.03125 1.578125q1.515625 1.5625 1.515625 4.078125q0 2.5 -1.5 3.953125q-1.484375 1.453125 -4.125 1.453125l-2.296875 0zm0 -2.875l2.375 0q0.984375 0 1.515625 -0.640625q0.546875 -0.640625 0.546875 -1.875q0 -1.28125 -0.5625 -2.03125q-0.546875 -0.765625 -1.46875 -0.765625l-2.40625 0l0 5.3125zm18.355469 5.375l-4.703125 0l-0.90625 3.5l-3.640625 0l5.328125 -17.0625l3.15625 0l5.359375 17.0625l-3.671875 0l-0.921875 -3.5zm-3.953125 -2.859375l3.1875 0l-1.59375 -6.09375l-1.59375 6.09375zm21.191406 -7.828125l-4.21875 0l0 14.1875l-3.453125 0l0 -14.1875l-4.15625 0l0 -2.875l11.828125 0l0 2.875zm13.03125 0l-4.21875 0l0 14.1875l-3.453125 0l0 -14.1875l-4.15625 0l0 -2.875l11.828125 0l0 2.875zm10.796875 6.796875l-5.375 0l0 4.53125l6.359375 0l0 2.859375l-9.796875 0l0 -17.0625l9.765625 0l0 2.875l-6.328125 0l0 4.03125l5.375 0l0 2.765625zm8.136719 1.15625l-1.71875 0l0 6.234375l-3.4375 0l0 -17.0625l5.484375 0q2.59375 0 4.0 1.34375q1.421875 1.34375 1.421875 3.8125q0 3.390625 -2.46875 4.75l2.984375 6.984375l0 0.171875l-3.703125 0l-2.5625 -6.234375zm-1.71875 -2.875l1.953125 0q1.03125 0 1.546875 -0.6875q0.515625 -0.6875 0.515625 -1.828125q0 -2.5625 -2.0 -2.5625l-2.015625 0l0 5.078125zm21.757812 9.109375l-3.4375 0l-5.046875 -11.1875l0 11.1875l-3.4375 0l0 -17.0625l3.4375 0l5.0625 11.203125l0 -11.203125l3.421875 0l0 17.0625z" fill-rule="nonzero"/><path fill="#000000" fill-opacity="0.0" d="m21.057743 317.03674l137.07088 0l0 94.86615l-137.07088 0z" fill-rule="evenodd"/><path fill="#cccccc" d="m45.077553 351.1192l-5.375 0l0 4.53125l6.359375 0l0 2.859375l-9.796875 0l0 -17.0625l9.765625 0l0 2.875l-6.328125 0l0 4.03125l5.375 0l0 2.765625zm7.4648438 -9.671875l3.21875 12.34375l3.21875 -12.34375l4.5 0l0 17.0625l-3.46875 0l0 -4.625l0.328125 -7.109375l-3.421875 11.734375l-2.34375 0l-3.40625 -11.734375l0.3125 7.109375l0 4.625l-3.4375 0l0 -17.0625l4.5 0zm17.136719 11.0625l0 6.0l-3.4375 0l0 -17.0625l5.8125 0q2.53125 0 4.03125 1.578125q1.515625 1.5625 1.515625 4.078125q0 2.5 -1.5 3.953125q-1.484375 1.453125 -4.125 1.453125l-2.296875 0zm0 -2.875l2.375 0q0.984375 0 1.515625 -0.640625q0.546875 -0.640625 0.546875 -1.875q0 -1.28125 -0.5625 -2.03125q-0.546875 -0.765625 -1.46875 -0.765625l-2.40625 0l0 5.3125zm13.808594 8.875l-3.4375 0l0 -17.0625l3.4375 0l0 17.0625zm8.070305 -6.234375l-1.71875 0l0 6.234375l-3.4375 0l0 -17.0625l5.484375 0q2.59375 0 4.0 1.34375q1.421875 1.34375 1.421875 3.8125q0 3.390625 -2.46875 4.75l2.984375 6.984375l0 0.171875l-3.703125 0l-2.5625 -6.234375zm-1.71875 -2.875l1.953125 0q1.03125 0 1.546875 -0.6875q0.515625 -0.6875 0.515625 -1.828125q0 -2.5625 -2.0 -2.5625l-2.015625 0l0 5.078125zm13.4296875 9.109375l-3.4375 0l0 -17.0625l3.4375 0l0 17.0625zm14.4609375 -5.6875q-0.125 2.921875 -1.640625 4.421875q-1.515625 1.5 -4.265625 1.5q-2.890625 0 -4.4375 -1.90625q-1.53125 -1.90625 -1.53125 -5.4375l0 -2.859375q0 -3.515625 1.59375 -5.421875q1.59375 -1.90625 4.421875 -1.90625q2.796875 0 4.234375 1.5625q1.453125 1.546875 1.65625 4.46875l-3.46875 0q-0.046875 -1.796875 -0.5625 -2.484375q-0.5 -0.6875 -1.859375 -0.6875q-1.375 0 -1.953125 0.96875q-0.578125 0.96875 -0.609375 3.171875l0 3.234375q0 2.53125 0.5625 3.484375q0.578125 0.953125 1.953125 0.953125q1.359375 0 1.875 -0.65625q0.515625 -0.671875 0.59375 -2.40625l3.4375 0zm10.265625 2.1875l-4.703125 0l-0.90625 3.5l-3.640625 0l5.328125 -17.0625l3.15625 0l5.359375 17.0625l-3.671875 0l-0.921875 -3.5zm-3.953125 -2.859375l3.1875 0l-1.59375 -6.09375l-1.59375 6.09375zm13.582031 3.5l6.046875 0l0 2.859375l-9.484375 0l0 -17.0625l3.4375 0l0 14.203125z" fill-rule="nonzero"/><path fill="#cccccc" d="m41.46427 387.50983l-3.4375 0l0 -17.0625l3.4375 0l0 17.0625zm14.8203125 0l-3.4375 0l-5.046875 -11.1875l0 11.1875l-3.4375 0l0 -17.0625l3.4375 0l5.0625 11.203125l0 -11.203125l3.421875 0l0 17.0625zm13.8203125 -14.1875l-4.21875 0l0 14.1875l-3.453125 0l0 -14.1875l-4.15625 0l0 -2.875l11.828125 0l0 2.875zm10.796875 6.796875l-5.375 0l0 4.53125l6.359375 0l0 2.859375l-9.796875 0l0 -17.0625l9.765625 0l0 2.875l-6.328125 0l0 4.03125l5.375 0l0 2.765625zm14.886711 7.390625l-3.4375 0l-5.046875 -11.1875l0 11.1875l-3.4374924 0l0 -17.0625l3.4374924 0l5.0625 11.203125l0 -11.203125l3.421875 0l0 17.0625zm9.9765625 -4.484375q0 -1.03125 -0.53125 -1.5625q-0.53125 -0.546875 -1.9375 -1.109375q-2.5625 -0.984375 -3.6875 -2.28125q-1.125 -1.3125 -1.125 -3.09375q0 -2.15625 1.515625 -3.453125q1.53125 -1.3125 3.890625 -1.3125q1.578125 0 2.796875 0.671875q1.234375 0.65625 1.890625 1.859375q0.671875 1.203125 0.671875 2.734375l-3.4375 0q0 -1.1875 -0.515625 -1.8125q-0.5 -0.625 -1.46875 -0.625q-0.890625 0 -1.40625 0.53125q-0.5 0.53125 -0.5 1.4375q0 0.703125 0.5625 1.265625q0.5625 0.5625 2.0 1.171875q2.484375 0.90625 3.609375 2.21875q1.140625 1.3125 1.140625 3.34375q0 2.21875 -1.421875 3.484375q-1.40625 1.25 -3.84375 1.25q-1.65625 0 -3.015625 -0.671875q-1.359375 -0.6875 -2.125 -1.953125q-0.765625 -1.265625 -0.765625 -2.984375l3.453125 0q0 1.46875 0.5625 2.140625q0.578125 0.671875 1.890625 0.671875q1.796875 0 1.796875 -1.921875zm9.3515625 4.484375l-3.4375 0l0 -17.0625l3.4375 0l0 17.0625zm13.9453125 -14.1875l-4.21875 0l0 14.1875l-3.453125 0l0 -14.1875l-4.15625 0l0 -2.875l11.828125 0l0 2.875zm7.125 4.78125l2.5625 -7.65625l3.75 0l-4.5625 10.875l0 6.1875l-3.5 0l0 -6.1875l-4.578125 -10.875l3.75 0l2.578125 7.65625z" fill-rule="nonzero"/><path fill="#000000" fill-opacity="0.0" d="m96.64567 207.62466l108.72442 0l0 94.86615l-108.72442 0z" fill-rule="evenodd"/><path fill="#cccccc" d="m126.527405 242.12898l-5.359375 0l0 6.96875l-3.4375 0l0 -17.0625l9.4375 0l0 2.875l-6.0 0l0 4.359375l5.359375 0l0 2.859375zm6.2109375 6.96875l-3.4375 0l0 -17.0625l3.4375 0l0 17.0625zm13.9453125 -14.1875l-4.21875 0l0 14.1875l-3.453125 0l0 -14.1875l-4.15625 0l0 -2.875l11.828125 0l0 2.875zm13.03125 0l-4.21875 0l0 14.1875l-3.453125 0l0 -14.1875l-4.15625 0l0 -2.875l11.828125 0l0 2.875zm10.796875 6.796875l-5.375 0l0 4.53125l6.359375 0l0 2.859375l-9.796875 0l0 -17.0625l9.765625 0l0 2.875l-6.328125 0l0 4.03125l5.375 0l0 2.765625zm2.9648438 7.390625l0 -17.0625l4.515625 0q2.984375 0 4.75 1.90625q1.78125 1.890625 1.8125 5.1875l0 2.765625q0 3.375 -1.78125 5.296875q-1.765625 1.90625 -4.875 1.90625l-4.421875 0zm3.4375 -14.1875l0 11.328125l1.03125 0q1.734375 0 2.4375 -0.90625q0.703125 -0.90625 0.734375 -3.140625l0 -2.96875q0 -2.390625 -0.671875 -3.328125q-0.671875 -0.9375 -2.265625 -0.984375l-1.265625 0z" fill-rule="nonzero"/><path fill="#cccccc" d="m122.13092 261.03525l3.21875 12.34375l3.21875 -12.34375l4.5 0l0 17.0625l-3.46875 0l0 -4.625l0.328125 -7.109375l-3.421875 11.734375l-2.34375 0l-3.40625 -11.734375l0.3125 7.109375l0 4.625l-3.4375 0l0 -17.0625l4.5 0zm25.714844 10.0625q0 3.4375 -1.625 5.34375q-1.625 1.890625 -4.515625 1.890625q-2.859375 0 -4.5 -1.875q-1.640625 -1.890625 -1.671875 -5.28125l0 -2.90625q0 -3.515625 1.625 -5.484375q1.640625 -1.984375 4.53125 -1.984375q2.84375 0 4.484375 1.9375q1.640625 1.9375 1.671875 5.4375l0 2.921875zm-3.46875 -2.859375q0 -2.3125 -0.65625 -3.4375q-0.65625 -1.125 -2.03125 -1.125q-1.375 0 -2.03125 1.09375q-0.65625 1.078125 -0.671875 3.296875l0 3.03125q0 2.234375 0.65625 3.296875q0.671875 1.0625 2.0625 1.0625q1.359375 0 2.015625 -1.03125q0.65625 -1.046875 0.65625 -3.21875l0 -2.96875zm5.9375 9.859375l0 -17.0625l4.515625 0q2.984375 0 4.75 1.90625q1.78125 1.890625 1.8125 5.1875l0 2.765625q0 3.375 -1.78125 5.296875q-1.765625 1.90625 -4.875 1.90625l-4.421875 0zm3.4375 -14.1875l0 11.328125l1.03125 0q1.734375 0 2.4375 -0.90625q0.703125 -0.90625 0.734375 -3.140625l0 -2.96875q0 -2.390625 -0.671875 -3.328125q-0.671875 -0.9375 -2.265625 -0.984375l-1.265625 0zm18.933594 6.796875l-5.375 0l0 4.53125l6.359375 0l0 2.859375l-9.796875 0l0 -17.0625l9.765625 0l0 2.875l-6.328125 0l0 4.03125l5.375 0l0 2.765625zm6.4023438 4.53125l6.046875 0l0 2.859375l-9.484375 0l0 -17.0625l3.4375 0l0 14.203125z" fill-rule="nonzero"/><path fill="#000000" fill-opacity="0.0" d="m82.47244 426.44882l137.07086 0l0 94.86612l-137.07086 0z" fill-rule="evenodd"/><path fill="#cccccc" d="m113.27545 461.6875l-1.71875 0l0 6.234375l-3.4375 0l0 -17.0625l5.484375 0q2.59375 0 4.0 1.34375q1.421875 1.34375 1.421875 3.8125q0 3.390625 -2.46875 4.75l2.984375 6.984375l0 0.171875l-3.703125 0l-2.5625 -6.234375zm-1.71875 -2.875l1.953125 0q1.03125 0 1.546875 -0.6875q0.515625 -0.6875 0.515625 -1.828125q0 -2.5625 -2.0 -2.5625l-2.015625 0l0 5.078125zm17.976562 5.609375l-4.703125 0l-0.90625 3.5l-3.640625 0l5.328125 -17.0625l3.15625 0l5.359375 17.0625l-3.671875 0l-0.921875 -3.5zm-3.953125 -2.859375l3.1875 0l-1.59375 -6.09375l-1.59375 6.09375zm22.066406 6.359375l-3.4375 0l-5.046875 -11.1875l0 11.1875l-3.4375 0l0 -17.0625l3.4375 0l5.0625 11.203125l0 -11.203125l3.421875 0l0 17.0625zm2.7734375 0l0 -17.0625l4.515625 0q2.984375 0 4.75 1.90625q1.78125 1.890625 1.8125 5.1875l0 2.765625q0 3.375 -1.78125 5.296875q-1.765625 1.90625 -4.875 1.90625l-4.421875 0zm3.4375 -14.1875l0 11.328125l1.03125 0q1.734375 0 2.4375 -0.90625q0.703125 -0.90625 0.734375 -3.140625l0 -2.96875q0 -2.390625 -0.671875 -3.328125q-0.671875 -0.9375 -2.265625 -0.984375l-1.265625 0zm22.136719 7.1875q0 3.4375 -1.625 5.34375q-1.625 1.890625 -4.515625 1.890625q-2.859375 0 -4.5 -1.875q-1.640625 -1.890625 -1.671875 -5.28125l0 -2.90625q0 -3.515625 1.625 -5.484375q1.640625 -1.984375 4.53125 -1.984375q2.84375 0 4.484375 1.9375q1.640625 1.9375 1.671875 5.4375l0 2.921875zm-3.46875 -2.859375q0 -2.3125 -0.65625 -3.4375q-0.65625 -1.125 -2.03125 -1.125q-1.375 0 -2.03125 1.09375q-0.65625 1.078125 -0.671875 3.296875l0 3.03125q0 2.234375 0.65625 3.296875q0.671875 1.0625 2.0625 1.0625q1.359375 0 2.015625 -1.03125q0.65625 -1.046875 0.65625 -3.21875l0 -2.96875zm10.4375 -7.203125l3.21875 12.34375l3.21875 -12.34375l4.5 0l0 17.0625l-3.46875 0l0 -4.625l0.328125 -7.109375l-3.421875 11.734375l-2.34375 0l-3.40625 -11.734375l0.3125 7.109375l0 4.625l-3.4375 0l0 -17.0625l4.5 0z" fill-rule="nonzero"/><path fill="#cccccc" d="m109.41412 490.92188l0 6.0l-3.4375 0l0 -17.0625l5.8125 0q2.53125 0 4.03125 1.578125q1.515625 1.5625 1.515625 4.078125q0 2.5 -1.5 3.953125q-1.484375 1.453125 -4.125 1.453125l-2.296875 0zm0 -2.875l2.375 0q0.984375 0 1.515625 -0.640625q0.546875 -0.640625 0.546875 -1.875q0 -1.28125 -0.5625 -2.03125q-0.546875 -0.765625 -1.46875 -0.765625l-2.40625 0l0 5.3125zm15.386719 2.640625l-1.71875 0l0 6.234375l-3.4375 0l0 -17.0625l5.484375 0q2.59375 0 4.0 1.34375q1.421875 1.34375 1.421875 3.8125q0 3.390625 -2.46875 4.75l2.984375 6.984375l0 0.171875l-3.703125 0l-2.5625 -6.234375zm-1.71875 -2.875l1.953125 0q1.03125 0 1.546875 -0.6875q0.515625 -0.6875 0.515625 -1.828125q0 -2.5625 -2.0 -2.5625l-2.015625 0l0 5.078125zm21.851562 2.109375q0 3.4375 -1.625 5.34375q-1.625 1.890625 -4.515625 1.890625q-2.859375 0 -4.5 -1.875q-1.640625 -1.890625 -1.671875 -5.28125l0 -2.90625q0 -3.515625 1.625 -5.484375q1.640625 -1.984375 4.53125 -1.984375q2.84375 0 4.484375 1.9375q1.640625 1.9375 1.671875 5.4375l0 2.921875zm-3.46875 -2.859375q0 -2.3125 -0.65625 -3.4375q-0.65625 -1.125 -2.03125 -1.125q-1.375 0 -2.03125 1.09375q-0.65625 1.078125 -0.671875 3.296875l0 3.03125q0 2.234375 0.65625 3.296875q0.671875 1.0625 2.0625 1.0625q1.359375 0 2.015625 -1.03125q0.65625 -1.046875 0.65625 -3.21875l0 -2.96875zm17.5 4.171875q-0.125 2.921875 -1.640625 4.421875q-1.515625 1.5 -4.265625 1.5q-2.890625 0 -4.4375 -1.90625q-1.53125 -1.90625 -1.53125 -5.4375l0 -2.859375q0 -3.515625 1.59375 -5.421875q1.59375 -1.90625 4.421875 -1.90625q2.796875 0 4.234375 1.5625q1.453125 1.546875 1.65625 4.46875l-3.46875 0q-0.046875 -1.796875 -0.5625 -2.484375q-0.5 -0.6875 -1.859375 -0.6875q-1.375 0 -1.953125 0.96875q-0.578125 0.96875 -0.609375 3.171875l0 3.234375q0 2.53125 0.5625 3.484375q0.578125 0.953125 1.953125 0.953125q1.359375 0 1.875 -0.65625q0.515625 -0.671875 0.59375 -2.40625l3.4375 0zm10.9375 -1.703125l-5.375 0l0 4.53125l6.359375 0l0 2.859375l-9.796875 0l0 -17.0625l9.765625 0l0 2.875l-6.328125 0l0 4.03125l5.375 0l0 2.765625zm10.167969 2.90625q0 -1.03125 -0.53125 -1.5625q-0.53125 -0.546875 -1.9375 -1.109375q-2.5625 -0.984375 -3.6875 -2.28125q-1.125 -1.3125 -1.125 -3.09375q0 -2.15625 1.515625 -3.453125q1.53125 -1.3125 3.890625 -1.3125q1.578125 0 2.796875 0.671875q1.234375 0.65625 1.890625 1.859375q0.671875 1.203125 0.671875 2.734375l-3.4375 0q0 -1.1875 -0.515625 -1.8125q-0.5 -0.625 -1.46875 -0.625q-0.890625 0 -1.40625 0.53125q-0.5 0.53125 -0.5 1.4375q0 0.703125 0.5625 1.265625q0.5625 0.5625 2.0 1.171875q2.484375 0.90625 3.609375 2.21875q1.140625 1.3125 1.140625 3.34375q0 2.21875 -1.421875 3.484375q-1.40625 1.25 -3.84375 1.25q-1.65625 0 -3.015625 -0.671875q-1.359375 -0.6875 -2.125 -1.953125q-0.765625 -1.265625 -0.765625 -2.984375l3.453125 0q0 1.46875 0.5625 2.140625q0.578125 0.671875 1.890625 0.671875q1.796875 0 1.796875 -1.921875zm12.9609375 0q0 -1.03125 -0.53125 -1.5625q-0.53125 -0.546875 -1.9375 -1.109375q-2.5625 -0.984375 -3.6875 -2.28125q-1.125 -1.3125 -1.125 -3.09375q0 -2.15625 1.515625 -3.453125q1.53125 -1.3125 3.890625 -1.3125q1.578125 0 2.796875 0.671875q1.234375 0.65625 1.890625 1.859375q0.671875 1.203125 0.671875 2.734375l-3.4375 0q0 -1.1875 -0.515625 -1.8125q-0.5 -0.625 -1.46875 -0.625q-0.890625 0 -1.40625 0.53125q-0.5 0.53125 -0.5 1.4375q0 0.703125 0.5625 1.265625q0.5625 0.5625 2.0 1.171875q2.484375 0.90625 3.609375 2.21875q1.140625 1.3125 1.140625 3.34375q0 2.21875 -1.421875 3.484375q-1.40625 1.25 -3.84375 1.25q-1.65625 0 -3.015625 -0.671875q-1.359375 -0.6875 -2.125 -1.953125q-0.765625 -1.265625 -0.765625 -2.984375l3.453125 0q0 1.46875 0.5625 2.140625q0.578125 0.671875 1.890625 0.671875q1.796875 0 1.796875 -1.921875z" fill-rule="nonzero"/><path fill="#000000" fill-opacity="0.0" d="m539.8898 38.692913l179.40155 0l0 69.16536l-179.40155 0z" fill-rule="evenodd"/><path fill="#cccccc" d="m596.9656 62.831215q0 -1.03125 -0.53125 -1.5625q-0.53125 -0.546875 -1.9375 -1.109375q-2.5625 -0.984375 -3.6875 -2.28125q-1.125 -1.3125 -1.125 -3.09375q0 -2.15625 1.515625 -3.453125q1.53125 -1.3125 3.890625 -1.3125q1.578125 0 2.796875 0.671875q1.234375 0.65625 1.890625 1.859375q0.671875 1.203125 0.671875 2.734375l-3.4375 0q0 -1.1875 -0.515625 -1.8125q-0.5 -0.625 -1.46875 -0.625q-0.890625 0 -1.40625 0.53125q-0.5 0.53125 -0.5 1.4375q0 0.703125 0.5625 1.265625q0.5625 0.5625 2.0 1.171875q2.484375 0.90625 3.609375 2.21875q1.140625 1.3125 1.140625 3.34375q0 2.21875 -1.421875 3.484375q-1.40625 1.25 -3.84375 1.25q-1.65625 0 -3.015625 -0.671875q-1.359375 -0.6875 -2.125 -1.953125q-0.765625 -1.265625 -0.765625 -2.984375l3.453125 0q0 1.46875 0.5625 2.140625q0.578125 0.671875 1.890625 0.671875q1.796875 0 1.796875 -1.921875zm13.8984375 0.984375l-4.703125 0l-0.90625 3.5l-3.640625 0l5.328125 -17.0625l3.15625 0l5.359375 17.0625l-3.671875 0l-0.921875 -3.5zm-3.953125 -2.859375l3.1875 0l-1.59375 -6.09375l-1.59375 6.09375zm14.644531 -10.703125l3.21875 12.34375l3.21875 -12.34375l4.5 0l0 17.0625l-3.46875 0l0 -4.625l0.328125 -7.109375l-3.421875 11.734375l-2.34375 0l-3.40625 -11.734375l0.3125 7.109375l0 4.625l-3.4375 0l0 -17.0625l4.5 0zm17.136719 11.0625l0 6.0l-3.4375 0l0 -17.0625l5.8125 0q2.53125 0 4.03125 1.578125q1.515625 1.5625 1.515625 4.078125q0 2.5 -1.5 3.953125q-1.484375 1.453125 -4.125 1.453125l-2.296875 0zm0 -2.875l2.375 0q0.984375 0 1.515625 -0.640625q0.546875 -0.640625 0.546875 -1.875q0 -1.28125 -0.5625 -2.03125q-0.546875 -0.765625 -1.46875 -0.765625l-2.40625 0l0 5.3125zm13.652344 6.015625l6.046875 0l0 2.859375l-9.484375 0l0 -17.0625l3.4375 0l0 14.203125zm16.859314 -4.53125l-5.374939 0l0 4.53125l6.359314 0l0 2.859375l-9.796814 0l0 -17.0625l9.765564 0l0 2.875l-6.328064 0l0 4.03125l5.374939 0l0 2.765625z" fill-rule="nonzero"/><path fill="#cccccc" d="m605.2566 89.34685l-5.359375 0l0 6.96875l-3.4375 0l0 -17.0625l9.4375 0l0 2.875l-6.0 0l0 4.359375l5.359375 0l0 2.859375zm7.7890625 0.734375l-1.71875 0l0 6.234375l-3.4375 0l0 -17.0625l5.484375 0q2.59375 0 4.0 1.34375q1.421875 1.34375 1.421875 3.8125q0 3.390625 -2.46875 4.75l2.984375 6.984375l0 0.171875l-3.703125 0l-2.5625 -6.234375zm-1.71875 -2.875l1.953125 0q1.03125 0 1.546875 -0.6875q0.515625 -0.6875 0.515625 -1.828125q0 -2.5625 -2.0 -2.5625l-2.015625 0l0 5.078125zm17.976562 5.609375l-4.703125 0l-0.90625 3.5l-3.640625 0l5.328125 -17.0625l3.15625 0l5.359375 17.0625l-3.671875 0l-0.921875 -3.5zm-3.953125 -2.859375l3.1875 0l-1.59375 -6.09375l-1.59375 6.09375zm14.644531 -10.703125l3.21875 12.34375l3.21875 -12.34375l4.5 0l0 17.0625l-3.46875 0l0 -4.625l0.328125 -7.109375l-3.421875 11.734375l-2.34375 0l-3.40625 -11.734375l0.3125 7.109375l0 4.625l-3.4375 0l0 -17.0625l4.5 0zm22.511719 9.671875l-5.375 0l0 4.53125l6.359375 0l0 2.859375l-9.796875 0l0 -17.0625l9.765625 0l0 2.875l-6.328125 0l0 4.03125l5.375 0l0 2.765625z" fill-rule="nonzero"/><path fill="#000000" fill-opacity="0.0" d="m539.8898 607.2572l179.40155 0l0 69.165344l-179.40155 0z" fill-rule="evenodd"/><path fill="#cccccc" d="m574.6355 630.1924q-0.125 2.921875 -1.640625 4.421875q-1.515625 1.5 -4.265625 1.5q-2.890625 0 -4.4375 -1.90625q-1.53125 -1.90625 -1.53125 -5.4375l0 -2.859375q0 -3.515625 1.59375 -5.421875q1.59375 -1.90625 4.421875 -1.90625q2.796875 0 4.234375 1.5625q1.453125 1.546875 1.65625 4.46875l-3.46875 0q-0.046875 -1.796875 -0.5625 -2.484375q-0.5 -0.6875 -1.859375 -0.6875q-1.375 0 -1.953125 0.96875q-0.578125 0.96875 -0.609375 3.171875l0 3.234375q0 2.53125 0.5625 3.484375q0.578125 0.953125 1.953125 0.953125q1.359375 0 1.875 -0.65625q0.515625 -0.671875 0.59375 -2.40625l3.4375 0zm10.265625 2.1875l-4.703125 0l-0.90625 3.5l-3.640625 0l5.328125 -17.0625l3.15625 0l5.359375 17.0625l-3.671875 0l-0.921875 -3.5zm-3.953125 -2.859375l3.1875 0l-1.59375 -6.09375l-1.59375 6.09375zm13.582031 3.5l6.046875 0l0 2.859375l-9.484375 0l0 -17.0625l3.4375 0l0 14.203125zm11.640625 2.859375l-3.4375 0l0 -17.0625l3.4375 0l0 17.0625zm2.8984375 0l0 -17.0625l5.265625 0q2.671875 0 4.0625 1.1875q1.390625 1.1875 1.390625 3.484375q0 1.296875 -0.578125 2.234375q-0.5625 0.9375 -1.5625 1.375q1.140625 0.328125 1.765625 1.328125q0.625 0.984375 0.625 2.4375q0 2.484375 -1.375 3.75q-1.359375 1.265625 -3.953125 1.265625l-5.640625 0zm3.4375 -7.421875l0 4.5625l2.203125 0q0.9375 0 1.40625 -0.578125q0.484375 -0.578125 0.484375 -1.625q0 -2.296875 -1.65625 -2.359375l-2.4375 0zm0 -2.5l1.796875 0q2.03125 0 2.03125 -2.109375q0 -1.15625 -0.46875 -1.65625q-0.46875 -0.5 -1.53125 -0.5l-1.828125 0l0 4.265625zm15.199219 3.6875l-1.71875 0l0 6.234375l-3.4375 0l0 -17.0625l5.484375 0q2.59375 0 4.0 1.34375q1.421875 1.34375 1.421875 3.8125q0 3.390625 -2.46875 4.75l2.984375 6.984375l0 0.171875l-3.703125 0l-2.5625 -6.234375zm-1.71875 -2.875l1.953125 0q1.03125 0 1.546875 -0.6875q0.515625 -0.6875 0.515625 -1.828125q0 -2.5625 -2.0 -2.5625l-2.015625 0l0 5.078125zm17.976562 5.609375l-4.703125 0l-0.90625 3.5l-3.640625 0l5.328125 -17.0625l3.15625 0l5.359375 17.0625l-3.671875 0l-0.921875 -3.5zm-3.953125 -2.859375l3.1875 0l-1.59375 -6.09375l-1.59375 6.09375zm21.191406 -7.828125l-4.21875 0l0 14.1875l-3.453125 0l0 -14.1875l-4.15625 0l0 -2.875l11.828125 0l0 2.875zm5.578125 14.1875l-3.4375 0l0 -17.0625l3.4375 0l0 17.0625zm14.914001 -7.0q0 3.4375 -1.625 5.34375q-1.625 1.890625 -4.515625 1.890625q-2.859375 0 -4.5 -1.875q-1.640625 -1.890625 -1.671875 -5.28125l0 -2.90625q0 -3.515625 1.625 -5.484375q1.640625 -1.984375 4.53125 -1.984375q2.84375 0 4.484375 1.9375q1.640625 1.9375 1.671875 5.4375l0 2.921875zm-3.46875 -2.859375q0 -2.3125 -0.65625 -3.4375q-0.65625 -1.125 -2.03125 -1.125q-1.375 0 -2.03125 1.09375q-0.65625 1.078125 -0.671875 3.296875l0 3.03125q0 2.234375 0.65625 3.296875q0.671875 1.0625 2.0625 1.0625q1.359375 0 2.015625 -1.03125q0.65625 -1.046875 0.65625 -3.21875l0 -2.96875zm17.859375 9.859375l-3.4375 0l-5.046875 -11.1875l0 11.1875l-3.4375 0l0 -17.0625l3.4375 0l5.0625 11.203125l0 -11.203125l3.421875 0l0 17.0625z" fill-rule="nonzero"/><path fill="#cccccc" d="m603.3386 664.8799l0 -17.0625l4.515625 0q2.984375 0 4.75 1.90625q1.78125 1.890625 1.8125 5.1875l0 2.765625q0 3.375 -1.78125 5.296875q-1.765625 1.90625 -4.875 1.90625l-4.421875 0zm3.4375 -14.1875l0 11.328125l1.03125 0q1.734375 0 2.4375 -0.90625q0.703125 -0.90625 0.734375 -3.140625l0 -2.96875q0 -2.390625 -0.671875 -3.328125q-0.671875 -0.9375 -2.265625 -0.984375l-1.265625 0zm18.261719 10.6875l-4.703125 0l-0.90625 3.5l-3.640625 0l5.328125 -17.0625l3.15625 0l5.359375 17.0625l-3.671875 0l-0.921875 -3.5zm-3.953125 -2.859375l3.1875 0l-1.59375 -6.09375l-1.59375 6.09375zm21.191406 -7.828125l-4.21875 0l0 14.1875l-3.453125 0l0 -14.1875l-4.15625 0l0 -2.875l11.828125 0l0 2.875zm10.125 10.6875l-4.703125 0l-0.90625 3.5l-3.640625 0l5.328125 -17.0625l3.15625 0l5.359375 17.0625l-3.671875 0l-0.921875 -3.5zm-3.953125 -2.859375l3.1875 0l-1.59375 -6.09375l-1.59375 6.09375z" fill-rule="nonzero"/><path fill="#000000" fill-opacity="0.0" d="m629.5906 107.85827c0 12.225166 -19.496094 18.336159 -38.992126 24.45034c-19.496094 6.1141663 -38.992126 12.231522 -38.992126 24.463043" fill-rule="evenodd"/><path stroke="#bf9000" stroke-width="4.0" stroke-linejoin="round" stroke-linecap="butt" d="m629.5906 107.85827c0 12.225166 -19.496094 18.336159 -38.992126 24.45034c-19.496094 6.1141663 -38.992126 12.231522 -38.992126 24.463043" fill-rule="evenodd"/><path fill="#000000" fill-opacity="0.0" d="m205.37009 255.05774c40.06299 0 80.12598 17.716553 80.12598 35.433075" fill-rule="evenodd"/><path stroke="#38761d" stroke-width="4.0" stroke-linejoin="round" stroke-linecap="butt" d="m205.37009 255.05774c40.06299 0 80.12598 17.716553 80.12598 35.433075" fill-rule="evenodd"/><path fill="#000000" fill-opacity="0.0" d="m158.12862 364.46982c24.64566 0 36.968506 -1.118103 49.291336 -2.2362366c12.32283 -1.118103 24.64566 -2.236206 49.29132 -2.236206" fill-rule="evenodd"/><path stroke="#38761d" stroke-width="4.0" stroke-linejoin="round" stroke-linecap="butt" d="m158.12862 364.46982c24.64566 0 36.968506 -1.118103 49.291336 -2.2362366c12.32283 -1.118103 24.64566 -2.236206 49.29132 -2.236206" fill-rule="evenodd"/><path fill="#000000" fill-opacity="0.0" d="m219.5433 473.8819c32.97638 0 65.95276 -22.188995 65.95276 -44.37796" fill-rule="evenodd"/><path stroke="#38761d" stroke-width="4.0" stroke-linejoin="round" stroke-linecap="butt" d="m219.5433 473.8819c32.97638 0 65.95276 -22.188995 65.95276 -44.37796" fill-rule="evenodd"/><path fill="#000000" fill-opacity="0.0" d="m629.5906 607.2572c0 -8.768982 -21.700806 -13.152222 -43.40161 -17.538025c-21.700806 -4.385803 -43.40155 -8.774292 -43.40155 -17.548584" fill-rule="evenodd"/><path stroke="#674ea7" stroke-width="4.0" stroke-linejoin="round" stroke-linecap="butt" d="m629.5906 607.2572c0 -8.768982 -21.700806 -13.152222 -43.40161 -17.538025c-21.700806 -4.385803 -43.40155 -8.774292 -43.40155 -17.548584" fill-rule="evenodd"/></g></svg>