<svg version="1.1" viewBox="0.0 0.0 960.0 720.0" fill="none" stroke="none" stroke-linecap="square" stroke-miterlimit="10" xmlns:xlink="http://www.w3.org/1999/xlink" xmlns="http://www.w3.org/2000/svg"><clipPath id="g100f93ba9f_0_285.0"><path d="m0 0l960.0 0l0 720.0l-960.0 0l0 -720.0z" clip-rule="nonzero"/></clipPath><g clip-path="url(#g100f93ba9f_0_285.0)"><path fill="#ffffff" d="m0 0l960.0 0l0 720.0l-960.0 0z" fill-rule="evenodd"/><path fill="#f3f3f3" d="m764.77216 569.7666l176.22748 0l0 -41.099792l82.199585 82.199585l-82.199585 82.199585l0 -41.099792l-176.22748 0l41.099792 -41.099792z" fill-rule="evenodd"/><path stroke="#cccccc" stroke-width="4.0" stroke-linejoin="round" stroke-linecap="butt" d="m764.77216 569.7666l176.22748 0l0 -41.099792l82.199585 82.199585l-82.199585 82.199585l0 -41.099792l-176.22748 0l41.099792 -41.099792z" fill-rule="evenodd"/><path fill="#f3f3f3" d="m-260.3642 610.8664l0 0c0 -314.12387 254.64772 -568.77155 568.7716 -568.77155l0 0c150.84763 0 295.51688 59.92398 402.18228 166.58932c106.665344 106.66536 166.5893 251.33464 166.5893 402.18225l0 0c0 314.1239 -254.6477 568.77155 -568.7716 568.77155l0 0c-314.12384 0 -568.7716 -254.64764 -568.7716 -568.77155z" fill-rule="evenodd"/><path stroke="#cccccc" stroke-width="4.0" stroke-linejoin="round" stroke-linecap="butt" d="m-260.3642 610.8664l0 0c0 -314.12387 254.64772 -568.77155 568.7716 -568.77155l0 0c150.84763 0 295.51688 59.92398 402.18228 166.58932c106.665344 106.66536 166.5893 251.33464 166.5893 402.18225l0 0c0 314.1239 -254.6477 568.77155 -568.7716 568.77155l0 0c-314.12384 0 -568.7716 -254.64764 -568.7716 -568.77155z" fill-rule="evenodd"/><path fill="#cccccc" d="m82.84069 644.51953q0 -9.921875 -5.390625 -15.203125q-5.375 -5.296875 -19.40625 -10.3125q-14.03125 -5.015625 -21.46875 -10.515625q-7.421873 -5.515625 -11.124998 -12.578125q-3.6875 -7.078125 -3.6875 -16.1875q0 -15.765625 10.531248 -25.96875q10.53125 -10.21875 27.578125 -10.21875q11.65625 0 20.765625 5.25q9.125 5.234375 14.046875 14.53125q4.921875 9.296875 4.921875 20.421875l-16.765625 0q0 -12.3125 -5.9375 -19.046875q-5.921875 -6.75 -17.03125 -6.75q-10.125 0 -15.6875 5.65625q-5.546875 5.640625 -5.546875 15.859375q0 8.375 6.015625 14.03125q6.015625 5.65625 18.578125 10.109375q19.609375 6.484375 28.03125 15.96875q8.4375 9.46875 8.4375 24.78125q0 16.125 -10.484375 25.84375q-10.484375 9.703125 -28.53125 9.703125q-11.578125 0 -21.375 -5.0625q-9.796873 -5.0625 -15.406248 -14.21875q-5.59375 -9.15625 -5.59375 -21.015625l16.765623 0q0 12.3125 6.875 19.15625q6.890625 6.828125 18.734375 6.828125q11.03125 0 16.59375 -5.640625q5.5625 -5.65625 5.5625 -15.421875zm117.84095 -99.15625l0 94.328125q-0.1875 18.875 -10.9375 29.546875q-10.75 10.65625 -29.98436 10.65625q-19.6875 0 -30.078125 -10.4375q-10.390633 -10.4375 -10.578133 -29.765625l0 -94.328125l16.593758 0l0 93.6875q0 13.40625 5.6875 20.015625q5.703125 6.609375 18.375 6.609375q12.749985 0 18.45311 -6.609375q5.703125 -6.609375 5.703125 -20.015625l0 -93.6875l16.765625 0zm65.796265 79.015625l-23.328125 0l0 53.6875l-16.765625 0l0 -132.70312l37.1875 0q19.5 0 29.515625 10.171875q10.03125 10.15625 10.03125 29.75q0 12.296875 -5.421875 21.46875q-5.421875 9.15625 -15.359375 13.796875l25.703125 56.421875l0 1.09375l-17.953125 0l-23.609375 -53.6875zm-23.328125 -14.296875l20.234375 0q10.484375 0 16.71875 -6.75q6.25 -6.75 6.25 -18.046875q0 -25.515625 -23.15625 -25.515625l-20.046875 0l0 50.3125zm120.2106 42.375l30.359375 -107.09375l18.3125 0l-41.28125 132.70312l-14.578125 0l-41.203125 -132.70312l18.234375 0l30.15625 107.09375zm130.24155 -35.734375l-46.9375 0l0 47.03125l54.6875 0l0 14.3125l-71.359375 0l0 -132.70312l70.453125 0l0 14.40625l-53.78125 0l0 42.65625l46.9375 0l0 14.296875zm63.612 -4.734375l27.171875 -66.625l18.859375 0l-37.734375 83.21875l0 49.484375l-16.671875 0l0 -49.484375l-37.734375 -83.21875l18.953125 0l27.15625 66.625z" fill-rule="nonzero"/><path fill="#6aa84f" fill-opacity="0.6" d="m-222.32755 610.8664l0 0c0 -129.03989 104.6075 -233.6474 233.64738 -233.6474l0 0c61.96714 0 121.39627 24.616364 165.21365 68.43375c43.817383 43.817383 68.43373 103.24649 68.43373 165.21365l0 0c0 129.03992 -104.6075 233.6474 -233.64738 233.6474l0 0c-129.03989 0 -233.64738 -104.60748 -233.64738 -233.6474z" fill-rule="evenodd"/><path stroke="#38761d" stroke-width="4.0" stroke-linejoin="round" stroke-linecap="butt" d="m-222.32755 610.8664l0 0c0 -129.03989 104.6075 -233.6474 233.64738 -233.6474l0 0c61.96714 0 121.39627 24.616364 165.21365 68.43375c43.817383 43.817383 68.43373 103.24649 68.43373 165.21365l0 0c0 129.03992 -104.6075 233.6474 -233.64738 233.6474l0 0c-129.03989 0 -233.64738 -104.60748 -233.64738 -233.6474z" fill-rule="evenodd"/><path fill="#ffffff" d="m-41.395004 586.9464l0 12.0l-6.890625 0l0 -34.125l11.625 0q5.062502 0 8.062502 3.140625q3.015625 3.140625 3.015625 8.15625q0 5.015625 -2.984375 7.921875q-2.96875 2.90625 -8.234377 2.90625l-4.59375 0zm0 -5.75l4.734375 0q1.96875 0 3.046875 -1.28125q1.078125 -1.296875 1.078125 -3.75q0 -2.5625 -1.109375 -4.0625q-1.09375 -1.515625 -2.953125 -1.546875l-4.796875 0l0 10.640625zm44.429688 3.75q0 6.875 -3.25 10.671875q-3.234375 3.796875 -9.0 3.796875q-5.75 0 -9.03125 -3.765625q-3.28125 -3.765625 -3.328125 -10.53125l0 -5.84375q0 -7.03125 3.25 -10.96875q3.265625 -3.953125 9.0625 -3.953125q5.6875 0 8.96875 3.875q3.28125 3.875 3.328125 10.890625l0 5.828125zm-6.90625 -5.71875q0 -4.609375 -1.3125 -6.859375q-1.3125 -2.25 -4.078125 -2.25q-2.75 0 -4.0625 2.171875q-1.3125 2.15625 -1.359375 6.59375l0 6.0625q0 4.484375 1.328125 6.609375q1.34375 2.109375 4.140625 2.109375q2.6875 0 4.0 -2.0625q1.3125 -2.078125 1.34375 -6.4375l0 -5.9375zm19.046875 19.71875l-6.890625 0l0 -34.125l6.890625 0l0 34.125zm29.656248 0l-6.890625 0l-10.078123 -22.390625l0 22.390625l-6.890625 0l0 -34.125l6.890625 0l10.093748 22.40625l0 -22.40625l6.875 0l0 34.125zm27.625 -28.390625l-8.4375 0l0 28.390625l-6.90625 0l0 -28.390625l-8.296875 0l0 -5.734375l23.640625 0l0 5.734375z" fill-rule="nonzero"/><path fill="#ffffff" d="m-71.852036 644.9464l0 12.0l-6.890625 0l0 -34.125l11.625 0q5.0625 0 8.0625 3.140625q3.015625 3.140625 3.015625 8.15625q0 5.015625 -2.984375 7.921875q-2.96875 2.90625 -8.234375 2.90625l-4.59375 0zm0 -5.75l4.734375 0q1.96875 0 3.046875 -1.28125q1.078125 -1.296875 1.078125 -3.75q0 -2.5625 -1.109375 -4.0625q-1.09375 -1.515625 -2.953125 -1.546875l-4.796875 0l0 10.640625zm30.742188 5.28125l-3.421875 0l0 12.46875l-6.890625 0l0 -34.125l11.0 0q5.171875 0 8.0 2.6875q2.828127 2.671875 2.828127 7.625q0 6.796875 -4.953127 9.515625l5.984377 13.96875l0 0.328125l-7.406252 0l-5.140625 -12.46875zm-3.421875 -5.75l3.921875 0q2.0625 0 3.09375 -1.359375q1.03125 -1.375 1.03125 -3.671875q0 -5.140625 -4.015625 -5.140625l-4.03125 0l0 10.171875zm43.6875 4.21875q0 6.875 -3.25 10.671875q-3.234375 3.796875 -9.0 3.796875q-5.75 0 -9.03125 -3.765625q-3.28125 -3.765625 -3.328125 -10.53125l0 -5.84375q0 -7.03125 3.25 -10.96875q3.265625 -3.953125 9.0625 -3.953125q5.6875 0 8.96875 3.875q3.28125 3.875 3.328125 10.890625l0 5.828125zm-6.90625 -5.71875q0 -4.609375 -1.3125 -6.859375q-1.3125 -2.25 -4.078125 -2.25q-2.75 0 -4.0625 2.171875q-1.3125 2.15625 -1.359375 6.59375l0 6.0625q0 4.484375 1.328125 6.609375q1.34375 2.109375 4.140625 2.109375q2.6875 0 4.0 -2.0625q1.3125 -2.078125 1.34375 -6.4375l0 -5.9375zm34.984375 8.34375q-0.25 5.84375 -3.28125 8.84375q-3.015625 3.0 -8.53125 3.0q-5.78125 0 -8.875 -3.8125q-3.078125 -3.8125 -3.078125 -10.859375l0 -5.75q0 -7.03125 3.1875 -10.828125q3.1875 -3.8125 8.859375 -3.8125q5.578125 0 8.46875 3.125q2.90625 3.109375 3.296875 8.9375l-6.90625 0q-0.09375 -3.609375 -1.125 -4.96875q-1.015625 -1.375 -3.734375 -1.375q-2.765625 0 -3.921875 1.9375q-1.140625 1.921875 -1.203125 6.359375l0 6.4375q0 5.09375 1.125 7.0q1.140625 1.890625 3.90625 1.890625q2.71875 0 3.75 -1.328125q1.03125 -1.328125 1.171875 -4.796875l6.890625 0zm21.874998 -3.390625l-10.734375 0l0 9.046875l12.703125 0l0 5.71875l-19.593748 0l0 -34.125l19.546873 0l0 5.734375l-12.65625 0l0 8.0625l10.734375 0l0 5.5625zm20.335938 5.8125q0 -2.09375 -1.0625 -3.15625q-1.0625 -1.0625 -3.875 -2.21875q-5.140625 -1.9375 -7.390625 -4.546875q-2.25 -2.625 -2.25 -6.1875q0 -4.3125 3.0625 -6.921875q3.0625 -2.609375 7.765625 -2.609375q3.140625 0 5.59375 1.328125q2.46875 1.3125 3.796875 3.734375q1.328125 2.40625 1.328125 5.484375l-6.875 0q0 -2.390625 -1.015625 -3.640625q-1.015625 -1.265625 -2.9375 -1.265625q-1.8125 0 -2.828125 1.078125q-1.0 1.0625 -1.0 2.859375q0 1.40625 1.125 2.546875q1.125 1.140625 3.984375 2.359375q5.0 1.796875 7.25 4.421875q2.265625 2.625 2.265625 6.6875q0 4.453125 -2.84375 6.96875q-2.828125 2.5 -7.703125 2.5q-3.296875 0 -6.015625 -1.359375q-2.71875 -1.359375 -4.265625 -3.890625q-1.53125 -2.53125 -1.53125 -5.984375l6.921875 0q0 2.953125 1.140625 4.296875q1.15625 1.328125 3.75 1.328125q3.609375 0 3.609375 -3.8125zm25.921875 0q0 -2.09375 -1.0625 -3.15625q-1.0625 -1.0625 -3.875 -2.21875q-5.140625 -1.9375 -7.390625 -4.546875q-2.25 -2.625 -2.25 -6.1875q0 -4.3125 3.0625 -6.921875q3.0625 -2.609375 7.765625 -2.609375q3.140625 0 5.59375 1.328125q2.46875 1.3125 3.796875 3.734375q1.328125 2.40625 1.328125 5.484375l-6.875 0q0 -2.390625 -1.015625 -3.640625q-1.015625 -1.265625 -2.9375 -1.265625q-1.8125 0 -2.828125 1.078125q-1.0 1.0625 -1.0 2.859375q0 1.40625 1.125 2.546875q1.125 1.140625 3.984375 2.359375q5.0 1.796875 7.25 4.421875q2.265625 2.625 2.265625 6.6875q0 4.453125 -2.84375 6.96875q-2.828125 2.5 -7.703125 2.5q-3.296875 0 -6.015625 -1.359375q-2.71875 -1.359375 -4.265625 -3.890625q-1.53125 -2.53125 -1.53125 -5.984375l6.921875 0q0 2.953125 1.140625 4.296875q1.15625 1.328125 3.75 1.328125q3.609375 0 3.609375 -3.8125z" fill-rule="nonzero"/><path fill="#f1c232" fill-opacity="0.6" d="m244.96724 361.42914l0 0c0 -129.03989 104.6075 -233.64737 233.64738 -233.64737l0 0c61.967163 0 121.3963 24.61634 165.21368 68.43374c43.817383 43.817383 68.433716 103.246506 68.433716 165.21364l0 0c0 129.03989 -104.60748 233.6474 -233.6474 233.6474l0 0c-129.03989 0 -233.64738 -104.60751 -233.64738 -233.6474z" fill-rule="evenodd"/><path stroke="#bf9000" stroke-width="4.0" stroke-linejoin="round" stroke-linecap="butt" d="m244.96724 361.42914l0 0c0 -129.03989 104.6075 -233.64737 233.64738 -233.64737l0 0c61.967163 0 121.3963 24.61634 165.21368 68.43374c43.817383 43.817383 68.433716 103.246506 68.433716 165.21364l0 0c0 129.03989 -104.60748 233.6474 -233.6474 233.6474l0 0c-129.03989 0 -233.64738 -104.60751 -233.64738 -233.6474z" fill-rule="evenodd"/><path fill="#ffffff" d="m389.9154 340.55603q0 -2.09375 -1.0625 -3.15625q-1.0625 -1.0625 -3.875 -2.21875q-5.140625 -1.9375 -7.390625 -4.546875q-2.25 -2.625 -2.25 -6.1875q0 -4.3125 3.0625 -6.921875q3.0625 -2.609375 7.765625 -2.609375q3.140625 0 5.59375 1.328125q2.46875 1.3125 3.796875 3.734375q1.328125 2.40625 1.328125 5.484375l-6.875 0q0 -2.390625 -1.015625 -3.640625q-1.015625 -1.265625 -2.9375 -1.265625q-1.8125 0 -2.828125 1.078125q-1.0 1.0625 -1.0 2.859375q0 1.40625 1.125 2.546875q1.125 1.140625 3.984375 2.359375q5.0 1.796875 7.25 4.421875q2.265625 2.625 2.265625 6.6875q0 4.453125 -2.84375 6.96875q-2.828125 2.5 -7.703125 2.5q-3.296875 0 -6.015625 -1.359375q-2.71875 -1.359375 -4.265625 -3.890625q-1.53125 -2.53125 -1.53125 -5.984375l6.921875 0q0 2.953125 1.140625 4.296875q1.15625 1.328125 3.75 1.328125q3.609375 0 3.609375 -3.8125zm27.796875 1.96875l-9.390625 0l-1.828125 6.984375l-7.296875 0l10.671875 -34.125l6.296875 0l10.734375 34.125l-7.359375 0l-1.828125 -6.984375zm-7.890625 -5.75l6.375 0l-3.1875 -12.15625l-3.1875 12.15625zm29.273438 -21.390625l6.4375 24.671875l6.421875 -24.671875l9.0 0l0 34.125l-6.90625 0l0 -9.234375l0.625 -14.234375l-6.8125 23.46875l-4.6875 0l-6.828125 -23.46875l0.640625 14.234375l0 9.234375l-6.890625 0l0 -34.125l9.0 0zm34.289062 22.125l0 12.0l-6.890625 0l0 -34.125l11.625 0q5.0625 0 8.0625 3.140625q3.015625 3.140625 3.015625 8.15625q0 5.015625 -2.984375 7.921875q-2.96875 2.90625 -8.234375 2.90625l-4.59375 0zm0 -5.75l4.734375 0q1.96875 0 3.046875 -1.28125q1.078125 -1.296875 1.078125 -3.75q0 -2.5625 -1.109375 -4.0625q-1.09375 -1.515625 -2.953125 -1.546875l-4.796875 0l0 10.640625zm27.304688 12.03125l12.09375 0l0 5.71875l-18.984375 0l0 -34.125l6.890625 0l0 28.40625zm23.265625 5.71875l-6.890625 0l0 -34.125l6.890625 0l0 34.125zm29.65625 0l-6.890625 0l-10.078125 -22.390625l0 22.390625l-6.890625 0l0 -34.125l6.890625 0l10.09375 22.40625l0 -22.40625l6.875 0l0 34.125zm28.734375 -3.875q-2.0 2.15625 -4.890625 3.25q-2.890625 1.09375 -6.34375 1.09375q-5.875 0 -9.140625 -3.640625q-3.25 -3.65625 -3.34375 -10.609375l0 -6.140625q0 -7.0625 3.078125 -10.859375q3.078125 -3.8125 8.984375 -3.8125q5.5625 0 8.375 2.75q2.828125 2.734375 3.28125 8.59375l-6.703125 0q-0.28125 -3.265625 -1.359375 -4.4375q-1.078125 -1.1875 -3.375 -1.1875q-2.796875 0 -4.0625 2.046875q-1.265625 2.03125 -1.3125 6.484375l0 6.1875q0 4.65625 1.390625 6.78125q1.40625 2.125 4.59375 2.125q2.03125 0 3.296875 -0.828125l0.609375 -0.421875l0 -6.25l-4.828125 0l0 -5.203125l11.75 0l0 14.078125z" fill-rule="nonzero"/><path fill="#ffffff" d="m396.74744 393.58728l-10.703125 0l0 13.921875l-6.890625 0l0 -34.125l18.890625 0l0 5.734375l-12.0 0l0 8.75l10.703125 0l0 5.71875zm27.421875 -20.203125l0 23.625q-0.046875 5.3125 -2.9375 8.140625q-2.875 2.828125 -8.265625 2.828125q-5.484375 0 -8.375 -2.859375q-2.890625 -2.859375 -2.890625 -8.28125l0 -23.453125l6.9375 0l0 23.484375q0 2.90625 0.9375 4.15625q0.9375 1.234375 3.390625 1.234375q2.46875 0 3.375 -1.234375q0.921875 -1.234375 0.9375 -4.046875l0 -23.59375l6.890625 0zm29.09375 34.125l-6.890625 0l-10.078125 -22.390625l0 22.390625l-6.890625 0l0 -34.125l6.890625 0l10.09375 22.40625l0 -22.40625l6.875 0l0 34.125zm28.65625 -11.375q-0.25 5.84375 -3.28125 8.84375q-3.015625 3.0 -8.53125 3.0q-5.78125 0 -8.875 -3.8125q-3.078125 -3.8125 -3.078125 -10.859375l0 -5.75q0 -7.03125 3.1875 -10.828125q3.1875 -3.8125 8.859375 -3.8125q5.578125 0 8.46875 3.125q2.90625 3.109375 3.296875 8.9375l-6.90625 0q-0.09375 -3.609375 -1.125 -4.96875q-1.015625 -1.375 -3.734375 -1.375q-2.765625 0 -3.921875 1.9375q-1.140625 1.921875 -1.203125 6.359375l0 6.4375q0 5.09375 1.125 7.0q1.140625 1.890625 3.90625 1.890625q2.71875 0 3.75 -1.328125q1.03125 -1.328125 1.171875 -4.796875l6.890625 0zm26.34375 -17.015625l-8.4375 0l0 28.390625l-6.90625 0l0 -28.390625l-8.296875 0l0 -5.734375l23.640625 0l0 5.734375zm11.15625 28.390625l-6.890625 0l0 -34.125l6.890625 0l0 34.125zm29.8125 -14.0q0 6.875 -3.25 10.671875q-3.234375 3.796875 -9.0 3.796875q-5.75 0 -9.03125 -3.765625q-3.28125 -3.765625 -3.328125 -10.53125l0 -5.84375q0 -7.03125 3.25 -10.96875q3.265625 -3.953125 9.0625 -3.953125q5.6875 0 8.96875 3.875q3.28125 3.875 3.328125 10.890625l0 5.828125zm-6.90625 -5.71875q0 -4.609375 -1.3125 -6.859375q-1.3125 -2.25 -4.078125 -2.25q-2.75 0 -4.0625 2.171875q-1.3125 2.15625 -1.359375 6.59375l0 6.0625q0 4.484375 1.328125 6.609375q1.34375 2.109375 4.140625 2.109375q2.6875 0 4.0 -2.0625q1.3125 -2.078125 1.34375 -6.4375l0 -5.9375zm35.71875 19.71875l-6.890625 0l-10.078125 -22.390625l0 22.390625l-6.890625 0l0 -34.125l6.890625 0l10.09375 22.40625l0 -22.40625l6.875 0l0 34.125z" fill-rule="nonzero"/><path fill="#8e7cc3" d="m223.96817 881.55225l0 0c0 -129.03986 104.60751 -233.6474 233.6474 -233.6474l0 0c61.967133 0 121.39627 24.616394 165.21365 68.43378c43.817383 43.817383 68.433716 103.24646 68.433716 165.21362l0 0c0 129.03992 -104.60748 233.64734 -233.64737 233.64734l0 0c-129.03989 0 -233.6474 -104.60742 -233.6474 -233.64734z" fill-rule="evenodd"/><path stroke="#674ea7" stroke-width="4.0" stroke-linejoin="round" stroke-linecap="butt" d="m223.96817 881.55225l0 0c0 -129.03986 104.60751 -233.6474 233.6474 -233.6474l0 0c61.967133 0 121.39627 24.616394 165.21365 68.43378c43.817383 43.817383 68.433716 103.24646 68.433716 165.21362l0 0c0 129.03992 -104.60748 233.64734 -233.64737 233.64734l0 0c-129.03989 0 -233.6474 -104.60742 -233.6474 -233.64734z" fill-rule="evenodd"/><path fill="#ffffff" d="m347.8304 869.63226l0 -34.125l9.015625 0q5.984375 0 9.53125 3.796875q3.546875 3.796875 3.625 10.40625l0 5.53125q0 6.71875 -3.5625 10.5625q-3.546875 3.828125 -9.78125 3.828125l-8.828125 0zm6.890625 -28.390625l0 22.671875l2.0625 0q3.4375 0 4.84375 -1.8125q1.40625 -1.828125 1.484375 -6.28125l0 -5.921875q0 -4.78125 -1.34375 -6.671875q-1.328125 -1.890625 -4.546875 -1.984375l-2.5 0zm37.851562 13.625l-10.734375 0l0 9.046875l12.703125 0l0 5.71875l-19.59375 0l0 -34.125l19.546875 0l0 5.734375l-12.65625 0l0 8.0625l10.734375 0l0 5.5625zm28.023438 -13.625l-8.4375 0l0 28.390625l-6.90625 0l0 -28.390625l-8.296875 0l0 -5.734375l23.640625 0l0 5.734375zm21.59375 13.625l-10.734375 0l0 9.046875l12.703125 0l0 5.71875l-19.59375 0l0 -34.125l19.546875 0l0 5.734375l-12.65625 0l0 8.0625l10.734375 0l0 5.5625zm29.054688 3.390625q-0.25 5.84375 -3.28125 8.84375q-3.015625 3.0 -8.53125 3.0q-5.78125 0 -8.875 -3.8125q-3.078125 -3.8125 -3.078125 -10.859375l0 -5.75q0 -7.03125 3.1875 -10.828125q3.1875 -3.8125 8.859375 -3.8125q5.578125 0 8.46875 3.125q2.90625 3.109375 3.296875 8.9375l-6.90625 0q-0.09375 -3.609375 -1.125 -4.96875q-1.015625 -1.375 -3.734375 -1.375q-2.765625 0 -3.921875 1.9375q-1.140625 1.921875 -1.203125 6.359375l0 6.4375q0 5.09375 1.125 7.0q1.140625 1.890625 3.90625 1.890625q2.71875 0 3.75 -1.328125q1.03125 -1.328125 1.171875 -4.796875l6.890625 0zm26.34375 -17.015625l-8.4375 0l0 28.390625l-6.90625 0l0 -28.390625l-8.296875 0l0 -5.734375l23.640625 0l0 5.734375zm11.15625 28.390625l-6.890625 0l0 -34.125l6.890625 0l0 34.125zm29.81247 -14.0q0 6.875 -3.25 10.671875q-3.234375 3.796875 -9.0 3.796875q-5.75 0 -9.03125 -3.765625q-3.28125 -3.765625 -3.328125 -10.53125l0 -5.84375q0 -7.03125 3.25 -10.96875q3.265625 -3.953125 9.0625 -3.953125q5.6875 0 8.96875 3.875q3.28125 3.875 3.328125 10.890625l0 5.828125zm-6.90625 -5.71875q0 -4.609375 -1.3125 -6.859375q-1.3125 -2.25 -4.078125 -2.25q-2.75 0 -4.0625 2.171875q-1.3125 2.15625 -1.359375 6.59375l0 6.0625q0 4.484375 1.328125 6.609375q1.34375 2.109375 4.140625 2.109375q2.6875 0 4.0 -2.0625q1.3125 -2.078125 1.34375 -6.4375l0 -5.9375zm35.71875 19.71875l-6.890625 0l-10.078125 -22.390625l0 22.390625l-6.890625 0l0 -34.125l6.890625 0l10.09375 22.40625l0 -22.40625l6.875 0l0 34.125z" fill-rule="nonzero"/><path fill="#ffffff" d="m375.74838 913.7104l-10.703125 0l0 13.921875l-6.890625 0l0 -34.125l18.890625 0l0 5.734375l-12.0 0l0 8.75l10.703125 0l0 5.71875zm27.421875 -20.203125l0 23.625q-0.046875 5.3125 -2.9375 8.140625q-2.875 2.828125 -8.265625 2.828125q-5.484375 0 -8.375 -2.859375q-2.890625 -2.859375 -2.890625 -8.28125l0 -23.453125l6.9375 0l0 23.484375q0 2.90625 0.9375 4.15625q0.9375 1.234375 3.390625 1.234375q2.46875 0 3.375 -1.234375q0.921875 -1.234375 0.9375 -4.046875l0 -23.59375l6.890625 0zm29.09375 34.125l-6.890625 0l-10.078125 -22.390625l0 22.390625l-6.890625 0l0 -34.125l6.890625 0l10.09375 22.40625l0 -22.40625l6.875 0l0 34.125zm28.65625 -11.375q-0.25 5.84375 -3.28125 8.84375q-3.015625 3.0 -8.53125 3.0q-5.78125 0 -8.875 -3.8125q-3.078125 -3.8125 -3.078125 -10.859375l0 -5.75q0 -7.03125 3.1875 -10.828125q3.1875 -3.8125 8.859375 -3.8125q5.578125 0 8.46875 3.125q2.90625 3.109375 3.296875 8.9375l-6.90625 0q-0.09375 -3.609375 -1.125 -4.96875q-1.015625 -1.375 -3.734375 -1.375q-2.765625 0 -3.921875 1.9375q-1.140625 1.921875 -1.203125 6.359375l0 6.4375q0 5.09375 1.125 7.0q1.140625 1.890625 3.90625 1.890625q2.71875 0 3.75 -1.328125q1.03125 -1.328125 1.171875 -4.796875l6.890625 0zm26.34375 -17.015625l-8.4375 0l0 28.390625l-6.90625 0l0 -28.390625l-8.296875 0l0 -5.734375l23.640625 0l0 5.734375zm11.15625 28.390625l-6.890625 0l0 -34.125l6.890625 0l0 34.125zm29.81247 -14.0q0 6.875 -3.25 10.671875q-3.234375 3.796875 -9.0 3.796875q-5.7499695 0 -9.0312195 -3.765625q-3.28125 -3.765625 -3.328125 -10.53125l0 -5.84375q0 -7.03125 3.25 -10.96875q3.265625 -3.953125 9.0624695 -3.953125q5.6875 0 8.96875 3.875q3.28125 3.875 3.328125 10.890625l0 5.828125zm-6.90625 -5.71875q0 -4.609375 -1.3125 -6.859375q-1.3125 -2.25 -4.078125 -2.25q-2.75 0 -4.0624695 2.171875q-1.3125 2.15625 -1.359375 6.59375l0 6.0625q0 4.484375 1.328125 6.609375q1.3437195 2.109375 4.1405945 2.109375q2.6875 0 4.0 -2.0625q1.3125 -2.078125 1.34375 -6.4375l0 -5.9375zm35.71875 19.71875l-6.890625 0l-10.078125 -22.390625l0 22.390625l-6.890625 0l0 -34.125l6.890625 0l10.09375 22.40625l0 -22.40625l6.875 0l0 34.125z" fill-rule="nonzero"/><path fill="#000000" fill-opacity="0.0" d="m1023.168 498.12274l426.41962 0l0 225.4873l-426.41962 0z" fill-rule="evenodd"/><path fill="#000000" d="m1197.1747 597.90643q0 3.4375 -1.625 5.34375q-1.625 1.890625 -4.515625 1.890625q-2.859375 0 -4.5 -1.875q-1.640625 -1.890625 -1.671875 -5.28125l0 -2.90625q0 -3.515625 1.625 -5.484375q1.640625 -1.984375 4.53125 -1.984375q2.84375 0 4.484375 1.9375q1.640625 1.9375 1.671875 5.4375l0 2.921875zm-3.46875 -2.859375q0 -2.3125 -0.65625 -3.4375q-0.65625 -1.125 -2.03125 -1.125q-1.375 0 -2.03125 1.09375q-0.65625 1.078125 -0.671875 3.296875l0 3.03125q0 2.234375 0.65625 3.296875q0.671875 1.0625 2.0625 1.0625q1.359375 0 2.015625 -1.03125q0.65625 -1.046875 0.65625 -3.21875l0 -2.96875zm5.9375 9.859375l0 -17.0625l5.265625 0q2.671875 0 4.0625 1.1875q1.390625 1.1875 1.390625 3.484375q0 1.296875 -0.578125 2.234375q-0.5625 0.9375 -1.5625 1.375q1.140625 0.328125 1.765625 1.328125q0.625 0.984375 0.625 2.4375q0 2.484375 -1.375 3.75q-1.359375 1.265625 -3.953125 1.265625l-5.640625 0zm3.4375 -7.421875l0 4.5625l2.203125 0q0.9375 0 1.40625 -0.578125q0.484375 -0.578125 0.484375 -1.625q0 -2.296875 -1.65625 -2.359375l-2.4375 0zm0 -2.5l1.796875 0q2.03125 0 2.03125 -2.109375q0 -1.15625 -0.46875 -1.65625q-0.46875 -0.5 -1.53125 -0.5l-1.828125 0l0 4.265625zm17.230469 5.4375q0 -1.03125 -0.53125 -1.5625q-0.53125 -0.546875 -1.9375 -1.109375q-2.5625 -0.984375 -3.6875 -2.28125q-1.125 -1.3125 -1.125 -3.09375q0 -2.15625 1.515625 -3.453125q1.53125 -1.3125 3.890625 -1.3125q1.578125 0 2.796875 0.671875q1.234375 0.65625 1.890625 1.859375q0.671875 1.203125 0.671875 2.734375l-3.4375 0q0 -1.1875 -0.515625 -1.8125q-0.5 -0.625 -1.46875 -0.625q-0.890625 0 -1.40625 0.53125q-0.5 0.53125 -0.5 1.4375q0 0.703125 0.5625 1.265625q0.5625 0.5625 2.0 1.171875q2.484375 0.90625 3.609375 2.21875q1.140625 1.3125 1.140625 3.34375q0 2.21875 -1.421875 3.484375q-1.40625 1.25 -3.84375 1.25q-1.65625 0 -3.015625 -0.671875q-1.359375 -0.6875 -2.125 -1.953125q-0.765625 -1.265625 -0.765625 -2.984375l3.453125 0q0 1.46875 0.5625 2.140625q0.578125 0.671875 1.890625 0.671875q1.796875 0 1.796875 -1.921875zm14.5703125 -2.90625l-5.375 0l0 4.53125l6.359375 0l0 2.859375l-9.796875 0l0 -17.0625l9.765625 0l0 2.875l-6.328125 0l0 4.03125l5.375 0l0 2.765625zm8.136719 1.15625l-1.71875 0l0 6.234375l-3.4375 0l0 -17.0625l5.484375 0q2.59375 0 4.0 1.34375q1.421875 1.34375 1.421875 3.8125q0 3.390625 -2.46875 4.75l2.984375 6.984375l0 0.171875l-3.703125 0l-2.5625 -6.234375zm-1.71875 -2.875l1.953125 0q1.03125 0 1.546875 -0.6875q0.515625 -0.6875 0.515625 -1.828125q0 -2.5625 -2.0 -2.5625l-2.015625 0l0 5.078125zm15.3828125 4.421875l2.875 -12.375l3.84375 0l-4.921875 17.0625l-3.578125 0l-4.890625 -17.0625l3.8125 0l2.859375 12.375zm17.140625 -2.703125l-5.375 0l0 4.53125l6.359375 0l0 2.859375l-9.796875 0l0 -17.0625l9.765625 0l0 2.875l-6.328125 0l0 4.03125l5.375 0l0 2.765625zm2.9648438 7.390625l0 -17.0625l4.515625 0q2.984375 0 4.75 1.90625q1.78125 1.890625 1.8125 5.1875l0 2.765625q0 3.375 -1.78125 5.296875q-1.765625 1.90625 -4.875 1.90625l-4.421875 0zm3.4375 -14.1875l0 11.328125l1.03125 0q1.734375 0 2.4375 -0.90625q0.703125 -0.90625 0.734375 -3.140625l0 -2.96875q0 -2.390625 -0.671875 -3.328125q-0.671875 -0.9375 -2.265625 -0.984375l-1.265625 0z" fill-rule="nonzero"/><path fill="#000000" d="m1160.3427 627.9064l0 6.0l-3.4375 0l0 -17.0625l5.8125 0q2.53125 0 4.03125 1.578125q1.515625 1.5625 1.515625 4.078125q0 2.5 -1.5 3.953125q-1.484375 1.453125 -4.125 1.453125l-2.296875 0zm0 -2.875l2.375 0q0.984375 0 1.515625 -0.640625q0.546875 -0.640625 0.546875 -1.875q0 -1.28125 -0.5625 -2.03125q-0.546875 -0.765625 -1.46875 -0.765625l-2.40625 0l0 5.3125zm22.230469 1.875q0 3.4375 -1.625 5.34375q-1.625 1.890625 -4.515625 1.890625q-2.859375 0 -4.5 -1.875q-1.640625 -1.890625 -1.671875 -5.28125l0 -2.90625q0 -3.515625 1.625 -5.484375q1.640625 -1.984375 4.53125 -1.984375q2.84375 0 4.484375 1.9375q1.640625 1.9375 1.671875 5.4375l0 2.921875zm-3.46875 -2.859375q0 -2.3125 -0.65625 -3.4375q-0.65625 -1.125 -2.03125 -1.125q-1.375 0 -2.03125 1.09375q-0.65625 1.078125 -0.671875 3.296875l0 3.03125q0 2.234375 0.65625 3.296875q0.671875 1.0625 2.0625 1.0625q1.359375 0 2.015625 -1.03125q0.65625 -1.046875 0.65625 -3.21875l0 -2.96875zm9.53125 9.859375l-3.4375 0l0 -17.0625l3.4375 0l0 17.0625zm14.8203125 0l-3.4375 0l-5.046875 -11.1875l0 11.1875l-3.4375 0l0 -17.0625l3.4375 0l5.0625 11.203125l0 -11.203125l3.421875 0l0 17.0625zm13.8203125 -14.1875l-4.21875 0l0 14.1875l-3.453125 0l0 -14.1875l-4.15625 0l0 -2.875l11.828125 0l0 2.875zm10.953125 8.1875l0 6.0l-3.4375 0l0 -17.0625l5.8125 0q2.53125 0 4.03125 1.578125q1.515625 1.5625 1.515625 4.078125q0 2.5 -1.5 3.953125q-1.484375 1.453125 -4.125 1.453125l-2.296875 0zm0 -2.875l2.375 0q0.984375 0 1.515625 -0.640625q0.546875 -0.640625 0.546875 -1.875q0 -1.28125 -0.5625 -2.03125q-0.546875 -0.765625 -1.46875 -0.765625l-2.40625 0l0 5.3125zm18.355469 5.375l-4.703125 0l-0.90625 3.5l-3.640625 0l5.328125 -17.0625l3.15625 0l5.359375 17.0625l-3.671875 0l-0.921875 -3.5zm-3.953125 -2.859375l3.1875 0l-1.59375 -6.09375l-1.59375 6.09375zm21.191406 -7.828125l-4.21875 0l0 14.1875l-3.453125 0l0 -14.1875l-4.15625 0l0 -2.875l11.828125 0l0 2.875zm13.03125 0l-4.21875 0l0 14.1875l-3.453125 0l0 -14.1875l-4.15625 0l0 -2.875l11.828125 0l0 2.875zm10.796875 6.796875l-5.375 0l0 4.53125l6.359375 0l0 2.859375l-9.796875 0l0 -17.0625l9.765625 0l0 2.875l-6.328125 0l0 4.03125l5.375 0l0 2.765625zm8.136719 1.15625l-1.71875 0l0 6.234375l-3.4375 0l0 -17.0625l5.484375 0q2.59375 0 4.0 1.34375q1.421875 1.34375 1.421875 3.8125q0 3.390625 -2.46875 4.75l2.984375 6.984375l0 0.171875l-3.703125 0l-2.5625 -6.234375zm-1.71875 -2.875l1.953125 0q1.03125 0 1.546875 -0.6875q0.515625 -0.6875 0.515625 -1.828125q0 -2.5625 -2.0 -2.5625l-2.015625 0l0 5.078125zm21.757812 9.109375l-3.4375 0l-5.046875 -11.1875l0 11.1875l-3.4375 0l0 -17.0625l3.4375 0l5.0625 11.203125l0 -11.203125l3.421875 0l0 17.0625z" fill-rule="nonzero"/><path fill="#000000" fill-opacity="0.0" d="m-782.45245 508.74704l325.80374 0l0 225.48734l-325.80374 0z" fill-rule="evenodd"/><path fill="#cccccc" d="m-719.9295 622.6401l-5.375 0l0 4.53125l6.359375 0l0 2.859375l-9.796875 0l0 -17.0625l9.765625 0l0 2.875l-6.328125 0l0 4.03125l5.375 0l0 2.765625zm7.4648438 -9.671875l3.21875 12.34375l3.21875 -12.34375l4.5 0l0 17.0625l-3.46875 0l0 -4.625l0.328125 -7.109375l-3.421875 11.734375l-2.34375 0l-3.40625 -11.734375l0.3125 7.109375l0 4.625l-3.4375 0l0 -17.0625l4.5 0zm17.136719 11.0625l0 6.0l-3.4375 0l0 -17.0625l5.8125 0q2.53125 0 4.03125 1.578125q1.515625 1.5625 1.515625 4.078125q0 2.5 -1.5 3.953125q-1.484375 1.453125 -4.125 1.453125l-2.296875 0zm0 -2.875l2.375 0q0.984375 0 1.515625 -0.640625q0.546875 -0.640625 0.546875 -1.875q0 -1.28125 -0.5625 -2.03125q-0.546875 -0.765625 -1.46875 -0.765625l-2.40625 0l0 5.3125zm13.808594 8.875l-3.4375 0l0 -17.0625l3.4375 0l0 17.0625zm8.0703125 -6.234375l-1.71875 0l0 6.234375l-3.4375 0l0 -17.0625l5.484375 0q2.59375 0 4.0 1.34375q1.421875 1.34375 1.421875 3.8125q0 3.390625 -2.46875 4.75l2.984375 6.984375l0 0.171875l-3.703125 0l-2.5625 -6.234375zm-1.71875 -2.875l1.953125 0q1.03125 0 1.546875 -0.6875q0.515625 -0.6875 0.515625 -1.828125q0 -2.5625 -2.0 -2.5625l-2.015625 0l0 5.078125zm13.4296875 9.109375l-3.4375 0l0 -17.0625l3.4375 0l0 17.0625zm14.4609375 -5.6875q-0.125 2.921875 -1.640625 4.421875q-1.515625 1.5 -4.265625 1.5q-2.890625 0 -4.4375 -1.90625q-1.53125 -1.90625 -1.53125 -5.4375l0 -2.859375q0 -3.515625 1.59375 -5.421875q1.59375 -1.90625 4.421875 -1.90625q2.796875 0 4.234375 1.5625q1.453125 1.546875 1.65625 4.46875l-3.46875 0q-0.046875 -1.796875 -0.5625 -2.484375q-0.5 -0.6875 -1.859375 -0.6875q-1.375 0 -1.953125 0.96875q-0.578125 0.96875 -0.609375 3.171875l0 3.234375q0 2.53125 0.5625 3.484375q0.578125 0.953125 1.953125 0.953125q1.359375 0 1.875 -0.65625q0.515625 -0.671875 0.59375 -2.40625l3.4375 0zm10.265625 2.1875l-4.703125 0l-0.90625 3.5l-3.640625 0l5.328125 -17.0625l3.15625 0l5.359375 17.0625l-3.671875 0l-0.921875 -3.5zm-3.953125 -2.859375l3.1875 0l-1.59375 -6.09375l-1.59375 6.09375zm13.582031 3.5l6.046875 0l0 2.859375l-9.484375 0l0 -17.0625l3.4375 0l0 14.203125zm17.171875 2.859375l-3.4375 0l0 -17.0625l3.4375 0l0 17.0625zm14.8203125 0l-3.4375 0l-5.046875 -11.1875l0 11.1875l-3.4375 0l0 -17.0625l3.4375 0l5.0625 11.203125l0 -11.203125l3.421875 0l0 17.0625zm13.8203125 -14.1875l-4.21875 0l0 14.1875l-3.453125 0l0 -14.1875l-4.15625 0l0 -2.875l11.828125 0l0 2.875zm10.796875 6.796875l-5.375 0l0 4.53125l6.359375 0l0 2.859375l-9.796875 0l0 -17.0625l9.765625 0l0 2.875l-6.328125 0l0 4.03125l5.375 0l0 2.765625zm14.886719 7.390625l-3.4375 0l-5.046875 -11.1875l0 11.1875l-3.4375 0l0 -17.0625l3.4375 0l5.0625 11.203125l0 -11.203125l3.421875 0l0 17.0625zm9.9765625 -4.484375q0 -1.03125 -0.53125 -1.5625q-0.53125 -0.546875 -1.9375 -1.109375q-2.5625 -0.984375 -3.6875 -2.28125q-1.125 -1.3125 -1.125 -3.09375q0 -2.15625 1.515625 -3.453125q1.53125 -1.3125 3.890625 -1.3125q1.578125 0 2.796875 0.671875q1.234375 0.65625 1.890625 1.859375q0.671875 1.203125 0.671875 2.734375l-3.4375 0q0 -1.1875 -0.515625 -1.8125q-0.5 -0.625 -1.46875 -0.625q-0.890625 0 -1.40625 0.53125q-0.5 0.53125 -0.5 1.4375q0 0.703125 0.5625 1.265625q0.5625 0.5625 2.0 1.171875q2.484375 0.90625 3.609375 2.21875q1.140625 1.3125 1.140625 3.34375q0 2.21875 -1.421875 3.484375q-1.40625 1.25 -3.84375 1.25q-1.65625 0 -3.015625 -0.671875q-1.359375 -0.6875 -2.125 -1.953125q-0.765625 -1.265625 -0.765625 -2.984375l3.453125 0q0 1.46875 0.5625 2.140625q0.578125 0.671875 1.890625 0.671875q1.796875 0 1.796875 -1.921875zm9.3515625 4.484375l-3.4375 0l0 -17.0625l3.4375 0l0 17.0625zm13.9453125 -14.1875l-4.21875 0l0 14.1875l-3.453125 0l0 -14.1875l-4.15625 0l0 -2.875l11.828125 0l0 2.875zm7.125 4.78125l2.5625 -7.65625l3.75 0l-4.5625 10.875l0 6.1875l-3.5 0l0 -6.1875l-4.578125 -10.875l3.75 0l2.578125 7.65625z" fill-rule="nonzero"/><path fill="#000000" fill-opacity="0.0" d="m-602.7875 248.68549l258.427 0l0 225.48734l-258.427 0z" fill-rule="evenodd"/><path fill="#cccccc" d="m-498.05444 348.5004l-5.359375 0l0 6.96875l-3.4375 0l0 -17.0625l9.4375 0l0 2.875l-6.0 0l0 4.359375l5.359375 0l0 2.859375zm6.2109375 6.96875l-3.4375 0l0 -17.0625l3.4375 0l0 17.0625zm13.9453125 -14.1875l-4.21875 0l0 14.1875l-3.453125 0l0 -14.1875l-4.15625 0l0 -2.875l11.828125 0l0 2.875zm13.03125 0l-4.21875 0l0 14.1875l-3.453125 0l0 -14.1875l-4.15625 0l0 -2.875l11.828125 0l0 2.875zm10.796875 6.796875l-5.375 0l0 4.53125l6.359375 0l0 2.859375l-9.796875 0l0 -17.0625l9.765625 0l0 2.875l-6.328125 0l0 4.03125l5.375 0l0 2.765625zm2.9648438 7.390625l0 -17.0625l4.515625 0q2.984375 0 4.75 1.90625q1.78125 1.890625 1.8125 5.1875l0 2.765625q0 3.375 -1.78125 5.296875q-1.765625 1.90625 -4.875 1.90625l-4.421875 0zm3.4375 -14.1875l0 11.328125l1.03125 0q1.734375 0 2.4375 -0.90625q0.703125 -0.90625 0.734375 -3.140625l0 -2.96875q0 -2.390625 -0.671875 -3.328125q-0.671875 -0.9375 -2.265625 -0.984375l-1.265625 0z" fill-rule="nonzero"/><path fill="#cccccc" d="m-502.45093 367.40665l3.21875 12.34375l3.21875 -12.34375l4.5 0l0 17.0625l-3.46875 0l0 -4.625l0.328125 -7.109375l-3.421875 11.734375l-2.34375 0l-3.40625 -11.734375l0.3125 7.109375l0 4.625l-3.4375 0l0 -17.0625l4.5 0zm25.714844 10.0625q0 3.4375 -1.625 5.34375q-1.625 1.890625 -4.515625 1.890625q-2.859375 0 -4.5 -1.875q-1.640625 -1.890625 -1.671875 -5.28125l0 -2.90625q0 -3.515625 1.625 -5.484375q1.640625 -1.984375 4.53125 -1.984375q2.84375 0 4.484375 1.9375q1.640625 1.9375 1.671875 5.4375l0 2.921875zm-3.46875 -2.859375q0 -2.3125 -0.65625 -3.4375q-0.65625 -1.125 -2.03125 -1.125q-1.375 0 -2.03125 1.09375q-0.65625 1.078125 -0.671875 3.296875l0 3.03125q0 2.234375 0.65625 3.296875q0.671875 1.0625 2.0625 1.0625q1.359375 0 2.015625 -1.03125q0.65625 -1.046875 0.65625 -3.21875l0 -2.96875zm5.9375 9.859375l0 -17.0625l4.515625 0q2.984375 0 4.75 1.90625q1.78125 1.890625 1.8125 5.1875l0 2.765625q0 3.375 -1.78125 5.296875q-1.765625 1.90625 -4.875 1.90625l-4.421875 0zm3.4375 -14.1875l0 11.328125l1.03125 0q1.734375 0 2.4375 -0.90625q0.703125 -0.90625 0.734375 -3.140625l0 -2.96875q0 -2.390625 -0.671875 -3.328125q-0.671875 -0.9375 -2.265625 -0.984375l-1.265625 0zm18.933594 6.796875l-5.375 0l0 4.53125l6.359375 0l0 2.859375l-9.796875 0l0 -17.0625l9.765625 0l0 2.875l-6.328125 0l0 4.03125l5.375 0l0 2.765625zm6.4023438 4.53125l6.046875 0l0 2.859375l-9.484375 0l0 -17.0625l3.4375 0l0 14.203125z" fill-rule="nonzero"/><path fill="#000000" fill-opacity="0.0" d="m-636.4758 768.8086l325.8037 0l0 225.4873l-325.8037 0z" fill-rule="evenodd"/><path fill="#cccccc" d="m-560.4783 883.8579l-1.71875 0l0 6.234375l-3.4375 0l0 -17.0625l5.484375 0q2.59375 0 4.0 1.34375q1.421875 1.34375 1.421875 3.8125q0 3.390625 -2.46875 4.75l2.984375 6.984375l0 0.171875l-3.703125 0l-2.5625 -6.234375zm-1.71875 -2.875l1.953125 0q1.03125 0 1.546875 -0.6875q0.515625 -0.6875 0.515625 -1.828125q0 -2.5625 -2.0 -2.5625l-2.015625 0l0 5.078125zm17.976562 5.609375l-4.703125 0l-0.90625 3.5l-3.640625 0l5.328125 -17.0625l3.15625 0l5.359375 17.0625l-3.671875 0l-0.921875 -3.5zm-3.953125 -2.859375l3.1875 0l-1.59375 -6.09375l-1.59375 6.09375zm22.066406 6.359375l-3.4375 0l-5.046875 -11.1875l0 11.1875l-3.4375 0l0 -17.0625l3.4375 0l5.0625 11.203125l0 -11.203125l3.421875 0l0 17.0625zm2.7734375 0l0 -17.0625l4.515625 0q2.984375 0 4.75 1.90625q1.78125 1.890625 1.8125 5.1875l0 2.765625q0 3.375 -1.78125 5.296875q-1.765625 1.90625 -4.875 1.90625l-4.421875 0zm3.4375 -14.1875l0 11.328125l1.03125 0q1.734375 0 2.4375 -0.90625q0.703125 -0.90625 0.734375 -3.140625l0 -2.96875q0 -2.390625 -0.671875 -3.328125q-0.671875 -0.9375 -2.265625 -0.984375l-1.265625 0zm22.136719 7.1875q0 3.4375 -1.625 5.34375q-1.625 1.890625 -4.515625 1.890625q-2.859375 0 -4.5 -1.875q-1.640625 -1.890625 -1.671875 -5.28125l0 -2.90625q0 -3.515625 1.625 -5.484375q1.640625 -1.984375 4.53125 -1.984375q2.84375 0 4.484375 1.9375q1.640625 1.9375 1.671875 5.4375l0 2.921875zm-3.46875 -2.859375q0 -2.3125 -0.65625 -3.4375q-0.65625 -1.125 -2.03125 -1.125q-1.375 0 -2.03125 1.09375q-0.65625 1.078125 -0.671875 3.296875l0 3.03125q0 2.234375 0.65625 3.296875q0.671875 1.0625 2.0625 1.0625q1.359375 0 2.015625 -1.03125q0.65625 -1.046875 0.65625 -3.21875l0 -2.96875zm10.4375 -7.203125l3.21875 12.34375l3.21875 -12.34375l4.5 0l0 17.0625l-3.46875 0l0 -4.625l0.328125 -7.109375l-3.421875 11.734375l-2.34375 0l-3.40625 -11.734375l0.3125 7.109375l0 4.625l-3.4375 0l0 -17.0625l4.5 0zm22.667969 11.0625l0 6.0l-3.4375 0l0 -17.0625l5.8125 0q2.53125 0 4.03125 1.578125q1.515625 1.5625 1.515625 4.078125q0 2.5 -1.5 3.953125q-1.484375 1.453125 -4.125 1.453125l-2.296875 0zm0 -2.875l2.375 0q0.984375 0 1.515625 -0.640625q0.546875 -0.640625 0.546875 -1.875q0 -1.28125 -0.5625 -2.03125q-0.546875 -0.765625 -1.46875 -0.765625l-2.40625 0l0 5.3125zm15.386719 2.640625l-1.71875 0l0 6.234375l-3.4375 0l0 -17.0625l5.484375 0q2.59375 0 4.0 1.34375q1.421875 1.34375 1.421875 3.8125q0 3.390625 -2.46875 4.75l2.984375 6.984375l0 0.171875l-3.703125 0l-2.5625 -6.234375zm-1.71875 -2.875l1.953125 0q1.03125 0 1.546875 -0.6875q0.515625 -0.6875 0.515625 -1.828125q0 -2.5625 -2.0 -2.5625l-2.015625 0l0 5.078125zm21.851562 2.109375q0 3.4375 -1.625 5.34375q-1.625 1.890625 -4.515625 1.890625q-2.859375 0 -4.5 -1.875q-1.640625 -1.890625 -1.671875 -5.28125l0 -2.90625q0 -3.515625 1.625 -5.484375q1.640625 -1.984375 4.53125 -1.984375q2.84375 0 4.484375 1.9375q1.640625 1.9375 1.671875 5.4375l0 2.921875zm-3.46875 -2.859375q0 -2.3125 -0.65625 -3.4375q-0.65625 -1.125 -2.03125 -1.125q-1.375 0 -2.03125 1.09375q-0.65625 1.078125 -0.671875 3.296875l0 3.03125q0 2.234375 0.65625 3.296875q0.671875 1.0625 2.0625 1.0625q1.359375 0 2.015625 -1.03125q0.65625 -1.046875 0.65625 -3.21875l0 -2.96875zm17.5 4.171875q-0.125 2.921875 -1.640625 4.421875q-1.515625 1.5 -4.265625 1.5q-2.890625 0 -4.4375 -1.90625q-1.53125 -1.90625 -1.53125 -5.4375l0 -2.859375q0 -3.515625 1.59375 -5.421875q1.59375 -1.90625 4.421875 -1.90625q2.796875 0 4.234375 1.5625q1.453125 1.546875 1.65625 4.46875l-3.46875 0q-0.046875 -1.796875 -0.5625 -2.484375q-0.5 -0.6875 -1.859375 -0.6875q-1.375 0 -1.953125 0.96875q-0.578125 0.96875 -0.609375 3.171875l0 3.234375q0 2.53125 0.5625 3.484375q0.578125 0.953125 1.953125 0.953125q1.359375 0 1.875 -0.65625q0.515625 -0.671875 0.59375 -2.40625l3.4375 0zm10.9375 -1.703125l-5.375 0l0 4.53125l6.359375 0l0 2.859375l-9.796875 0l0 -17.0625l9.765625 0l0 2.875l-6.328125 0l0 4.03125l5.375 0l0 2.765625zm10.167969 2.90625q0 -1.03125 -0.53125 -1.5625q-0.53125 -0.546875 -1.9375 -1.109375q-2.5625 -0.984375 -3.6875 -2.28125q-1.125 -1.3125 -1.125 -3.09375q0 -2.15625 1.515625 -3.453125q1.53125 -1.3125 3.890625 -1.3125q1.578125 0 2.796875 0.671875q1.234375 0.65625 1.890625 1.859375q0.671875 1.203125 0.671875 2.734375l-3.4375 0q0 -1.1875 -0.515625 -1.8125q-0.5 -0.625 -1.46875 -0.625q-0.890625 0 -1.40625 0.53125q-0.5 0.53125 -0.5 1.4375q0 0.703125 0.5625 1.265625q0.5625 0.5625 2.0 1.171875q2.484375 0.90625 3.609375 2.21875q1.140625 1.3125 1.140625 3.34375q0 2.21875 -1.421875 3.484375q-1.40625 1.25 -3.84375 1.25q-1.65625 0 -3.015625 -0.671875q-1.359375 -0.6875 -2.125 -1.953125q-0.765625 -1.265625 -0.765625 -2.984375l3.453125 0q0 1.46875 0.5625 2.140625q0.578125 0.671875 1.890625 0.671875q1.796875 0 1.796875 -1.921875zm12.9609375 0q0 -1.03125 -0.53125 -1.5625q-0.53125 -0.546875 -1.9375 -1.109375q-2.5625 -0.984375 -3.6875 -2.28125q-1.125 -1.3125 -1.125 -3.09375q0 -2.15625 1.515625 -3.453125q1.53125 -1.3125 3.890625 -1.3125q1.578125 0 2.796875 0.671875q1.234375 0.65625 1.890625 1.859375q0.671875 1.203125 0.671875 2.734375l-3.4375 0q0 -1.1875 -0.515625 -1.8125q-0.5 -0.625 -1.46875 -0.625q-0.890625 0 -1.40625 0.53125q-0.5 0.53125 -0.5 1.4375q0 0.703125 0.5625 1.265625q0.5625 0.5625 2.0 1.171875q2.484375 0.90625 3.609375 2.21875q1.140625 1.3125 1.140625 3.34375q0 2.21875 -1.421875 3.484375q-1.40625 1.25 -3.84375 1.25q-1.65625 0 -3.015625 -0.671875q-1.359375 -0.6875 -2.125 -1.953125q-0.765625 -1.265625 -0.765625 -2.984375l3.453125 0q0 1.46875 0.5625 2.140625q0.578125 0.671875 1.890625 0.671875q1.796875 0 1.796875 -1.921875z" fill-rule="nonzero"/><path fill="#000000" fill-opacity="0.0" d="m450.75937 -152.8484l426.4196 0l0 164.39914l-426.4196 0z" fill-rule="evenodd"/><path fill="#cccccc" d="m631.3442 -81.093216q0 -1.03125 -0.53125 -1.5625q-0.53125 -0.546875 -1.9375 -1.109375q-2.5625 -0.984375 -3.6875 -2.28125q-1.125 -1.3125 -1.125 -3.09375q0 -2.15625 1.515625 -3.453125q1.53125 -1.3125 3.890625 -1.3125q1.578125 0 2.796875 0.671875q1.234375 0.65625 1.890625 1.859375q0.671875 1.203125 0.671875 2.734375l-3.4375 0q0 -1.1875 -0.515625 -1.8125q-0.5 -0.625 -1.46875 -0.625q-0.890625 0 -1.40625 0.53125q-0.5 0.53125 -0.5 1.4375q0 0.703125 0.5625 1.265625q0.5625 0.5625 2.0 1.171875q2.484375 0.90625 3.609375 2.21875q1.140625 1.3125 1.140625 3.34375q0 2.21875 -1.421875 3.484375q-1.40625 1.25 -3.84375 1.25q-1.65625 0 -3.015625 -0.671875q-1.359375 -0.6875 -2.125 -1.953125q-0.765625 -1.265625 -0.765625 -2.984375l3.453125 0q0 1.46875 0.5625 2.140625q0.578125 0.671875 1.890625 0.671875q1.796875 0 1.796875 -1.921875zm13.8984375 0.984375l-4.703125 0l-0.90625 3.5l-3.640625 0l5.328125 -17.0625l3.15625 0l5.359375 17.0625l-3.671875 0l-0.921875 -3.5zm-3.953125 -2.859375l3.1875 0l-1.59375 -6.09375l-1.59375 6.09375zm14.644531 -10.703125l3.21875 12.34375l3.21875 -12.34375l4.5 0l0 17.0625l-3.46875 0l0 -4.625l0.328125 -7.109375l-3.421875 11.734375l-2.34375 0l-3.40625 -11.734375l0.3125 7.109375l0 4.625l-3.4375 0l0 -17.0625l4.5 0zm17.136719 11.0625l0 6.0l-3.4375 0l0 -17.0625l5.8125 0q2.53125 0 4.03125 1.578125q1.515625 1.5625 1.515625 4.078125q0 2.5 -1.5 3.953125q-1.484375 1.453125 -4.125 1.453125l-2.296875 0zm0 -2.875l2.375 0q0.984375 0 1.515625 -0.640625q0.546875 -0.640625 0.546875 -1.875q0 -1.28125 -0.5625 -2.03125q-0.546875 -0.765625 -1.46875 -0.765625l-2.40625 0l0 5.3125zm13.652344 6.015625l6.046875 0l0 2.859375l-9.484375 0l0 -17.0625l3.4375 0l0 14.203125zm16.859375 -4.53125l-5.375 0l0 4.53125l6.359375 0l0 2.859375l-9.796875 0l0 -17.0625l9.765625 0l0 2.875l-6.328125 0l0 4.03125l5.375 0l0 2.765625z" fill-rule="nonzero"/><path fill="#cccccc" d="m633.8305 -53.952587l1.625 -10.718754l3.40625 0l-3.03125 17.062504l-3.453125 0l-2.0 -10.0625l-1.96875 10.0625l-3.46875 0l-3.046875 -17.062504l3.4375 0l1.609375 10.703129l2.0 -10.703129l2.890625 0l2.0 10.718754zm10.4921875 6.34375l-3.4375 0l0 -17.062504l3.4375 0l0 17.062504zm14.8203125 0l-3.4375 0l-5.046875 -11.1875l0 11.1875l-3.4375 0l0 -17.062504l3.4375 0l5.0625 11.203129l0 -11.203129l3.421875 0l0 17.062504zm2.7734375 0l0 -17.062504l4.515625 0q2.984375 0 4.75 1.9062538q1.78125 1.890625 1.8125 5.1875l0 2.765625q0 3.375 -1.78125 5.296875q-1.765625 1.90625 -4.875 1.90625l-4.421875 0zm3.4375 -14.1875l0 11.328125l1.03125 0q1.734375 0 2.4375 -0.90625q0.703125 -0.90625 0.734375 -3.140625l0 -2.96875q0 -2.390625 -0.671875 -3.328125q-0.671875 -0.9375 -2.265625 -0.984375l-1.265625 0zm22.136719 7.1875q0 3.4375 -1.625 5.34375q-1.625 1.890625 -4.515625 1.890625q-2.859375 0 -4.5 -1.875q-1.640625 -1.890625 -1.671875 -5.28125l0 -2.90625q0 -3.515625 1.625 -5.484375q1.640625 -1.9843788 4.53125 -1.9843788q2.84375 0 4.484375 1.9375038q1.640625 1.9375 1.671875 5.4375l0 2.921875zm-3.46875 -2.859375q0 -2.3125 -0.65625 -3.4375q-0.65625 -1.125 -2.03125 -1.125q-1.375 0 -2.03125 1.09375q-0.65625 1.078125 -0.671875 3.296875l0 3.03125q0 2.234375 0.65625 3.296875q0.671875 1.0625 2.0625 1.0625q1.359375 0 2.015625 -1.03125q0.65625 -1.046875 0.65625 -3.21875l0 -2.96875zm17.015625 3.515625l1.625 -10.718754l3.40625 0l-3.03125 17.062504l-3.453125 0l-2.0 -10.0625l-1.96875 10.0625l-3.46875 0l-3.046875 -17.062504l3.4375 0l1.609375 10.703129l2.0 -10.703129l2.890625 0l2.0 10.718754z" fill-rule="nonzero"/><path fill="#000000" fill-opacity="0.0" d="m450.75937 1198.572l426.4196 0l0 164.39917l-426.4196 0z" fill-rule="evenodd"/><path fill="#cccccc" d="m609.0141 1269.1241q-0.125 2.921875 -1.640625 4.421875q-1.515625 1.5 -4.265625 1.5q-2.890625 0 -4.4375 -1.90625q-1.53125 -1.90625 -1.53125 -5.4375l0 -2.859375q0 -3.515625 1.59375 -5.421875q1.59375 -1.90625 4.421875 -1.90625q2.796875 0 4.234375 1.5625q1.453125 1.546875 1.65625 4.46875l-3.46875 0q-0.046875 -1.796875 -0.5625 -2.484375q-0.5 -0.6875 -1.859375 -0.6875q-1.375 0 -1.953125 0.96875q-0.578125 0.96875 -0.609375 3.171875l0 3.234375q0 2.53125 0.5625 3.484375q0.578125 0.953125 1.953125 0.953125q1.359375 0 1.875 -0.65625q0.515625 -0.671875 0.59375 -2.40625l3.4375 0zm10.265625 2.1875l-4.703125 0l-0.90625 3.5l-3.640625 0l5.328125 -17.0625l3.15625 0l5.359375 17.0625l-3.671875 0l-0.921875 -3.5zm-3.953125 -2.859375l3.1875 0l-1.59375 -6.09375l-1.59375 6.09375zm13.582031 3.5l6.046875 0l0 2.859375l-9.484375 0l0 -17.0625l3.4375 0l0 14.203125zm11.640625 2.859375l-3.4375 0l0 -17.0625l3.4375 0l0 17.0625zm2.8984375 0l0 -17.0625l5.265625 0q2.671875 0 4.0625 1.1875q1.390625 1.1875 1.390625 3.484375q0 1.296875 -0.578125 2.234375q-0.5625 0.9375 -1.5625 1.375q1.140625 0.328125 1.765625 1.328125q0.625 0.984375 0.625 2.4375q0 2.484375 -1.375 3.75q-1.359375 1.265625 -3.953125 1.265625l-5.640625 0zm3.4375 -7.421875l0 4.5625l2.203125 0q0.9375 0 1.40625 -0.578125q0.484375 -0.578125 0.484375 -1.625q0 -2.296875 -1.65625 -2.359375l-2.4375 0zm0 -2.5l1.796875 0q2.03125 0 2.03125 -2.109375q0 -1.15625 -0.46875 -1.65625q-0.46875 -0.5 -1.53125 -0.5l-1.828125 0l0 4.265625zm15.199219 3.6875l-1.71875 0l0 6.234375l-3.4375 0l0 -17.0625l5.484375 0q2.59375 0 4.0 1.34375q1.421875 1.34375 1.421875 3.8125q0 3.390625 -2.46875 4.75l2.984375 6.984375l0 0.171875l-3.703125 0l-2.5625 -6.234375zm-1.71875 -2.875l1.953125 0q1.03125 0 1.546875 -0.6875q0.515625 -0.6875 0.515625 -1.828125q0 -2.5625 -2.0 -2.5625l-2.015625 0l0 5.078125zm17.976562 5.609375l-4.703125 0l-0.90625 3.5l-3.640625 0l5.328125 -17.0625l3.15625 0l5.359375 17.0625l-3.671875 0l-0.921875 -3.5zm-3.953125 -2.859375l3.1875 0l-1.59375 -6.09375l-1.59375 6.09375zm21.191406 -7.828125l-4.21875 0l0 14.1875l-3.453125 0l0 -14.1875l-4.15625 0l0 -2.875l11.828125 0l0 2.875zm5.578125 14.1875l-3.4375 0l0 -17.0625l3.4375 0l0 17.0625zm14.914001 -7.0q0 3.4375 -1.625 5.34375q-1.625 1.890625 -4.515625 1.890625q-2.859375 0 -4.499939 -1.875q-1.640625 -1.890625 -1.671875 -5.28125l0 -2.90625q0 -3.515625 1.625 -5.484375q1.640564 -1.984375 4.531189 -1.984375q2.84375 0 4.484375 1.9375q1.640625 1.9375 1.671875 5.4375l0 2.921875zm-3.46875 -2.859375q0 -2.3125 -0.65625 -3.4375q-0.65625 -1.125 -2.03125 -1.125q-1.375 0 -2.03125 1.09375q-0.65625 1.078125 -0.671875 3.296875l0 3.03125q0 2.234375 0.65625 3.296875q0.671875 1.0625 2.0625 1.0625q1.359375 0 2.015625 -1.03125q0.65625 -1.046875 0.65625 -3.21875l0 -2.96875zm17.859375 9.859375l-3.4375 0l-5.046875 -11.1875l0 11.1875l-3.4375 0l0 -17.0625l3.4375 0l5.0625 11.203125l0 -11.203125l3.421875 0l0 17.0625z" fill-rule="nonzero"/><path fill="#cccccc" d="m637.7172 1303.8116l0 -17.0625l4.515625 0q2.984375 0 4.75 1.90625q1.78125 1.890625 1.8125 5.1875l0 2.765625q0 3.375 -1.78125 5.296875q-1.765625 1.90625 -4.875 1.90625l-4.421875 0zm3.4375 -14.1875l0 11.328125l1.03125 0q1.734375 0 2.4375 -0.90625q0.703125 -0.90625 0.734375 -3.140625l0 -2.96875q0 -2.390625 -0.671875 -3.328125q-0.671875 -0.9375 -2.265625 -0.984375l-1.265625 0zm18.261719 10.6875l-4.703125 0l-0.90625 3.5l-3.640625 0l5.328125 -17.0625l3.15625 0l5.359375 17.0625l-3.671875 0l-0.921875 -3.5zm-3.953125 -2.859375l3.1875 0l-1.59375 -6.09375l-1.59375 6.09375zm21.191406 -7.828125l-4.21875 0l0 14.1875l-3.453125 0l0 -14.1875l-4.15625 0l0 -2.875l11.828125 0l0 2.875zm10.125 10.6875l-4.703125 0l-0.90625 3.5l-3.640625 0l5.328125 -17.0625l3.15625 0l5.359375 17.0625l-3.671875 0l-0.921875 -3.5zm-3.953125 -2.859375l3.1875 0l-1.59375 -6.09375l-1.59375 6.09375z" fill-rule="nonzero"/><path fill="#000000" fill-opacity="0.0" d="m663.9692 11.550732c0 29.057877 -46.34021 43.592335 -92.68042 58.115757c-46.34015 14.523422 -92.68036 29.035805 -92.68036 58.0716" fill-rule="evenodd"/><path stroke="#bf9000" stroke-width="4.0" stroke-linejoin="round" stroke-linecap="butt" d="m663.9692 11.550732c0 29.057877 -46.34021 43.592335 -92.68042 58.115757c-46.34015 14.523422 -92.68036 29.035805 -92.68036 58.0716" fill-rule="evenodd"/><path fill="#000000" fill-opacity="0.0" d="m-344.36047 361.42914c95.22574 0 190.45146 42.110443 190.45146 84.22089" fill-rule="evenodd"/><path stroke="#38761d" stroke-width="4.0" stroke-linejoin="round" stroke-linecap="butt" d="m-344.36047 361.42914c95.22574 0 190.45146 42.110443 190.45146 84.22089" fill-rule="evenodd"/><path fill="#000000" fill-opacity="0.0" d="m-456.6487 621.4907c58.58029 0 87.87045 -2.6576538 117.16058 -5.3153076c29.290161 -2.6575928 58.58029 -5.3152466 117.16058 -5.3152466" fill-rule="evenodd"/><path stroke="#38761d" stroke-width="4.0" stroke-linejoin="round" stroke-linecap="butt" d="m-456.6487 621.4907c58.58029 0 87.87045 -2.6576538 117.16058 -5.3153076c29.290161 -2.6575928 58.58029 -5.3152466 117.16058 -5.3152466" fill-rule="evenodd"/><path fill="#000000" fill-opacity="0.0" d="m-310.67212 881.55225c78.38156 0 156.7631 -52.740967 156.7631 -105.48193" fill-rule="evenodd"/><path stroke="#38761d" stroke-width="4.0" stroke-linejoin="round" stroke-linecap="butt" d="m-310.67212 881.55225c78.38156 0 156.7631 -52.740967 156.7631 -105.48193" fill-rule="evenodd"/><path fill="#000000" fill-opacity="0.0" d="m663.9692 1198.572c0 -20.843018 -51.599365 -31.261475 -103.19867 -41.686157c-51.599304 -10.424683 -103.19861 -20.85559 -103.19861 -41.71118" fill-rule="evenodd"/><path stroke="#674ea7" stroke-width="4.0" stroke-linejoin="round" stroke-linecap="butt" d="m663.9692 1198.572c0 -20.843018 -51.599365 -31.261475 -103.19867 -41.686157c-51.599304 -10.424683 -103.19861 -20.85559 -103.19861 -41.71118" fill-rule="evenodd"/><path fill="#000000" fill-opacity="0.0" d="m231.67323 240.3202l190.3307 0l0 78.83464l-190.3307 0z" fill-rule="evenodd"/><path fill="#bf9000" d="m316.04562 271.65253l-0.375 0.46875q-1.609375 1.890625 -4.734375 1.890625q-2.765625 0 -4.34375 -1.828125q-1.578125 -1.84375 -1.609375 -5.1875l0 -3.359375q0 -3.578125 1.4375 -5.359375q1.4375 -1.796875 4.296875 -1.796875q2.4375 0 3.8125 1.359375q1.375 1.359375 1.515625 3.875l-2.140625 0q-0.125 -1.59375 -0.890625 -2.484375q-0.75 -0.90625 -2.28125 -0.90625q-1.84375 0 -2.703125 1.203125q-0.859375 1.203125 -0.890625 3.84375l0 3.484375q0 2.578125 0.984375 3.953125q0.984375 1.375 2.828125 1.375q1.734375 0 2.640625 -0.84375l0.3125 -0.296875l0 -3.9375l-3.125 0l0 -1.828125l5.265625 0l0 6.375zm8.6640625 -4.78125l-3.0 0l0 6.90625l-2.15625 0l0 -17.0625l4.78125 0q2.5 0 3.78125 1.3125q1.296875 1.296875 1.296875 3.8125q0 1.59375 -0.703125 2.765625q-0.6875 1.171875 -1.96875 1.78125l3.3125 7.25l0 0.140625l-2.3125 0l-3.03125 -6.90625zm-3.0 -1.84375l2.59375 0q1.359375 0 2.15625 -0.859375q0.796875 -0.875 0.796875 -2.328125q0 -3.28125 -2.96875 -3.28125l-2.578125 0l0 6.46875zm12.816406 8.75l-2.140625 0l0 -17.0625l2.140625 0l0 17.0625zm3.765625 0l0 -17.0625l4.0625 0q2.984375 0 4.640625 1.875q1.65625 1.859375 1.65625 5.25l0 2.859375q0 3.390625 -1.6875 5.234375q-1.671875 1.84375 -4.859375 1.84375l-3.8125 0zm2.140625 -15.21875l0 13.375l1.71875 0q2.265625 0 3.3125 -1.296875q1.046875 -1.296875 1.0625 -3.828125l0 -3.03125q0 -2.6875 -1.046875 -3.953125q-1.03125 -1.265625 -3.125 -1.265625l-1.921875 0z" fill-rule="nonzero"/><path fill="#bf9000" d="m314.69016 298.46503q0 -1.28125 -0.703125 -1.953125q-0.6875 -0.6875 -2.5 -1.328125q-1.796875 -0.640625 -2.75 -1.34375q-0.953125 -0.71875 -1.4375 -1.625q-0.46875 -0.90625 -0.46875 -2.078125q0 -2.03125 1.359375 -3.34375q1.359375 -1.3125 3.546875 -1.3125q1.5 0 2.671875 0.671875q1.171875 0.671875 1.796875 1.875q0.640625 1.1875 0.640625 2.625l-2.15625 0q0 -1.59375 -0.765625 -2.453125q-0.765625 -0.875 -2.1875 -0.875q-1.296875 0 -2.015625 0.734375q-0.71875 0.71875 -0.71875 2.03125q0 1.078125 0.765625 1.8125q0.78125 0.71875 2.40625 1.296875q2.515625 0.828125 3.59375 2.046875q1.09375 1.21875 1.09375 3.1875q0 2.078125 -1.359375 3.328125q-1.34375 1.25 -3.65625 1.25q-1.5 0 -2.765625 -0.640625q-1.25 -0.65625 -1.96875 -1.828125q-0.71875 -1.1875 -0.71875 -2.71875l2.15625 0q0 1.59375 0.875 2.46875q0.890625 0.875 2.421875 0.875q1.40625 0 2.125 -0.71875q0.71875 -0.734375 0.71875 -1.984375zm7.2148438 4.3125l-2.140625 0l0 -17.0625l2.140625 0l0 17.0625zm5.375 -1.84375l8.09375 0l0 1.84375l-10.484375 0l0 -1.6875l7.78125 -13.53125l-7.6875 0l0 -1.84375l10.078125 0l0 1.65625l-7.78125 13.5625zm19.101562 -6.046875l-6.03125 0l0 6.046875l7.03125 0l0 1.84375l-9.171875 0l0 -17.0625l9.0625 0l0 1.84375l-6.921875 0l0 5.484375l6.03125 0l0 1.84375z" fill-rule="nonzero"/><path fill="#000000" fill-opacity="0.0" d="m483.80054 469.72702l190.33069 0l0 78.83469l-190.33069 0z" fill-rule="evenodd"/><path fill="#bf9000" d="m561.4405 495.6531l-5.765625 0l0 7.53125l-2.140625 0l0 -17.0625l8.875 0l0 1.84375l-6.734375 0l0 5.84375l5.765625 0l0 1.84375zm5.859375 7.53125l-2.140625 0l0 -17.0625l2.140625 0l0 17.0625zm11.9375 -7.890625l-6.03125 0l0 6.046875l7.03125 0l0 1.84375l-9.171875 0l0 -17.0625l9.0625 0l0 1.84375l-6.921875 0l0 5.484375l6.03125 0l0 1.84375zm5.9023438 6.046875l6.6875 0l0 1.84375l-8.84375 0l0 -17.0625l2.15625 0l0 15.21875zm9.246094 1.84375l0 -17.0625l4.0625 0q2.984375 0 4.640625 1.875q1.65625 1.859375 1.65625 5.25l0 2.859375q0 3.390625 -1.6875 5.234375q-1.671875 1.84375 -4.859375 1.84375l-3.8125 0zm2.140625 -15.21875l0 13.375l1.71875 0q2.265625 0 3.3125 -1.296875q1.046875 -1.296875 1.0625 -3.828125l0 -3.03125q0 -2.6875 -1.046875 -3.953125q-1.03125 -1.265625 -3.125 -1.265625l-1.921875 0z" fill-rule="nonzero"/><path fill="#bf9000" d="m548.26666 527.8718q0 -1.28125 -0.703125 -1.953125q-0.6875 -0.6875 -2.5 -1.328125q-1.796875 -0.640625 -2.75 -1.34375q-0.953125 -0.71875 -1.4375 -1.625q-0.46875 -0.90625 -0.46875 -2.078125q0 -2.03125 1.359375 -3.34375q1.359375 -1.3125 3.546875 -1.3125q1.5 0 2.671875 0.671875q1.171875 0.671875 1.796875 1.875q0.640625 1.1875 0.640625 2.625l-2.15625 0q0 -1.59375 -0.765625 -2.453125q-0.765625 -0.875 -2.1875 -0.875q-1.296875 0 -2.015625 0.734375q-0.71875 0.71875 -0.71875 2.03125q0 1.078125 0.765625 1.8125q0.78125 0.71875 2.40625 1.296875q2.515625 0.828125 3.59375 2.046875q1.09375 1.21875 1.09375 3.1875q0 2.078125 -1.359375 3.328125q-1.34375 1.25 -3.65625 1.25q-1.5 0 -2.765625 -0.640625q-1.25 -0.65625 -1.96875 -1.828125q-0.71875 -1.1875 -0.71875 -2.71875l2.15625 0q0 1.59375 0.875 2.46875q0.890625 0.875 2.421875 0.875q1.40625 0 2.125 -0.71875q0.71875 -0.734375 0.71875 -1.984375zm9.417969 -4.1875l3.5 -8.5625l2.421875 0l-4.859375 10.703125l0 6.359375l-2.140625 0l0 -6.359375l-4.84375 -10.703125l2.4375 0l3.484375 8.5625zm15.6015625 4.1875q0 -1.28125 -0.703125 -1.953125q-0.6875 -0.6875 -2.5 -1.328125q-1.796875 -0.640625 -2.75 -1.34375q-0.953125 -0.71875 -1.4375 -1.625q-0.46875 -0.90625 -0.46875 -2.078125q0 -2.03125 1.359375 -3.34375q1.359375 -1.3125 3.546875 -1.3125q1.5 0 2.671875 0.671875q1.171875 0.671875 1.796875 1.875q0.640625 1.1875 0.640625 2.625l-2.15625 0q0 -1.59375 -0.765625 -2.453125q-0.765625 -0.875 -2.1875 -0.875q-1.296875 0 -2.015625 0.734375q-0.71875 0.71875 -0.71875 2.03125q0 1.078125 0.765625 1.8125q0.78125 0.71875 2.40625 1.296875q2.515625 0.828125 3.59375 2.046875q1.09375 1.21875 1.09375 3.1875q0 2.078125 -1.359375 3.328125q-1.34375 1.25 -3.65625 1.25q-1.5 0 -2.765625 -0.640625q-1.25 -0.65625 -1.96875 -1.828125q-0.71875 -1.1875 -0.71875 -2.71875l2.15625 0q0 1.59375 0.875 2.46875q0.890625 0.875 2.421875 0.875q1.40625 0 2.125 -0.71875q0.71875 -0.734375 0.71875 -1.984375zm14.949219 -10.90625l-4.484375 0l0 15.21875l-2.140625 0l0 -15.21875l-4.484375 0l0 -1.84375l11.109375 0l0 1.84375zm10.6953125 7.328125l-6.03125 0l0 6.046875l7.03125 0l0 1.84375l-9.171875 0l0 -17.0625l9.0625 0l0 1.84375l-6.921875 0l0 5.484375l6.03125 0l0 1.84375zm6.5117188 -9.171875l4.453125 13.921875l4.453125 -13.921875l2.765625 0l0 17.0625l-2.140625 0l0 -6.640625l0.1875 -6.65625l-4.453125 13.296875l-1.640625 0l-4.453125 -13.25l0.203125 6.609375l0 6.640625l-2.140625 0l0 -17.0625l2.765625 0z" fill-rule="nonzero"/><path fill="#000000" fill-opacity="0.0" d="m471.30447 188.68767l190.33072 0l0 78.83464l-190.33072 0z" fill-rule="evenodd"/><path fill="#bf9000" d="m535.26086 217.83249q0 -1.28125 -0.703125 -1.953125q-0.6875 -0.6875 -2.5 -1.328125q-1.796875 -0.640625 -2.75 -1.34375q-0.953125 -0.71875 -1.4375 -1.625q-0.46875 -0.90625 -0.46875 -2.078125q0 -2.03125 1.359375 -3.34375q1.359375 -1.3125 3.546875 -1.3125q1.5 0 2.671875 0.671875q1.171875 0.671875 1.796875 1.875q0.640625 1.1875 0.640625 2.625l-2.15625 0q0 -1.59375 -0.765625 -2.453125q-0.765625 -0.875 -2.1875 -0.875q-1.296875 0 -2.015625 0.734375q-0.71875 0.71875 -0.71875 2.03125q0 1.078125 0.765625 1.8125q0.78125 0.71875 2.40625 1.296875q2.515625 0.828125 3.59375 2.046875q1.09375 1.21875 1.09375 3.1875q0 2.078125 -1.359375 3.328125q-1.34375 1.25 -3.65625 1.25q-1.5 0 -2.765625 -0.640625q-1.25 -0.65625 -1.96875 -1.828125q-0.71875 -1.1875 -0.71875 -2.71875l2.15625 0q0 1.59375 0.875 2.46875q0.890625 0.875 2.421875 0.875q1.40625 0 2.125 -0.71875q0.71875 -0.734375 0.71875 -1.984375zm12.933594 -0.140625l-5.765625 0l-1.328125 4.453125l-2.203125 0l5.5 -17.0625l1.84375 0l5.5 17.0625l-2.203125 0l-1.34375 -4.453125zm-5.203125 -1.859375l4.65625 0l-2.328125 -7.75l-2.328125 7.75zm13.84375 -10.75l4.453125 13.921875l4.453125 -13.921875l2.765625 0l0 17.0625l-2.140625 0l0 -6.640625l0.1875 -6.65625l-4.453125 13.296875l-1.640625 0l-4.453125 -13.25l0.203125 6.609375l0 6.640625l-2.140625 0l0 -17.0625l2.765625 0zm17.503906 10.375l0 6.6875l-2.140625 0l0 -17.0625l5.4375 0q2.375 0 3.734375 1.421875q1.359375 1.421875 1.359375 3.796875q0 2.453125 -1.296875 3.78125q-1.296875 1.328125 -3.640625 1.375l-3.453125 0zm0 -1.828125l3.296875 0q1.421875 0 2.1875 -0.859375q0.765625 -0.859375 0.765625 -2.453125q0 -1.53125 -0.796875 -2.453125q-0.78125 -0.9375 -2.140625 -0.9375l-3.3125 0l0 6.703125zm13.316406 6.671875l6.6875 0l0 1.84375l-8.84375 0l0 -17.0625l2.15625 0l0 15.21875zm17.417969 -6.046875l-6.03125 0l0 6.046875l7.03125 0l0 1.84375l-9.171875 0l0 -17.0625l9.0625 0l0 1.84375l-6.921875 0l0 5.484375l6.03125 0l0 1.84375z" fill-rule="nonzero"/><path fill="#bf9000" d="m554.3214 246.83249q0 -1.28125 -0.703125 -1.953125q-0.6875 -0.6875 -2.5 -1.328125q-1.796875 -0.640625 -2.75 -1.34375q-0.953125 -0.71875 -1.4375 -1.625q-0.46875 -0.90625 -0.46875 -2.078125q0 -2.03125 1.359375 -3.34375q1.359375 -1.3125 3.546875 -1.3125q1.5 0 2.671875 0.671875q1.171875 0.671875 1.796875 1.875q0.640625 1.1875 0.640625 2.625l-2.15625 0q0 -1.59375 -0.765625 -2.453125q-0.765625 -0.875 -2.1875 -0.875q-1.296875 0 -2.015625 0.734375q-0.71875 0.71875 -0.71875 2.03125q0 1.078125 0.765625 1.8125q0.78125 0.71875 2.40625 1.296875q2.515625 0.828125 3.59375 2.046875q1.09375 1.21875 1.09375 3.1875q0 2.078125 -1.359375 3.328125q-1.34375 1.25 -3.65625 1.25q-1.5 0 -2.765625 -0.640625q-1.25 -0.65625 -1.96875 -1.828125q-0.71875 -1.1875 -0.71875 -2.71875l2.15625 0q0 1.59375 0.875 2.46875q0.890625 0.875 2.421875 0.875q1.40625 0 2.125 -0.71875q0.71875 -0.734375 0.71875 -1.984375zm7.2148438 4.3125l-2.140625 0l0 -17.0625l2.140625 0l0 17.0625zm5.375 -1.84375l8.09375 0l0 1.84375l-10.484375 0l0 -1.6875l7.78125 -13.53125l-7.6875 0l0 -1.84375l10.078125 0l0 1.65625l-7.78125 13.5625zm19.101562 -6.046875l-6.03125 0l0 6.046875l7.03125 0l0 1.84375l-9.171875 0l0 -17.0625l9.0625 0l0 1.84375l-6.921875 0l0 5.484375l6.03125 0l0 1.84375z" fill-rule="nonzero"/><path fill="#000000" fill-opacity="0.0" d="m560.3622 267.5223l190.33075 0l0 78.834656l-190.33075 0z" fill-rule="evenodd"/><path fill="#bf9000" d="m625.9182 311.16714q0 -1.28125 -0.703125 -1.953125q-0.6875 -0.6875 -2.5 -1.328125q-1.796875 -0.640625 -2.75 -1.34375q-0.953125 -0.71875 -1.4375 -1.625q-0.46875 -0.90625 -0.46875 -2.078125q0 -2.03125 1.359375 -3.34375q1.359375 -1.3125 3.546875 -1.3125q1.5 0 2.671875 0.671875q1.171875 0.671875 1.796875 1.875q0.640625 1.1875 0.640625 2.625l-2.15625 0q0 -1.59375 -0.765625 -2.453125q-0.765625 -0.875 -2.1875 -0.875q-1.296875 0 -2.015625 0.734375q-0.71875 0.71875 -0.71875 2.03125q0 1.078125 0.765625 1.8125q0.78125 0.71875 2.40625 1.296875q2.515625 0.828125 3.59375 2.046875q1.09375 1.21875 1.09375 3.1875q0 2.078125 -1.359375 3.328125q-1.34375 1.25 -3.65625 1.25q-1.5 0 -2.765625 -0.640625q-1.25 -0.65625 -1.96875 -1.828125q-0.71875 -1.1875 -0.71875 -2.71875l2.15625 0q0 1.59375 0.875 2.46875q0.890625 0.875 2.421875 0.875q1.40625 0 2.125 -0.71875q0.71875 -0.734375 0.71875 -1.984375zm14.949219 -10.90625l-4.484375 0l0 15.21875l-2.140625 0l0 -15.21875l-4.484375 0l0 -1.84375l11.109375 0l0 1.84375zm7.6796875 8.3125l-3.0 0l0 6.90625l-2.15625 0l0 -17.0625l4.78125 0q2.5 0 3.78125 1.3125q1.296875 1.296875 1.296875 3.8125q0 1.59375 -0.703125 2.765625q-0.6875 1.171875 -1.96875 1.78125l3.3125 7.25l0 0.140625l-2.3125 0l-3.03125 -6.90625zm-3.0 -1.84375l2.59375 0q1.359375 0 2.15625 -0.859375q0.796875 -0.875 0.796875 -2.328125q0 -3.28125 -2.96875 -3.28125l-2.578125 0l0 6.46875zm18.535156 4.296875l-5.765625 0l-1.328125 4.453125l-2.203125 0l5.5 -17.0625l1.84375 0l5.5 17.0625l-2.203125 0l-1.34375 -4.453125zm-5.203125 -1.859375l4.65625 0l-2.328125 -7.75l-2.328125 7.75zm21.046875 -8.90625l-4.484375 0l0 15.21875l-2.140625 0l0 -15.21875l-4.484375 0l0 -1.84375l11.109375 0l0 1.84375zm10.4765625 10.765625l-5.765625 0l-1.328125 4.453125l-2.203125 0l5.5 -17.0625l1.84375 0l5.5 17.0625l-2.203125 0l-1.34375 -4.453125zm-5.203125 -1.859375l4.65625 0l-2.328125 -7.75l-2.328125 7.75z" fill-rule="nonzero"/><path fill="#000000" fill-opacity="0.0" d="m350.8058 218.2021l190.33069 0l0 78.83464l-190.33069 0z" fill-rule="evenodd"/><path fill="#bf9000" d="m406.5141 247.2063l-5.765625 0l-1.328125 4.453125l-2.203125 0l5.5 -17.0625l1.84375 0l5.5 17.0625l-2.203125 0l-1.34375 -4.453125zm-5.203125 -1.859375l4.65625 0l-2.328125 -7.75l-2.328125 7.75zm11.078125 6.3125l0 -17.0625l4.0625 0q2.984375 0 4.640625 1.875q1.65625 1.859375 1.65625 5.25l0 2.859375q0 3.390625 -1.6875 5.234375q-1.671875 1.84375 -4.859375 1.84375l-3.8125 0zm2.140625 -15.21875l0 13.375l1.71875 0q2.265625 0 3.3125 -1.296875q1.046875 -1.296875 1.0625 -3.828125l0 -3.03125q0 -2.6875 -1.046875 -3.953125q-1.03125 -1.265625 -3.125 -1.265625l-1.921875 0zm19.511719 10.765625l-5.765625 0l-1.328125 4.453125l-2.203125 0l5.5 -17.0625l1.84375 0l5.5 17.0625l-2.203125 0l-1.34375 -4.453125zm-5.203125 -1.859375l4.65625 0l-2.328125 -7.75l-2.328125 7.75zm13.21875 -0.375l0 6.6875l-2.140625 0l0 -17.0625l5.4375 0q2.375 0 3.734375 1.421875q1.359375 1.421875 1.359375 3.796875q0 2.453125 -1.296875 3.78125q-1.296875 1.328125 -3.640625 1.375l-3.453125 0zm0 -1.828125l3.296875 0q1.421875 0 2.1875 -0.859375q0.765625 -0.859375 0.765625 -2.453125q0 -1.53125 -0.796875 -2.453125q-0.78125 -0.9375 -2.140625 -0.9375l-3.3125 0l0 6.703125zm21.128906 -6.703125l-4.484375 0l0 15.21875l-2.140625 0l0 -15.21875l-4.484375 0l0 -1.84375l11.109375 0l0 1.84375zm4.7578125 15.21875l-2.140625 0l0 -17.0625l2.140625 0l0 17.0625zm8.640625 -3.296875l3.90625 -13.765625l2.34375 0l-5.296875 17.0625l-1.875 0l-5.296875 -17.0625l2.34375 0l3.875 13.765625zm16.738281 -4.59375l-6.03125 0l0 6.046875l7.03125 0l0 1.84375l-9.171875 0l0 -17.0625l9.0625 0l0 1.84375l-6.921875 0l0 5.484375l6.03125 0l0 1.84375z" fill-rule="nonzero"/><path fill="#bf9000" d="m413.85785 275.23755q-0.140625 2.75 -1.546875 4.203125q-1.40625 1.453125 -3.953125 1.453125q-2.5625 0 -4.078125 -1.953125q-1.515625 -1.953125 -1.515625 -5.296875l0 -3.09375q0 -3.328125 1.546875 -5.25q1.5625 -1.9375 4.25 -1.9375q2.46875 0 3.8125 1.484375q1.359375 1.484375 1.484375 4.234375l-2.171875 0q-0.140625 -2.09375 -0.890625 -2.984375q-0.734375 -0.890625 -2.234375 -0.890625q-1.75 0 -2.6875 1.375q-0.9375 1.359375 -0.9375 4.0l0 3.125q0 2.59375 0.875 3.984375q0.875 1.375 2.546875 1.375q1.671875 0 2.40625 -0.828125q0.75 -0.84375 0.921875 -3.0l2.171875 0zm8.058594 -1.484375l-3.0 0l0 6.90625l-2.15625 0l0 -17.0625l4.78125 0q2.5 0 3.78125 1.3125q1.296875 1.296875 1.296875 3.8125q0 1.59375 -0.703125 2.765625q-0.6875 1.171875 -1.96875 1.78125l3.3125 7.25l0 0.140625l-2.3125 0l-3.03125 -6.90625zm-3.0 -1.84375l2.59375 0q1.359375 0 2.15625 -0.859375q0.796875 -0.875 0.796875 -2.328125q0 -3.28125 -2.96875 -3.28125l-2.578125 0l0 6.46875zm12.816406 8.75l-2.140625 0l0 -17.0625l2.140625 0l0 17.0625zm13.734375 -15.21875l-4.484375 0l0 15.21875l-2.140625 0l0 -15.21875l-4.484375 0l0 -1.84375l11.109375 0l0 1.84375zm10.6953125 7.328125l-6.03125 0l0 6.046875l7.03125 0l0 1.84375l-9.171875 0l0 -17.0625l9.0625 0l0 1.84375l-6.921875 0l0 5.484375l6.03125 0l0 1.84375zm8.902344 0.984375l-3.0 0l0 6.90625l-2.15625 0l0 -17.0625l4.78125 0q2.5 0 3.78125 1.3125q1.296875 1.296875 1.296875 3.8125q0 1.59375 -0.703125 2.765625q-0.6875 1.171875 -1.96875 1.78125l3.3125 7.25l0 0.140625l-2.3125 0l-3.03125 -6.90625zm-3.0 -1.84375l2.59375 0q1.359375 0 2.15625 -0.859375q0.796875 -0.875 0.796875 -2.328125q0 -3.28125 -2.96875 -3.28125l-2.578125 0l0 6.46875zm12.816406 8.75l-2.140625 0l0 -17.0625l2.140625 0l0 17.0625zm11.71875 -4.453125l-5.765625 0l-1.328125 4.453125l-2.203125 0l5.5 -17.0625l1.84375 0l5.5 17.0625l-2.203125 0l-1.34375 -4.453125zm-5.203125 -1.859375l4.65625 0l-2.328125 -7.75l-2.328125 7.75z" fill-rule="nonzero"/><path fill="#000000" fill-opacity="0.0" d="m280.20996 418.3701l203.59055 0l0 78.834625l-203.59055 0z" fill-rule="evenodd"/><path fill="#bf9000" d="m342.54822 447.37427l-5.765625 0l-1.328125 4.453125l-2.203125 0l5.5 -17.0625l1.84375 0l5.5 17.0625l-2.203125 0l-1.34375 -4.453125zm-5.203125 -1.859375l4.65625 0l-2.328125 -7.75l-2.328125 7.75zm11.078125 6.3125l0 -17.0625l4.0625 0q2.984375 0 4.640625 1.875q1.65625 1.859375 1.65625 5.25l0 2.859375q0 3.390625 -1.6875 5.234375q-1.671875 1.84375 -4.859375 1.84375l-3.8125 0zm2.140625 -15.21875l0 13.375l1.71875 0q2.265625 0 3.3125 -1.296875q1.046875 -1.296875 1.0625 -3.828125l0 -3.03125q0 -2.6875 -1.046875 -3.953125q-1.03125 -1.265625 -3.125 -1.265625l-1.921875 0zm19.511719 10.765625l-5.765625 0l-1.328125 4.453125l-2.203125 0l5.5 -17.0625l1.84375 0l5.5 17.0625l-2.203125 0l-1.34375 -4.453125zm-5.203125 -1.859375l4.65625 0l-2.328125 -7.75l-2.328125 7.75zm13.21875 -0.375l0 6.6875l-2.140625 0l0 -17.0625l5.4375 0q2.375 0 3.734375 1.421875q1.359375 1.421875 1.359375 3.796875q0 2.453125 -1.296875 3.78125q-1.296875 1.328125 -3.640625 1.375l-3.453125 0zm0 -1.828125l3.296875 0q1.421875 0 2.1875 -0.859375q0.765625 -0.859375 0.765625 -2.453125q0 -1.53125 -0.796875 -2.453125q-0.78125 -0.9375 -2.140625 -0.9375l-3.3125 0l0 6.703125zm21.128906 -6.703125l-4.484375 0l0 15.21875l-2.140625 0l0 -15.21875l-4.484375 0l0 -1.84375l11.109375 0l0 1.84375zm4.7578125 15.21875l-2.140625 0l0 -17.0625l2.140625 0l0 17.0625zm8.640625 -3.296875l3.90625 -13.765625l2.34375 0l-5.296875 17.0625l-1.875 0l-5.296875 -17.0625l2.34375 0l3.875 13.765625zm16.738281 -4.59375l-6.03125 0l0 6.046875l7.03125 0l0 1.84375l-9.171875 0l0 -17.0625l9.0625 0l0 1.84375l-6.921875 0l0 5.484375l6.03125 0l0 1.84375z" fill-rule="nonzero"/><path fill="#bf9000" d="m308.50525 480.8274l-2.15625 0l-6.828125 -13.15625l0 13.15625l-2.15625 0l0 -17.0625l2.15625 0l6.859375 13.203125l0 -13.203125l2.125 0l0 17.0625zm11.890625 -7.890625l-6.03125 0l0 6.046875l7.03125 0l0 1.84375l-9.171875 0l0 -17.0625l9.0625 0l0 1.84375l-6.921875 0l0 5.484375l6.03125 0l0 1.84375zm5.9804688 7.890625l-2.140625 0l0 -17.0625l2.140625 0l0 17.0625zm14.4375 -2.125l-0.375 0.46875q-1.609375 1.890625 -4.734375 1.890625q-2.765625 0 -4.34375 -1.828125q-1.578125 -1.84375 -1.609375 -5.1875l0 -3.359375q0 -3.578125 1.4375 -5.359375q1.4375 -1.796875 4.296875 -1.796875q2.4375 0 3.8125 1.359375q1.375 1.359375 1.515625 3.875l-2.140625 0q-0.125 -1.59375 -0.890625 -2.484375q-0.75 -0.90625 -2.28125 -0.90625q-1.84375 0 -2.703125 1.203125q-0.859375 1.203125 -0.890625 3.84375l0 3.484375q0 2.578125 0.984375 3.953125q0.984375 1.375 2.828125 1.375q1.734375 0 2.640625 -0.84375l0.3125 -0.296875l0 -3.9375l-3.125 0l0 -1.828125l5.265625 0l0 6.375zm14.6796875 2.125l-2.15625 0l0 -7.890625l-6.875 0l0 7.890625l-2.140625 0l0 -17.0625l2.140625 0l0 7.328125l6.875 0l0 -7.328125l2.15625 0l0 17.0625zm3.7109375 0l0 -17.0625l4.859375 0q2.328125 0 3.5 1.140625q1.1875 1.125 1.1875 3.40625q0 1.1875 -0.59375 2.109375q-0.59375 0.90625 -1.625 1.421875q1.171875 0.34375 1.859375 1.4375q0.6875 1.09375 0.6875 2.625q0 2.296875 -1.265625 3.609375q-1.25 1.3125 -3.578125 1.3125l-5.03125 0zm2.140625 -7.984375l0 6.140625l2.9375 0q1.21875 0 1.921875 -0.796875q0.71875 -0.8125 0.71875 -2.265625q0 -3.078125 -2.59375 -3.078125l-2.984375 0zm0 -1.796875l2.75 0q1.125 0 1.796875 -0.75q0.6875 -0.75 0.6875 -2.0q0 -1.40625 -0.625 -2.046875q-0.609375 -0.640625 -1.890625 -0.640625l-2.71875 0l0 5.4375zm22.042969 2.75q0 3.484375 -1.484375 5.375q-1.484375 1.890625 -4.234375 1.890625q-2.640625 0 -4.171875 -1.828125q-1.515625 -1.84375 -1.578125 -5.1875l0 -3.21875q0 -3.421875 1.5 -5.359375q1.515625 -1.9375 4.234375 -1.9375q2.6875 0 4.1875 1.859375q1.515625 1.859375 1.546875 5.296875l0 3.109375zm-2.140625 -2.984375q0 -2.71875 -0.890625 -4.03125q-0.875 -1.3125 -2.703125 -1.3125q-1.78125 0 -2.6875 1.34375q-0.90625 1.328125 -0.921875 3.921875l0 3.0625q0 2.609375 0.90625 3.984375q0.921875 1.375 2.71875 1.375q1.8125 0 2.671875 -1.265625q0.875 -1.265625 0.90625 -3.890625l0 -3.1875zm15.6328125 -7.046875l0 12.125q-0.03125 2.421875 -1.421875 3.796875q-1.375 1.375 -3.84375 1.375q-2.53125 0 -3.875 -1.34375q-1.328125 -1.34375 -1.34375 -3.828125l0 -12.125l2.125 0l0 12.046875q0 1.71875 0.734375 2.578125q0.734375 0.84375 2.359375 0.84375q1.640625 0 2.375 -0.84375q0.734375 -0.859375 0.734375 -2.578125l0 -12.046875l2.15625 0zm8.4609375 10.15625l-3.0 0l0 6.90625l-2.15625 0l0 -17.0625l4.78125 0q2.5 0 3.78125 1.3125q1.296875 1.296875 1.296875 3.8125q0 1.59375 -0.703125 2.765625q-0.6875 1.171875 -1.96875 1.78125l3.3125 7.25l0 0.140625l-2.3125 0l-3.03125 -6.90625zm-3.0 -1.84375l2.59375 0q1.359375 0 2.15625 -0.859375q0.796875 -0.875 0.796875 -2.328125q0 -3.28125 -2.96875 -3.28125l-2.578125 0l0 6.46875zm21.753906 8.75l-2.15625 0l0 -7.890625l-6.875 0l0 7.890625l-2.140625 0l0 -17.0625l2.140625 0l0 7.328125l6.875 0l0 -7.328125l2.15625 0l0 17.0625zm14.8046875 -7.03125q0 3.484375 -1.484375 5.375q-1.484375 1.890625 -4.234375 1.890625q-2.640625 0 -4.171875 -1.828125q-1.515625 -1.84375 -1.578125 -5.1875l0 -3.21875q0 -3.421875 1.5 -5.359375q1.515625 -1.9375 4.234375 -1.9375q2.6875 0 4.1875 1.859375q1.515625 1.859375 1.546875 5.296875l0 3.109375zm-2.140625 -2.984375q0 -2.71875 -0.890625 -4.03125q-0.875 -1.3125 -2.703125 -1.3125q-1.78125 0 -2.6875 1.34375q-0.90625 1.328125 -0.921875 3.921875l0 3.0625q0 2.609375 0.90625 3.984375q0.921875 1.375 2.71875 1.375q1.8125 0 2.671875 -1.265625q0.875 -1.265625 0.90625 -3.890625l0 -3.1875zm16.554688 2.984375q0 3.484375 -1.484375 5.375q-1.484375 1.890625 -4.234375 1.890625q-2.640625 0 -4.171875 -1.828125q-1.515625 -1.84375 -1.578125 -5.1875l0 -3.21875q0 -3.421875 1.5 -5.359375q1.515625 -1.9375 4.234375 -1.9375q2.6875 0 4.1875 1.859375q1.515625 1.859375 1.546875 5.296875l0 3.109375zm-2.140625 -2.984375q0 -2.71875 -0.890625 -4.03125q-0.875 -1.3125 -2.703125 -1.3125q-1.78125 0 -2.6875 1.34375q-0.90625 1.328125 -0.921875 3.921875l0 3.0625q0 2.609375 0.90625 3.984375q0.921875 1.375 2.71875 1.375q1.8125 0 2.671875 -1.265625q0.875 -1.265625 0.90625 -3.890625l0 -3.1875zm5.4609375 10.015625l0 -17.0625l4.0625 0q2.984375 0 4.640625 1.875q1.65625 1.859375 1.65625 5.25l0 2.859375q0 3.390625 -1.6875 5.234375q-1.671875 1.84375 -4.859375 1.84375l-3.8125 0zm2.140625 -15.21875l0 13.375l1.71875 0q2.265625 0 3.3125 -1.296875q1.046875 -1.296875 1.0625 -3.828125l0 -3.03125q0 -2.6875 -1.046875 -3.953125q-1.03125 -1.265625 -3.125 -1.265625l-1.921875 0z" fill-rule="nonzero"/><path fill="#000000" fill-opacity="0.0" d="m357.53543 497.2047l190.33072 0l0 78.834656l-190.33072 0z" fill-rule="evenodd"/><path fill="#bf9000" d="m412.3297 515.4433l-4.484375 0l0 15.21875l-2.140625 0l0 -15.21875l-4.484375 0l0 -1.84375l11.109375 0l0 1.84375zm7.6796875 8.3125l-3.0 0l0 6.90625l-2.15625 0l0 -17.0625l4.78125 0q2.5 0 3.78125 1.3125q1.296875 1.296875 1.296875 3.8125q0 1.59375 -0.703125 2.765625q-0.6875 1.171875 -1.96875 1.78125l3.3125 7.25l0 0.140625l-2.3125 0l-3.03125 -6.90625zm-3.0 -1.84375l2.59375 0q1.359375 0 2.15625 -0.859375q0.796875 -0.875 0.796875 -2.328125q0 -3.28125 -2.96875 -3.28125l-2.578125 0l0 6.46875zm18.535156 4.296875l-5.765625 0l-1.328125 4.453125l-2.203125 0l5.5 -17.0625l1.84375 0l5.5 17.0625l-2.203125 0l-1.34375 -4.453125zm-5.203125 -1.859375l4.65625 0l-2.328125 -7.75l-2.328125 7.75zm22.21875 6.3125l-2.15625 0l-6.828125 -13.15625l0 13.15625l-2.15625 0l0 -17.0625l2.15625 0l6.859375 13.203125l0 -13.203125l2.125 0l0 17.0625zm11.171875 -4.3125q0 -1.28125 -0.703125 -1.953125q-0.6875 -0.6875 -2.5 -1.328125q-1.796875 -0.640625 -2.75 -1.34375q-0.953125 -0.71875 -1.4375 -1.625q-0.46875 -0.90625 -0.46875 -2.078125q0 -2.03125 1.359375 -3.34375q1.359375 -1.3125 3.546875 -1.3125q1.5 0 2.671875 0.671875q1.171875 0.671875 1.796875 1.875q0.640625 1.1875 0.640625 2.625l-2.15625 0q0 -1.59375 -0.765625 -2.453125q-0.765625 -0.875 -2.1875 -0.875q-1.296875 0 -2.015625 0.734375q-0.71875 0.71875 -0.71875 2.03125q0 1.078125 0.765625 1.8125q0.78125 0.71875 2.40625 1.296875q2.515625 0.828125 3.59375 2.046875q1.09375 1.21875 1.09375 3.1875q0 2.078125 -1.359375 3.328125q-1.34375 1.25 -3.65625 1.25q-1.5 0 -2.765625 -0.640625q-1.25 -0.65625 -1.96875 -1.828125q-0.71875 -1.1875 -0.71875 -2.71875l2.15625 0q0 1.59375 0.875 2.46875q0.890625 0.875 2.421875 0.875q1.40625 0 2.125 -0.71875q0.71875 -0.734375 0.71875 -1.984375zm13.152344 -3.578125l-6.03125 0l0 6.046875l7.03125 0l0 1.84375l-9.171875 0l0 -17.0625l9.0625 0l0 1.84375l-6.921875 0l0 5.484375l6.03125 0l0 1.84375zm14.449219 2.46875q-0.140625 2.75 -1.546875 4.203125q-1.40625 1.453125 -3.953125 1.453125q-2.5625 0 -4.078125 -1.953125q-1.515625 -1.953125 -1.515625 -5.296875l0 -3.09375q0 -3.328125 1.546875 -5.25q1.5625 -1.9375 4.25 -1.9375q2.46875 0 3.8125 1.484375q1.359375 1.484375 1.484375 4.234375l-2.171875 0q-0.140625 -2.09375 -0.890625 -2.984375q-0.734375 -0.890625 -2.234375 -0.890625q-1.75 0 -2.6875 1.375q-0.9375 1.359375 -0.9375 4.0l0 3.125q0 2.59375 0.875 3.984375q0.875 1.375 2.546875 1.375q1.671875 0 2.40625 -0.828125q0.75 -0.84375 0.921875 -3.0l2.171875 0zm12.871094 -9.796875l-4.484375 0l0 15.21875l-2.140625 0l0 -15.21875l-4.484375 0l0 -1.84375l11.109375 0l0 1.84375z" fill-rule="nonzero"/><path fill="#bf9000" d="m408.4391 559.66205l-2.140625 0l0 -17.0625l2.140625 0l0 17.0625zm14.90625 0l-2.15625 0l-6.828125 -13.15625l0 13.15625l-2.15625 0l0 -17.0625l2.15625 0l6.859375 13.203125l0 -13.203125l2.125 0l0 17.0625zm13.6875 -15.21875l-4.484375 0l0 15.21875l-2.140625 0l0 -15.21875l-4.484375 0l0 -1.84375l11.109375 0l0 1.84375zm10.6953125 7.328125l-6.03125 0l0 6.046875l7.03125 0l0 1.84375l-9.171875 0l0 -17.0625l9.0625 0l0 1.84375l-6.921875 0l0 5.484375l6.03125 0l0 1.84375zm8.902344 0.984375l-3.0 0l0 6.90625l-2.15625 0l0 -17.0625l4.78125 0q2.5 0 3.78125 1.3125q1.296875 1.296875 1.296875 3.8125q0 1.59375 -0.703125 2.765625q-0.6875 1.171875 -1.96875 1.78125l3.3125 7.25l0 0.140625l-2.3125 0l-3.03125 -6.90625zm-3.0 -1.84375l2.59375 0q1.359375 0 2.15625 -0.859375q0.796875 -0.875 0.796875 -2.328125q0 -3.28125 -2.96875 -3.28125l-2.578125 0l0 6.46875zm15.457031 5.453125l3.90625 -13.765625l2.34375 0l-5.296875 17.0625l-1.875 0l-5.296875 -17.0625l2.34375 0l3.875 13.765625zm16.519531 -1.15625l-5.765625 0l-1.328125 4.453125l-2.203125 0l5.5 -17.0625l1.84375 0l5.5 17.0625l-2.203125 0l-1.34375 -4.453125zm-5.203125 -1.859375l4.65625 0l-2.328125 -7.75l-2.328125 7.75zm13.234375 4.46875l6.6875 0l0 1.84375l-8.84375 0l0 -17.0625l2.15625 0l0 15.21875z" fill-rule="nonzero"/><path fill="#000000" fill-opacity="0.0" d="m338.30972 144.29396l190.33072 0l0 78.83464l-190.33072 0z" fill-rule="evenodd"/><path fill="#bf9000" d="m409.1528 170.22003l-5.765625 0l0 7.53125l-2.140625 0l0 -17.0625l8.875 0l0 1.84375l-6.734375 0l0 5.84375l5.765625 0l0 1.84375zm8.78125 0.625l-3.0 0l0 6.90625l-2.15625 0l0 -17.0625l4.78125 0q2.5 0 3.78125 1.3125q1.296875 1.296875 1.296875 3.8125q0 1.59375 -0.703125 2.765625q-0.6875 1.171875 -1.96875 1.78125l3.3125 7.25l0 0.140625l-2.3125 0l-3.03125 -6.90625zm-3.0 -1.84375l2.59375 0q1.359375 0 2.15625 -0.859375q0.796875 -0.875 0.796875 -2.328125q0 -3.28125 -2.96875 -3.28125l-2.578125 0l0 6.46875zm18.535156 4.296875l-5.765625 0l-1.328125 4.453125l-2.203125 0l5.5 -17.0625l1.84375 0l5.5 17.0625l-2.203125 0l-1.34375 -4.453125zm-5.203125 -1.859375l4.65625 0l-2.328125 -7.75l-2.328125 7.75zm13.84375 -10.75l4.453125 13.921875l4.453125 -13.921875l2.765625 0l0 17.0625l-2.140625 0l0 -6.640625l0.1875 -6.65625l-4.453125 13.296875l-1.640625 0l-4.453125 -13.25l0.203125 6.609375l0 6.640625l-2.140625 0l0 -17.0625l2.765625 0zm23.535156 9.171875l-6.03125 0l0 6.046875l7.03125 0l0 1.84375l-9.171875 0l0 -17.0625l9.0625 0l0 1.84375l-6.921875 0l0 5.484375l6.03125 0l0 1.84375z" fill-rule="nonzero"/><path fill="#bf9000" d="m372.94577 206.75128l0 -17.0625l4.0625 0q2.984375 0 4.640625 1.875q1.65625 1.859375 1.65625 5.25l0 2.859375q0 3.390625 -1.6875 5.234375q-1.671875 1.84375 -4.859375 1.84375l-3.8125 0zm2.140625 -15.21875l0 13.375l1.71875 0q2.265625 0 3.3125 -1.296875q1.046875 -1.296875 1.0625 -3.828125l0 -3.03125q0 -2.6875 -1.046875 -3.953125q-1.03125 -1.265625 -3.125 -1.265625l-1.921875 0zm13.792969 15.21875l-2.140625 0l0 -17.0625l2.140625 0l0 17.0625zm6.53125 -17.0625l4.453125 13.921875l4.453125 -13.921875l2.765625 0l0 17.0625l-2.140625 0l0 -6.640625l0.1875 -6.65625l-4.453125 13.296875l-1.640625 0l-4.453125 -13.25l0.203125 6.609375l0 6.640625l-2.140625 0l0 -17.0625l2.765625 0zm23.535156 9.171875l-6.03125 0l0 6.046875l7.03125 0l0 1.84375l-9.171875 0l0 -17.0625l9.0625 0l0 1.84375l-6.921875 0l0 5.484375l6.03125 0l0 1.84375zm14.886719 7.890625l-2.15625 0l-6.828125 -13.15625l0 13.15625l-2.15625 0l0 -17.0625l2.15625 0l6.859375 13.203125l0 -13.203125l2.125 0l0 17.0625zm11.171875 -4.3125q0 -1.28125 -0.703125 -1.953125q-0.6875 -0.6875 -2.5 -1.328125q-1.796875 -0.640625 -2.75 -1.34375q-0.953125 -0.71875 -1.4375 -1.625q-0.46875 -0.90625 -0.46875 -2.078125q0 -2.03125 1.359375 -3.34375q1.359375 -1.3125 3.546875 -1.3125q1.5 0 2.671875 0.671875q1.171875 0.671875 1.796875 1.875q0.640625 1.1875 0.640625 2.625l-2.15625 0q0 -1.59375 -0.765625 -2.453125q-0.765625 -0.875 -2.1875 -0.875q-1.296875 0 -2.015625 0.734375q-0.71875 0.71875 -0.71875 2.03125q0 1.078125 0.765625 1.8125q0.78125 0.71875 2.40625 1.296875q2.515625 0.828125 3.59375 2.046875q1.09375 1.21875 1.09375 3.1875q0 2.078125 -1.359375 3.328125q-1.34375 1.25 -3.65625 1.25q-1.5 0 -2.765625 -0.640625q-1.25 -0.65625 -1.96875 -1.828125q-0.71875 -1.1875 -0.71875 -2.71875l2.15625 0q0 1.59375 0.875 2.46875q0.890625 0.875 2.421875 0.875q1.40625 0 2.125 -0.71875q0.71875 -0.734375 0.71875 -1.984375zm7.2148438 4.3125l-2.140625 0l0 -17.0625l2.140625 0l0 17.0625zm14.859375 -7.03125q0 3.484375 -1.484375 5.375q-1.484375 1.890625 -4.234375 1.890625q-2.640625 0 -4.171875 -1.828125q-1.515625 -1.84375 -1.578125 -5.1875l0 -3.21875q0 -3.421875 1.5 -5.359375q1.515625 -1.9375 4.234375 -1.9375q2.6875 0 4.1875 1.859375q1.515625 1.859375 1.546875 5.296875l0 3.109375zm-2.140625 -2.984375q0 -2.71875 -0.890625 -4.03125q-0.875 -1.3125 -2.703125 -1.3125q-1.78125 0 -2.6875 1.34375q-0.90625 1.328125 -0.921875 3.921875l0 3.0625q0 2.609375 0.90625 3.984375q0.921875 1.375 2.71875 1.375q1.8125 0 2.671875 -1.265625q0.875 -1.265625 0.90625 -3.890625l0 -3.1875zm16.601562 10.015625l-2.15625 0l-6.828125 -13.15625l0 13.15625l-2.15625 0l0 -17.0625l2.15625 0l6.859375 13.203125l0 -13.203125l2.125 0l0 17.0625zm11.171875 -4.3125q0 -1.28125 -0.703125 -1.953125q-0.6875 -0.6875 -2.5 -1.328125q-1.796875 -0.640625 -2.75 -1.34375q-0.953125 -0.71875 -1.4375 -1.625q-0.46875 -0.90625 -0.46875 -2.078125q0 -2.03125 1.359375 -3.34375q1.359375 -1.3125 3.546875 -1.3125q1.5 0 2.671875 0.671875q1.171875 0.671875 1.796875 1.875q0.640625 1.1875 0.640625 2.625l-2.15625 0q0 -1.59375 -0.765625 -2.453125q-0.765625 -0.875 -2.1875 -0.875q-1.296875 0 -2.015625 0.734375q-0.71875 0.71875 -0.71875 2.03125q0 1.078125 0.765625 1.8125q0.78125 0.71875 2.40625 1.296875q2.515625 0.828125 3.59375 2.046875q1.09375 1.21875 1.09375 3.1875q0 2.078125 -1.359375 3.328125q-1.34375 1.25 -3.65625 1.25q-1.5 0 -2.765625 -0.640625q-1.25 -0.65625 -1.96875 -1.828125q-0.71875 -1.1875 -0.71875 -2.71875l2.15625 0q0 1.59375 0.875 2.46875q0.890625 0.875 2.421875 0.875q1.40625 0 2.125 -0.71875q0.71875 -0.734375 0.71875 -1.984375z" fill-rule="nonzero"/><path fill="#000000" fill-opacity="0.0" d="m502.89764 398.12073l190.33069 0l0 78.834656l-190.33069 0z" fill-rule="evenodd"/><path fill="#bf9000" d="m546.76025 440.70306l0.234375 1.90625l0.328125 -1.6875l2.734375 -11.90625l1.796875 0l2.640625 11.90625l0.34375 1.734375l0.25 -1.96875l2.078125 -11.671875l2.15625 0l-3.40625 17.0625l-1.9375 0l-2.84375 -12.4375l-0.171875 -1.0l-0.171875 1.0l-2.953125 12.4375l-1.953125 0l-3.390625 -17.0625l2.15625 0l2.109375 11.6875zm23.203125 -2.515625l-6.03125 0l0 6.046875l7.03125 0l0 1.84375l-9.171875 0l0 -17.0625l9.0625 0l0 1.84375l-6.921875 0l0 5.484375l6.03125 0l0 1.84375zm5.9804688 7.890625l-2.140625 0l0 -17.0625l2.140625 0l0 17.0625zm14.4375 -2.125l-0.375 0.46875q-1.609375 1.890625 -4.734375 1.890625q-2.765625 0 -4.34375 -1.828125q-1.578125 -1.84375 -1.609375 -5.1875l0 -3.359375q0 -3.578125 1.4375 -5.359375q1.4375 -1.796875 4.296875 -1.796875q2.4375 0 3.8125 1.359375q1.375 1.359375 1.515625 3.875l-2.140625 0q-0.125 -1.59375 -0.890625 -2.484375q-0.75 -0.90625 -2.28125 -0.90625q-1.84375 0 -2.703125 1.203125q-0.859375 1.203125 -0.890625 3.84375l0 3.484375q0 2.578125 0.984375 3.953125q0.984375 1.375 2.828125 1.375q1.734375 0 2.640625 -0.84375l0.3125 -0.296875l0 -3.9375l-3.125 0l0 -1.828125l5.265625 0l0 6.375zm14.6796875 2.125l-2.15625 0l0 -7.890625l-6.875 0l0 7.890625l-2.140625 0l0 -17.0625l2.140625 0l0 7.328125l6.875 0l0 -7.328125l2.15625 0l0 17.0625zm13.6796875 -15.21875l-4.484375 0l0 15.21875l-2.140625 0l0 -15.21875l-4.484375 0l0 -1.84375l11.109375 0l0 1.84375zm4.7578125 15.21875l-2.140625 0l0 -17.0625l2.140625 0l0 17.0625zm14.90625 0l-2.15625 0l-6.828125 -13.15625l0 13.15625l-2.15625 0l0 -17.0625l2.15625 0l6.859375 13.203125l0 -13.203125l2.125 0l0 17.0625zm14.390625 -2.125l-0.375 0.46875q-1.609375 1.890625 -4.734375 1.890625q-2.765625 0 -4.34375 -1.828125q-1.578125 -1.84375 -1.609375 -5.1875l0 -3.359375q0 -3.578125 1.4375 -5.359375q1.4375 -1.796875 4.296875 -1.796875q2.4375 0 3.8125 1.359375q1.375 1.359375 1.515625 3.875l-2.140625 0q-0.125 -1.59375 -0.890625 -2.484375q-0.75 -0.90625 -2.28125 -0.90625q-1.84375 0 -2.703125 1.203125q-0.859375 1.203125 -0.890625 3.84375l0 3.484375q0 2.578125 0.984375 3.953125q0.984375 1.375 2.828125 1.375q1.734375 0 2.640625 -0.84375l0.3125 -0.296875l0 -3.9375l-3.125 0l0 -1.828125l5.265625 0l0 6.375z" fill-rule="nonzero"/><path fill="#000000" fill-opacity="0.0" d="m214.37007 329.34384l190.33073 0l0 78.834625l-190.33073 0z" fill-rule="evenodd"/><path fill="#bf9000" d="m295.053 357.37927q-0.140625 2.75 -1.546875 4.203125q-1.40625 1.453125 -3.953125 1.453125q-2.5625 0 -4.078125 -1.953125q-1.515625 -1.953125 -1.515625 -5.296875l0 -3.09375q0 -3.328125 1.546875 -5.25q1.5625 -1.9375 4.25 -1.9375q2.46875 0 3.8125 1.484375q1.359375 1.484375 1.484375 4.234375l-2.171875 0q-0.140625 -2.09375 -0.890625 -2.984375q-0.734375 -0.890625 -2.234375 -0.890625q-1.75 0 -2.6875 1.375q-0.9375 1.359375 -0.9375 4.0l0 3.125q0 2.59375 0.875 3.984375q0.875 1.375 2.546875 1.375q1.671875 0 2.40625 -0.828125q0.75 -0.84375 0.921875 -3.0l2.171875 0zm8.058594 -1.484375l-3.0 0l0 6.90625l-2.15625 0l0 -17.0625l4.78125 0q2.5 0 3.78125 1.3125q1.296875 1.296875 1.296875 3.8125q0 1.59375 -0.703125 2.765625q-0.6875 1.171875 -1.96875 1.78125l3.3125 7.25l0 0.140625l-2.3125 0l-3.03125 -6.90625zm-3.0 -1.84375l2.59375 0q1.359375 0 2.15625 -0.859375q0.796875 -0.875 0.796875 -2.328125q0 -3.28125 -2.96875 -3.28125l-2.578125 0l0 6.46875zm21.675781 1.71875q0 3.484375 -1.484375 5.375q-1.484375 1.890625 -4.234375 1.890625q-2.640625 0 -4.171875 -1.828125q-1.515625 -1.84375 -1.578125 -5.1875l0 -3.21875q0 -3.421875 1.5 -5.359375q1.515625 -1.9375 4.234375 -1.9375q2.6875 0 4.1875 1.859375q1.515625 1.859375 1.546875 5.296875l0 3.109375zm-2.140625 -2.984375q0 -2.71875 -0.890625 -4.03125q-0.875 -1.3125 -2.703125 -1.3125q-1.78125 0 -2.6875 1.34375q-0.90625 1.328125 -0.921875 3.921875l0 3.0625q0 2.609375 0.90625 3.984375q0.921875 1.375 2.71875 1.375q1.8125 0 2.671875 -1.265625q0.875 -1.265625 0.90625 -3.890625l0 -3.1875zm7.6015625 3.328125l0 6.6875l-2.140625 0l0 -17.0625l5.4375 0q2.375 0 3.734375 1.421875q1.359375 1.421875 1.359375 3.796875q0 2.453125 -1.296875 3.78125q-1.296875 1.328125 -3.640625 1.375l-3.453125 0zm0 -1.828125l3.296875 0q1.421875 0 2.1875 -0.859375q0.765625 -0.859375 0.765625 -2.453125q0 -1.53125 -0.796875 -2.453125q-0.78125 -0.9375 -2.140625 -0.9375l-3.3125 0l0 6.703125z" fill-rule="nonzero"/><path fill="#bf9000" d="m289.0237 386.37927q-0.140625 2.75 -1.546875 4.203125q-1.40625 1.453125 -3.953125 1.453125q-2.5625 0 -4.078125 -1.953125q-1.515625 -1.953125 -1.515625 -5.296875l0 -3.09375q0 -3.328125 1.546875 -5.25q1.5625 -1.9375 4.25 -1.9375q2.46875 0 3.8125 1.484375q1.359375 1.484375 1.484375 4.234375l-2.171875 0q-0.140625 -2.09375 -0.890625 -2.984375q-0.734375 -0.890625 -2.234375 -0.890625q-1.75 0 -2.6875 1.375q-0.9375 1.359375 -0.9375 4.0l0 3.125q0 2.59375 0.875 3.984375q0.875 1.375 2.546875 1.375q1.671875 0 2.40625 -0.828125q0.75 -0.84375 0.921875 -3.0l2.171875 0zm13.996094 -1.609375q0 3.484375 -1.484375 5.375q-1.484375 1.890625 -4.234375 1.890625q-2.640625 0 -4.171875 -1.828125q-1.515625 -1.84375 -1.578125 -5.1875l0 -3.21875q0 -3.421875 1.5 -5.359375q1.515625 -1.9375 4.234375 -1.9375q2.6875 0 4.1875 1.859375q1.515625 1.859375 1.546875 5.296875l0 3.109375zm-2.140625 -2.984375q0 -2.71875 -0.890625 -4.03125q-0.875 -1.3125 -2.703125 -1.3125q-1.78125 0 -2.6875 1.34375q-0.90625 1.328125 -0.921875 3.921875l0 3.0625q0 2.609375 0.90625 3.984375q0.921875 1.375 2.71875 1.375q1.8125 0 2.671875 -1.265625q0.875 -1.265625 0.90625 -3.890625l0 -3.1875zm10.3359375 6.71875l3.90625 -13.765625l2.34375 0l-5.296875 17.0625l-1.875 0l-5.296875 -17.0625l2.34375 0l3.875 13.765625zm16.738281 -4.59375l-6.03125 0l0 6.046875l7.03125 0l0 1.84375l-9.171875 0l0 -17.0625l9.0625 0l0 1.84375l-6.921875 0l0 5.484375l6.03125 0l0 1.84375zm8.902344 0.984375l-3.0 0l0 6.90625l-2.15625 0l0 -17.0625l4.78125 0q2.5 0 3.78125 1.3125q1.296875 1.296875 1.296875 3.8125q0 1.59375 -0.703125 2.765625q-0.6875 1.171875 -1.96875 1.78125l3.3125 7.25l0 0.140625l-2.3125 0l-3.03125 -6.90625zm-3.0 -1.84375l2.59375 0q1.359375 0 2.15625 -0.859375q0.796875 -0.875 0.796875 -2.328125q0 -3.28125 -2.96875 -3.28125l-2.578125 0l0 6.46875z" fill-rule="nonzero"/></g></svg>