<svg version="1.1" viewBox="0.0 0.0 960.0 720.0" fill="none" stroke="none" stroke-linecap="square" stroke-miterlimit="10" xmlns:xlink="http://www.w3.org/1999/xlink" xmlns="http://www.w3.org/2000/svg"><clipPath id="g100f93ba9f_0_574.0"><path d="m0 0l960.0 0l0 720.0l-960.0 0l0 -720.0z" clip-rule="nonzero"/></clipPath><g clip-path="url(#g100f93ba9f_0_574.0)"><path fill="#ffffff" d="m0 0l960.0 0l0 720.0l-960.0 0z" fill-rule="evenodd"/><path fill="#f3f3f3" d="m1547.2236 324.70493l176.22742 0l0 -41.099762l82.199585 82.199554l-82.199585 82.199585l0 -41.099792l-176.22742 0l41.09973 -41.099792z" fill-rule="evenodd"/><path stroke="#cccccc" stroke-width="4.0" stroke-linejoin="round" stroke-linecap="butt" d="m1547.2236 324.70493l176.22742 0l0 -41.099762l82.199585 82.199554l-82.199585 82.199585l0 -41.099792l-176.22742 0l41.09973 -41.099792z" fill-rule="evenodd"/><path fill="#f3f3f3" d="m522.0872 365.80472l0 0c0 -314.12387 254.6477 -568.7716 568.77155 -568.7716l0 0c150.84766 0 295.51697 59.92398 402.18225 166.58934c106.665405 106.66536 166.58936 251.33464 166.58936 402.18222l0 0c0 314.12387 -254.6477 568.7716 -568.7716 568.7716l0 0c-314.12384 0 -568.77155 -254.6477 -568.77155 -568.7716z" fill-rule="evenodd"/><path stroke="#cccccc" stroke-width="4.0" stroke-linejoin="round" stroke-linecap="butt" d="m522.0872 365.80472l0 0c0 -314.12387 254.6477 -568.7716 568.77155 -568.7716l0 0c150.84766 0 295.51697 59.92398 402.18225 166.58934c106.665405 106.66536 166.58936 251.33464 166.58936 402.18222l0 0c0 314.12387 -254.6477 568.7716 -568.7716 568.7716l0 0c-314.12384 0 -568.77155 -254.6477 -568.77155 -568.7716z" fill-rule="evenodd"/><path fill="#cccccc" d="m865.2921 399.4579q0 -9.921875 -5.390625 -15.203125q-5.375 -5.296875 -19.40625 -10.3125q-14.03125 -5.015625 -21.46875 -10.515625q-7.421875 -5.515625 -11.125 -12.578125q-3.6875 -7.078125 -3.6875 -16.1875q0 -15.765625 10.53125 -25.96875q10.53125 -10.21875 27.578125 -10.21875q11.65625 0 20.765625 5.25q9.125 5.234375 14.046875 14.53125q4.921875 9.296875 4.921875 20.421875l-16.765625 0q0 -12.3125 -5.9375 -19.046875q-5.921875 -6.75 -17.03125 -6.75q-10.125 0 -15.6875 5.65625q-5.546875 5.640625 -5.546875 15.859375q0 8.375 6.015625 14.03125q6.015625 5.65625 18.578125 10.109375q19.609375 6.484375 28.03125 15.96875q8.4375 9.46875 8.4375 24.78125q0 16.125 -10.484375 25.84375q-10.484375 9.703125 -28.53125 9.703125q-11.578125 0 -21.375 -5.0625q-9.796875 -5.0625 -15.40625 -14.21875q-5.59375 -9.15625 -5.59375 -21.015625l16.765625 0q0 12.3125 6.875 19.15625q6.890625 6.828125 18.734375 6.828125q11.03125 0 16.59375 -5.640625q5.5625 -5.65625 5.5625 -15.421875zm117.84094 -99.15625l0 94.328125q-0.1875 18.875 -10.9375 29.546875q-10.75 10.65625 -29.984375 10.65625q-19.6875 0 -30.078125 -10.4375q-10.390625 -10.4375 -10.578125 -29.765625l0 -94.328125l16.59375 0l0 93.6875q0 13.40625 5.6875 20.015625q5.703125 6.609375 18.375 6.609375q12.75 0 18.453125 -6.609375q5.703125 -6.609375 5.703125 -20.015625l0 -93.6875l16.765625 0zm65.796265 79.015625l-23.328125 0l0 53.6875l-16.765625 0l0 -132.70312l37.1875 0q19.5 0 29.515625 10.171875q10.03125 10.15625 10.03125 29.75q0 12.296875 -5.421875 21.46875q-5.421875 9.15625 -15.359375 13.796875l25.703125 56.421875l0 1.09375l-17.953125 0l-23.609375 -53.6875zm-23.328125 -14.296875l20.234375 0q10.484375 0 16.71875 -6.75q6.25 -6.75 6.25 -18.046875q0 -25.515625 -23.15625 -25.515625l-20.046875 0l0 50.3125zm120.21057 42.375l30.359375 -107.09375l18.3125 0l-41.28125 132.70312l-14.578125 0l-41.203125 -132.70312l18.234375 0l30.15625 107.09375zm130.24158 -35.734375l-46.9375 0l0 47.03125l54.6875 0l0 14.3125l-71.359375 0l0 -132.70312l70.453125 0l0 14.40625l-53.78125 0l0 42.65625l46.9375 0l0 14.296875zm63.61194 -4.734375l27.171875 -66.625l18.859375 0l-37.734375 83.21875l0 49.484375l-16.671875 0l0 -49.484375l-37.734375 -83.21875l18.953125 0l27.15625 66.625z" fill-rule="nonzero"/><path fill="#6aa84f" fill-opacity="0.6" d="m560.12384 365.80472l0 0c0 -129.03989 104.607544 -233.6474 233.6474 -233.6474l0 0c61.967163 0 121.3963 24.616364 165.21368 68.43375c43.817383 43.817383 68.433655 103.24652 68.433655 165.21365l0 0c0 129.03989 -104.60742 233.64737 -233.64734 233.64737l0 0c-129.03986 0 -233.6474 -104.60748 -233.6474 -233.64737z" fill-rule="evenodd"/><path stroke="#38761d" stroke-width="4.0" stroke-linejoin="round" stroke-linecap="butt" d="m560.12384 365.80472l0 0c0 -129.03989 104.607544 -233.6474 233.6474 -233.6474l0 0c61.967163 0 121.3963 24.616364 165.21368 68.43375c43.817383 43.817383 68.433655 103.24652 68.433655 165.21365l0 0c0 129.03989 -104.60742 233.64737 -233.64734 233.64737l0 0c-129.03986 0 -233.6474 -104.60748 -233.6474 -233.64737z" fill-rule="evenodd"/><path fill="#ffffff" d="m741.0564 341.8847l0 12.0l-6.890625 0l0 -34.125l11.625 0q5.0625 0 8.0625 3.140625q3.015625 3.140625 3.015625 8.15625q0 5.015625 -2.984375 7.921875q-2.96875 2.90625 -8.234375 2.90625l-4.59375 0zm0 -5.75l4.734375 0q1.96875 0 3.046875 -1.28125q1.078125 -1.296875 1.078125 -3.75q0 -2.5625 -1.109375 -4.0625q-1.09375 -1.515625 -2.953125 -1.546875l-4.796875 0l0 10.640625zm44.429688 3.75q0 6.875 -3.25 10.671875q-3.234375 3.796875 -9.0 3.796875q-5.75 0 -9.03125 -3.765625q-3.28125 -3.765625 -3.328125 -10.53125l0 -5.84375q0 -7.03125 3.25 -10.96875q3.265625 -3.953125 9.0625 -3.953125q5.6875 0 8.96875 3.875q3.28125 3.875 3.328125 10.890625l0 5.828125zm-6.90625 -5.71875q0 -4.609375 -1.3125 -6.859375q-1.3125 -2.25 -4.078125 -2.25q-2.75 0 -4.0625 2.171875q-1.3125 2.15625 -1.359375 6.59375l0 6.0625q0 4.484375 1.328125 6.609375q1.34375 2.109375 4.140625 2.109375q2.6875 0 4.0 -2.0625q1.3125 -2.078125 1.34375 -6.4375l0 -5.9375zm19.046875 19.71875l-6.890625 0l0 -34.125l6.890625 0l0 34.125zm29.65625 0l-6.890625 0l-10.078125 -22.390625l0 22.390625l-6.890625 0l0 -34.125l6.890625 0l10.09375 22.40625l0 -22.40625l6.875 0l0 34.125zm27.625 -28.390625l-8.4375 0l0 28.390625l-6.90625 0l0 -28.390625l-8.296875 0l0 -5.734375l23.640625 0l0 5.734375z" fill-rule="nonzero"/><path fill="#ffffff" d="m710.59937 399.8847l0 12.0l-6.890625 0l0 -34.125l11.625 0q5.0625 0 8.0625 3.140625q3.015625 3.140625 3.015625 8.15625q0 5.015625 -2.984375 7.921875q-2.96875 2.90625 -8.234375 2.90625l-4.59375 0zm0 -5.75l4.734375 0q1.96875 0 3.046875 -1.28125q1.078125 -1.296875 1.078125 -3.75q0 -2.5625 -1.109375 -4.0625q-1.09375 -1.515625 -2.953125 -1.546875l-4.796875 0l0 10.640625zm30.742188 5.28125l-3.421875 0l0 12.46875l-6.890625 0l0 -34.125l11.0 0q5.171875 0 8.0 2.6875q2.828125 2.671875 2.828125 7.625q0 6.796875 -4.953125 9.515625l5.984375 13.96875l0 0.328125l-7.40625 0l-5.140625 -12.46875zm-3.421875 -5.75l3.921875 0q2.0625 0 3.09375 -1.359375q1.03125 -1.375 1.03125 -3.671875q0 -5.140625 -4.015625 -5.140625l-4.03125 0l0 10.171875zm43.6875 4.21875q0 6.875 -3.25 10.671875q-3.234375 3.796875 -9.0 3.796875q-5.75 0 -9.03125 -3.765625q-3.28125 -3.765625 -3.328125 -10.53125l0 -5.84375q0 -7.03125 3.25 -10.96875q3.265625 -3.953125 9.0625 -3.953125q5.6875 0 8.96875 3.875q3.28125 3.875 3.328125 10.890625l0 5.828125zm-6.90625 -5.71875q0 -4.609375 -1.3125 -6.859375q-1.3125 -2.25 -4.078125 -2.25q-2.75 0 -4.0625 2.171875q-1.3125 2.15625 -1.359375 6.59375l0 6.0625q0 4.484375 1.328125 6.609375q1.34375 2.109375 4.140625 2.109375q2.6875 0 4.0 -2.0625q1.3125 -2.078125 1.34375 -6.4375l0 -5.9375zm34.984375 8.34375q-0.25 5.84375 -3.28125 8.84375q-3.015625 3.0 -8.53125 3.0q-5.78125 0 -8.875 -3.8125q-3.078125 -3.8125 -3.078125 -10.859375l0 -5.75q0 -7.03125 3.1875 -10.828125q3.1875 -3.8125 8.859375 -3.8125q5.578125 0 8.46875 3.125q2.90625 3.109375 3.296875 8.9375l-6.90625 0q-0.09375 -3.609375 -1.125 -4.96875q-1.015625 -1.375 -3.734375 -1.375q-2.765625 0 -3.921875 1.9375q-1.140625 1.921875 -1.203125 6.359375l0 6.4375q0 5.09375 1.125 7.0q1.140625 1.890625 3.90625 1.890625q2.71875 0 3.75 -1.328125q1.03125 -1.328125 1.171875 -4.796875l6.890625 0zm21.875 -3.390625l-10.734375 0l0 9.046875l12.703125 0l0 5.71875l-19.59375 0l0 -34.125l19.546875 0l0 5.734375l-12.65625 0l0 8.0625l10.734375 0l0 5.5625zm20.335938 5.8125q0 -2.09375 -1.0625 -3.15625q-1.0625 -1.0625 -3.875 -2.21875q-5.140625 -1.9375 -7.390625 -4.546875q-2.25 -2.625 -2.25 -6.1875q0 -4.3125 3.0625 -6.921875q3.0625 -2.609375 7.765625 -2.609375q3.140625 0 5.59375 1.328125q2.46875 1.3125 3.796875 3.734375q1.328125 2.40625 1.328125 5.484375l-6.875 0q0 -2.390625 -1.015625 -3.640625q-1.015625 -1.265625 -2.9375 -1.265625q-1.8125 0 -2.828125 1.078125q-1.0 1.0625 -1.0 2.859375q0 1.40625 1.125 2.546875q1.125 1.140625 3.984375 2.359375q5.0 1.796875 7.25 4.421875q2.265625 2.625 2.265625 6.6875q0 4.453125 -2.84375 6.96875q-2.828125 2.5 -7.703125 2.5q-3.296875 0 -6.015625 -1.359375q-2.71875 -1.359375 -4.265625 -3.890625q-1.53125 -2.53125 -1.53125 -5.984375l6.921875 0q0 2.953125 1.140625 4.296875q1.15625 1.328125 3.75 1.328125q3.609375 0 3.609375 -3.8125zm25.921875 0q0 -2.09375 -1.0625 -3.15625q-1.0625 -1.0625 -3.875 -2.21875q-5.140625 -1.9375 -7.390625 -4.546875q-2.25 -2.625 -2.25 -6.1875q0 -4.3125 3.0625 -6.921875q3.0625 -2.609375 7.765625 -2.609375q3.140625 0 5.59375 1.328125q2.46875 1.3125 3.796875 3.734375q1.328125 2.40625 1.328125 5.484375l-6.875 0q0 -2.390625 -1.015625 -3.640625q-1.015625 -1.265625 -2.9375 -1.265625q-1.8125 0 -2.828125 1.078125q-1.0 1.0625 -1.0 2.859375q0 1.40625 1.125 2.546875q1.125 1.140625 3.984375 2.359375q5.0 1.796875 7.25 4.421875q2.265625 2.625 2.265625 6.6875q0 4.453125 -2.84375 6.96875q-2.828125 2.5 -7.703125 2.5q-3.296875 0 -6.015625 -1.359375q-2.71875 -1.359375 -4.265625 -3.890625q-1.53125 -2.53125 -1.53125 -5.984375l6.921875 0q0 2.953125 1.140625 4.296875q1.15625 1.328125 3.75 1.328125q3.609375 0 3.609375 -3.8125z" fill-rule="nonzero"/><path fill="#f1c232" fill-opacity="0.6" d="m1027.4187 116.36747l0 0c0 -129.03989 104.60742 -233.6474 233.64734 -233.6474l0 0c61.967163 0 121.39624 24.616348 165.21362 68.43374c43.817383 43.817383 68.433716 103.246506 68.433716 165.21365l0 0c0 129.03989 -104.60742 233.6474 -233.64734 233.6474l0 0c-129.03992 0 -233.64734 -104.6075 -233.64734 -233.6474z" fill-rule="evenodd"/><path stroke="#bf9000" stroke-width="4.0" stroke-linejoin="round" stroke-linecap="butt" d="m1027.4187 116.36747l0 0c0 -129.03989 104.60742 -233.6474 233.64734 -233.6474l0 0c61.967163 0 121.39624 24.616348 165.21362 68.43374c43.817383 43.817383 68.433716 103.246506 68.433716 165.21365l0 0c0 129.03989 -104.60742 233.6474 -233.64734 233.6474l0 0c-129.03992 0 -233.64734 -104.6075 -233.64734 -233.6474z" fill-rule="evenodd"/><path fill="#ffffff" d="m1172.3668 95.49435q0 -2.09375 -1.0625 -3.15625q-1.0625 -1.0625 -3.875 -2.21875q-5.140625 -1.9375 -7.390625 -4.546875q-2.25 -2.625 -2.25 -6.1875q0 -4.3125 3.0625 -6.921875q3.0625 -2.609375 7.765625 -2.609375q3.140625 0 5.59375 1.328125q2.46875 1.3125 3.796875 3.734375q1.328125 2.40625 1.328125 5.484375l-6.875 0q0 -2.390625 -1.015625 -3.640625q-1.015625 -1.265625 -2.9375 -1.265625q-1.8125 0 -2.828125 1.078125q-1.0 1.0625 -1.0 2.859375q0 1.40625 1.125 2.546875q1.125 1.140625 3.984375 2.359375q5.0 1.796875 7.25 4.421875q2.265625 2.625 2.265625 6.6875q0 4.453125 -2.84375 6.96875q-2.828125 2.5 -7.703125 2.5q-3.296875 0 -6.015625 -1.359375q-2.71875 -1.359375 -4.265625 -3.890625q-1.53125 -2.53125 -1.53125 -5.984375l6.921875 0q0 2.953125 1.140625 4.296875q1.15625 1.328125 3.75 1.328125q3.609375 0 3.609375 -3.8125zm27.796875 1.96875l-9.390625 0l-1.828125 6.984375l-7.296875 0l10.671875 -34.125l6.296875 0l10.734375 34.125l-7.359375 0l-1.828125 -6.984375zm-7.890625 -5.75l6.375 0l-3.1875 -12.15625l-3.1875 12.15625zm29.273438 -21.390625l6.4375 24.671875l6.421875 -24.671875l9.0 0l0 34.125l-6.90625 0l0 -9.234375l0.625 -14.234375l-6.8125 23.46875l-4.6875 0l-6.828125 -23.46875l0.640625 14.234375l0 9.234375l-6.890625 0l0 -34.125l9.0 0zm34.289062 22.125l0 12.0l-6.890625 0l0 -34.125l11.625 0q5.0625 0 8.0625 3.140625q3.015625 3.140625 3.015625 8.15625q0 5.015625 -2.984375 7.921875q-2.96875 2.90625 -8.234375 2.90625l-4.59375 0zm0 -5.75l4.734375 0q1.96875 0 3.046875 -1.28125q1.078125 -1.296875 1.078125 -3.75q0 -2.5625 -1.109375 -4.0625q-1.09375 -1.515625 -2.953125 -1.546875l-4.796875 0l0 10.640625zm27.304688 12.03125l12.09375 0l0 5.71875l-18.984375 0l0 -34.125l6.890625 0l0 28.40625zm23.265625 5.71875l-6.890625 0l0 -34.125l6.890625 0l0 34.125zm29.65625 0l-6.890625 0l-10.078125 -22.390625l0 22.390625l-6.890625 0l0 -34.125l6.890625 0l10.09375 22.40625l0 -22.40625l6.875 0l0 34.125zm28.734375 -3.875q-2.0 2.15625 -4.890625 3.25q-2.890625 1.09375 -6.34375 1.09375q-5.875 0 -9.140625 -3.640625q-3.25 -3.65625 -3.34375 -10.609375l0 -6.140625q0 -7.0625 3.078125 -10.859375q3.078125 -3.8125 8.984375 -3.8125q5.5625 0 8.375 2.75q2.828125 2.734375 3.28125 8.59375l-6.703125 0q-0.28125 -3.265625 -1.359375 -4.4375q-1.078125 -1.1875 -3.375 -1.1875q-2.796875 0 -4.0625 2.046875q-1.265625 2.03125 -1.3125 6.484375l0 6.1875q0 4.65625 1.390625 6.78125q1.40625 2.125 4.59375 2.125q2.03125 0 3.296875 -0.828125l0.609375 -0.421875l0 -6.25l-4.828125 0l0 -5.203125l11.75 0l0 14.078125z" fill-rule="nonzero"/><path fill="#ffffff" d="m1179.1989 148.52559l-10.703125 0l0 13.921875l-6.890625 0l0 -34.125l18.890625 0l0 5.734375l-12.0 0l0 8.75l10.703125 0l0 5.71875zm27.421875 -20.203125l0 23.625q-0.046875 5.3125 -2.9375 8.140625q-2.875 2.828125 -8.265625 2.828125q-5.484375 0 -8.375 -2.859375q-2.890625 -2.859375 -2.890625 -8.28125l0 -23.453125l6.9375 0l0 23.484375q0 2.90625 0.9375 4.15625q0.9375 1.234375 3.390625 1.234375q2.46875 0 3.375 -1.234375q0.921875 -1.234375 0.9375 -4.046875l0 -23.59375l6.890625 0zm29.09375 34.125l-6.890625 0l-10.078125 -22.390625l0 22.390625l-6.890625 0l0 -34.125l6.890625 0l10.09375 22.40625l0 -22.40625l6.875 0l0 34.125zm28.65625 -11.375q-0.25 5.84375 -3.28125 8.84375q-3.015625 3.0 -8.53125 3.0q-5.78125 0 -8.875 -3.8125q-3.078125 -3.8125 -3.078125 -10.859375l0 -5.75q0 -7.03125 3.1875 -10.828125q3.1875 -3.8124924 8.859375 -3.8124924q5.578125 0 8.46875 3.1249924q2.90625 3.109375 3.296875 8.9375l-6.90625 0q-0.09375 -3.609375 -1.125 -4.96875q-1.015625 -1.375 -3.734375 -1.375q-2.765625 0 -3.921875 1.9375q-1.140625 1.921875 -1.203125 6.359375l0 6.4375q0 5.09375 1.125 7.0q1.140625 1.890625 3.90625 1.890625q2.71875 0 3.75 -1.328125q1.03125 -1.328125 1.171875 -4.796875l6.890625 0zm26.34375 -17.015625l-8.4375 0l0 28.390625l-6.90625 0l0 -28.390625l-8.296875 0l0 -5.734375l23.640625 0l0 5.734375zm11.15625 28.390625l-6.890625 0l0 -34.125l6.890625 0l0 34.125zm29.8125 -14.0q0 6.875 -3.25 10.671875q-3.234375 3.796875 -9.0 3.796875q-5.75 0 -9.03125 -3.765625q-3.28125 -3.765625 -3.328125 -10.53125l0 -5.84375q0 -7.03125 3.25 -10.96875q3.265625 -3.9531174 9.0625 -3.9531174q5.6875 0 8.96875 3.8749924q3.28125 3.875 3.328125 10.890625l0 5.828125zm-6.90625 -5.71875q0 -4.609375 -1.3125 -6.859375q-1.3125 -2.25 -4.078125 -2.25q-2.75 0 -4.0625 2.171875q-1.3125 2.15625 -1.359375 6.59375l0 6.0625q0 4.484375 1.328125 6.609375q1.34375 2.109375 4.140625 2.109375q2.6875 0 4.0 -2.0625q1.3125 -2.078125 1.34375 -6.4375l0 -5.9375zm35.71875 19.71875l-6.890625 0l-10.078125 -22.390625l0 22.390625l-6.890625 0l0 -34.125l6.890625 0l10.09375 22.40625l0 -22.40625l6.875 0l0 34.125z" fill-rule="nonzero"/><path fill="#8e7cc3" d="m1006.41956 636.4906l0 0c0 -129.03992 104.607544 -233.64743 233.64746 -233.64743l0 0c61.96704 0 121.39624 24.616364 165.21362 68.43375c43.817383 43.817383 68.433716 103.24652 68.433716 165.21368l0 0c0 129.03986 -104.607544 233.64734 -233.64734 233.64734l0 0c-129.03992 0 -233.64746 -104.60748 -233.64746 -233.64734z" fill-rule="evenodd"/><path stroke="#674ea7" stroke-width="4.0" stroke-linejoin="round" stroke-linecap="butt" d="m1006.41956 636.4906l0 0c0 -129.03992 104.607544 -233.64743 233.64746 -233.64743l0 0c61.96704 0 121.39624 24.616364 165.21362 68.43375c43.817383 43.817383 68.433716 103.24652 68.433716 165.21368l0 0c0 129.03986 -104.607544 233.64734 -233.64734 233.64734l0 0c-129.03992 0 -233.64746 -104.60748 -233.64746 -233.64734z" fill-rule="evenodd"/><path fill="#ffffff" d="m1130.2819 624.57056l0 -34.125l9.015625 0q5.984375 0 9.53125 3.796875q3.546875 3.796875 3.625 10.40625l0 5.53125q0 6.71875 -3.5625 10.5625q-3.546875 3.828125 -9.78125 3.828125l-8.828125 0zm6.890625 -28.390625l0 22.671875l2.0625 0q3.4375 0 4.84375 -1.8125q1.40625 -1.828125 1.484375 -6.28125l0 -5.921875q0 -4.78125 -1.34375 -6.671875q-1.328125 -1.890625 -4.546875 -1.984375l-2.5 0zm37.851562 13.625l-10.734375 0l0 9.046875l12.703125 0l0 5.71875l-19.59375 0l0 -34.125l19.546875 0l0 5.734375l-12.65625 0l0 8.0625l10.734375 0l0 5.5625zm28.023438 -13.625l-8.4375 0l0 28.390625l-6.90625 0l0 -28.390625l-8.296875 0l0 -5.734375l23.640625 0l0 5.734375zm21.59375 13.625l-10.734375 0l0 9.046875l12.703125 0l0 5.71875l-19.59375 0l0 -34.125l19.546875 0l0 5.734375l-12.65625 0l0 8.0625l10.734375 0l0 5.5625zm29.054688 3.390625q-0.25 5.84375 -3.28125 8.84375q-3.015625 3.0 -8.53125 3.0q-5.78125 0 -8.875 -3.8125q-3.078125 -3.8125 -3.078125 -10.859375l0 -5.75q0 -7.03125 3.1875 -10.828125q3.1875 -3.8125 8.859375 -3.8125q5.578125 0 8.46875 3.125q2.90625 3.109375 3.296875 8.9375l-6.90625 0q-0.09375 -3.609375 -1.125 -4.96875q-1.015625 -1.375 -3.734375 -1.375q-2.765625 0 -3.921875 1.9375q-1.140625 1.921875 -1.203125 6.359375l0 6.4375q0 5.09375 1.125 7.0q1.140625 1.890625 3.90625 1.890625q2.71875 0 3.75 -1.328125q1.03125 -1.328125 1.171875 -4.796875l6.890625 0zm26.34375 -17.015625l-8.4375 0l0 28.390625l-6.90625 0l0 -28.390625l-8.296875 0l0 -5.734375l23.640625 0l0 5.734375zm11.15625 28.390625l-6.890625 0l0 -34.125l6.890625 0l0 34.125zm29.8125 -14.0q0 6.875 -3.25 10.671875q-3.234375 3.796875 -9.0 3.796875q-5.75 0 -9.03125 -3.765625q-3.28125 -3.765625 -3.328125 -10.53125l0 -5.84375q0 -7.03125 3.25 -10.96875q3.265625 -3.953125 9.0625 -3.953125q5.6875 0 8.96875 3.875q3.28125 3.875 3.328125 10.890625l0 5.828125zm-6.90625 -5.71875q0 -4.609375 -1.3125 -6.859375q-1.3125 -2.25 -4.078125 -2.25q-2.75 0 -4.0625 2.171875q-1.3125 2.15625 -1.359375 6.59375l0 6.0625q0 4.484375 1.328125 6.609375q1.34375 2.109375 4.140625 2.109375q2.6875 0 4.0 -2.0625q1.3125 -2.078125 1.34375 -6.4375l0 -5.9375zm35.71875 19.71875l-6.890625 0l-10.078125 -22.390625l0 22.390625l-6.890625 0l0 -34.125l6.890625 0l10.09375 22.40625l0 -22.40625l6.875 0l0 34.125z" fill-rule="nonzero"/><path fill="#ffffff" d="m1158.1998 668.6487l-10.703125 0l0 13.921875l-6.890625 0l0 -34.125l18.890625 0l0 5.734375l-12.0 0l0 8.75l10.703125 0l0 5.71875zm27.421875 -20.203125l0 23.625q-0.046875 5.3125 -2.9375 8.140625q-2.875 2.828125 -8.265625 2.828125q-5.484375 0 -8.375 -2.859375q-2.890625 -2.859375 -2.890625 -8.28125l0 -23.453125l6.9375 0l0 23.484375q0 2.90625 0.9375 4.15625q0.9375 1.234375 3.390625 1.234375q2.46875 0 3.375 -1.234375q0.921875 -1.234375 0.9375 -4.046875l0 -23.59375l6.890625 0zm29.09375 34.125l-6.890625 0l-10.078125 -22.390625l0 22.390625l-6.890625 0l0 -34.125l6.890625 0l10.09375 22.40625l0 -22.40625l6.875 0l0 34.125zm28.65625 -11.375q-0.25 5.84375 -3.28125 8.84375q-3.015625 3.0 -8.53125 3.0q-5.78125 0 -8.875 -3.8125q-3.078125 -3.8125 -3.078125 -10.859375l0 -5.75q0 -7.03125 3.1875 -10.828125q3.1875 -3.8125 8.859375 -3.8125q5.578125 0 8.46875 3.125q2.90625 3.109375 3.296875 8.9375l-6.90625 0q-0.09375 -3.609375 -1.125 -4.96875q-1.015625 -1.375 -3.734375 -1.375q-2.765625 0 -3.921875 1.9375q-1.140625 1.921875 -1.203125 6.359375l0 6.4375q0 5.09375 1.125 7.0q1.140625 1.890625 3.90625 1.890625q2.71875 0 3.75 -1.328125q1.03125 -1.328125 1.171875 -4.796875l6.890625 0zm26.34375 -17.015625l-8.4375 0l0 28.390625l-6.90625 0l0 -28.390625l-8.296875 0l0 -5.734375l23.640625 0l0 5.734375zm11.15625 28.390625l-6.890625 0l0 -34.125l6.890625 0l0 34.125zm29.8125 -14.0q0 6.875 -3.25 10.671875q-3.234375 3.796875 -9.0 3.796875q-5.75 0 -9.03125 -3.765625q-3.28125 -3.765625 -3.328125 -10.53125l0 -5.84375q0 -7.03125 3.25 -10.96875q3.265625 -3.953125 9.0625 -3.953125q5.6875 0 8.96875 3.875q3.28125 3.875 3.328125 10.890625l0 5.828125zm-6.90625 -5.71875q0 -4.609375 -1.3125 -6.859375q-1.3125 -2.25 -4.078125 -2.25q-2.75 0 -4.0625 2.171875q-1.3125 2.15625 -1.359375 6.59375l0 6.0625q0 4.484375 1.328125 6.609375q1.34375 2.109375 4.140625 2.109375q2.6875 0 4.0 -2.0625q1.3125 -2.078125 1.34375 -6.4375l0 -5.9375zm35.71875 19.71875l-6.890625 0l-10.078125 -22.390625l0 22.390625l-6.890625 0l0 -34.125l6.890625 0l10.09375 22.40625l0 -22.40625l6.875 0l0 34.125z" fill-rule="nonzero"/><path fill="#000000" fill-opacity="0.0" d="m1805.6194 253.06105l426.41968 0l0 225.48732l-426.41968 0z" fill-rule="evenodd"/><path fill="#000000" d="m1979.6261 352.84473q0 3.4375 -1.625 5.34375q-1.625 1.890625 -4.515625 1.890625q-2.859375 0 -4.5 -1.875q-1.640625 -1.890625 -1.671875 -5.28125l0 -2.90625q0 -3.515625 1.625 -5.484375q1.640625 -1.984375 4.53125 -1.984375q2.84375 0 4.484375 1.9375q1.640625 1.9375 1.671875 5.4375l0 2.921875zm-3.46875 -2.859375q0 -2.3125 -0.65625 -3.4375q-0.65625 -1.125 -2.03125 -1.125q-1.375 0 -2.03125 1.09375q-0.65625 1.078125 -0.671875 3.296875l0 3.03125q0 2.234375 0.65625 3.296875q0.671875 1.0625 2.0625 1.0625q1.359375 0 2.015625 -1.03125q0.65625 -1.046875 0.65625 -3.21875l0 -2.96875zm5.9375 9.859375l0 -17.0625l5.265625 0q2.671875 0 4.0625 1.1875q1.390625 1.1875 1.390625 3.484375q0 1.296875 -0.578125 2.234375q-0.5625 0.9375 -1.5625 1.375q1.140625 0.328125 1.765625 1.328125q0.625 0.984375 0.625 2.4375q0 2.484375 -1.375 3.75q-1.359375 1.265625 -3.953125 1.265625l-5.640625 0zm3.4375 -7.421875l0 4.5625l2.203125 0q0.9375 0 1.40625 -0.578125q0.484375 -0.578125 0.484375 -1.625q0 -2.296875 -1.65625 -2.359375l-2.4375 0zm0 -2.5l1.796875 0q2.03125 0 2.03125 -2.109375q0 -1.15625 -0.46875 -1.65625q-0.46875 -0.5 -1.53125 -0.5l-1.828125 0l0 4.265625zm17.230469 5.4375q0 -1.03125 -0.53125 -1.5625q-0.53125 -0.546875 -1.9375 -1.109375q-2.5625 -0.984375 -3.6875 -2.28125q-1.125 -1.3125 -1.125 -3.09375q0 -2.15625 1.515625 -3.453125q1.53125 -1.3125 3.890625 -1.3125q1.578125 0 2.796875 0.671875q1.234375 0.65625 1.890625 1.859375q0.671875 1.203125 0.671875 2.734375l-3.4375 0q0 -1.1875 -0.515625 -1.8125q-0.5 -0.625 -1.46875 -0.625q-0.890625 0 -1.40625 0.53125q-0.5 0.53125 -0.5 1.4375q0 0.703125 0.5625 1.265625q0.5625 0.5625 2.0 1.171875q2.484375 0.90625 3.609375 2.21875q1.140625 1.3125 1.140625 3.34375q0 2.21875 -1.421875 3.484375q-1.40625 1.25 -3.84375 1.25q-1.65625 0 -3.015625 -0.671875q-1.359375 -0.6875 -2.125 -1.953125q-0.765625 -1.265625 -0.765625 -2.984375l3.453125 0q0 1.46875 0.5625 2.140625q0.578125 0.671875 1.890625 0.671875q1.796875 0 1.796875 -1.921875zm14.5703125 -2.90625l-5.375 0l0 4.53125l6.359375 0l0 2.859375l-9.796875 0l0 -17.0625l9.765625 0l0 2.875l-6.328125 0l0 4.03125l5.375 0l0 2.765625zm8.136719 1.15625l-1.71875 0l0 6.234375l-3.4375 0l0 -17.0625l5.484375 0q2.59375 0 4.0 1.34375q1.421875 1.34375 1.421875 3.8125q0 3.390625 -2.46875 4.75l2.984375 6.984375l0 0.171875l-3.703125 0l-2.5625 -6.234375zm-1.71875 -2.875l1.953125 0q1.03125 0 1.546875 -0.6875q0.515625 -0.6875 0.515625 -1.828125q0 -2.5625 -2.0 -2.5625l-2.015625 0l0 5.078125zm15.3828125 4.421875l2.875 -12.375l3.84375 0l-4.921875 17.0625l-3.578125 0l-4.890625 -17.0625l3.8125 0l2.859375 12.375zm17.140747 -2.703125l-5.375 0l0 4.53125l6.359375 0l0 2.859375l-9.796997 0l0 -17.0625l9.765747 0l0 2.875l-6.328125 0l0 4.03125l5.375 0l0 2.765625zm2.9648438 7.390625l0 -17.0625l4.515381 0q2.984375 0 4.75 1.90625q1.78125 1.890625 1.8125 5.1875l0 2.765625q0 3.375 -1.78125 5.296875q-1.765625 1.90625 -4.875 1.90625l-4.421631 0zm3.4372559 -14.1875l0 11.328125l1.03125 0q1.734375 0 2.4375 -0.90625q0.703125 -0.90625 0.734375 -3.140625l0 -2.96875q0 -2.390625 -0.671875 -3.328125q-0.671875 -0.9375 -2.265625 -0.984375l-1.265625 0z" fill-rule="nonzero"/><path fill="#000000" d="m1942.7941 382.84473l0 6.0l-3.4375 0l0 -17.0625l5.8125 0q2.53125 0 4.03125 1.578125q1.515625 1.5625 1.515625 4.078125q0 2.5 -1.5 3.953125q-1.484375 1.453125 -4.125 1.453125l-2.296875 0zm0 -2.875l2.375 0q0.984375 0 1.515625 -0.640625q0.546875 -0.640625 0.546875 -1.875q0 -1.28125 -0.5625 -2.03125q-0.546875 -0.765625 -1.46875 -0.765625l-2.40625 0l0 5.3125zm22.230469 1.875q0 3.4375 -1.625 5.34375q-1.625 1.890625 -4.515625 1.890625q-2.859375 0 -4.5 -1.875q-1.640625 -1.890625 -1.671875 -5.28125l0 -2.90625q0 -3.515625 1.625 -5.484375q1.640625 -1.984375 4.53125 -1.984375q2.84375 0 4.484375 1.9375q1.640625 1.9375 1.671875 5.4375l0 2.921875zm-3.46875 -2.859375q0 -2.3125 -0.65625 -3.4375q-0.65625 -1.125 -2.03125 -1.125q-1.375 0 -2.03125 1.09375q-0.65625 1.078125 -0.671875 3.296875l0 3.03125q0 2.234375 0.65625 3.296875q0.671875 1.0625 2.0625 1.0625q1.359375 0 2.015625 -1.03125q0.65625 -1.046875 0.65625 -3.21875l0 -2.96875zm9.53125 9.859375l-3.4375 0l0 -17.0625l3.4375 0l0 17.0625zm14.8203125 0l-3.4375 0l-5.046875 -11.1875l0 11.1875l-3.4375 0l0 -17.0625l3.4375 0l5.0625 11.203125l0 -11.203125l3.421875 0l0 17.0625zm13.8203125 -14.1875l-4.21875 0l0 14.1875l-3.453125 0l0 -14.1875l-4.15625 0l0 -2.875l11.828125 0l0 2.875zm10.953125 8.1875l0 6.0l-3.4375 0l0 -17.0625l5.8125 0q2.53125 0 4.03125 1.578125q1.515625 1.5625 1.515625 4.078125q0 2.5 -1.5 3.953125q-1.484375 1.453125 -4.125 1.453125l-2.296875 0zm0 -2.875l2.375 0q0.984375 0 1.515625 -0.640625q0.546875 -0.640625 0.546875 -1.875q0 -1.28125 -0.5625 -2.03125q-0.546875 -0.765625 -1.46875 -0.765625l-2.40625 0l0 5.3125zm18.355469 5.375l-4.703125 0l-0.90625 3.5l-3.640625 0l5.328125 -17.0625l3.15625 0l5.359375 17.0625l-3.671875 0l-0.921875 -3.5zm-3.953125 -2.859375l3.1875 0l-1.59375 -6.09375l-1.59375 6.09375zm21.191406 -7.828125l-4.21875 0l0 14.1875l-3.453125 0l0 -14.1875l-4.15625 0l0 -2.875l11.828125 0l0 2.875zm13.031372 0l-4.21875 0l0 14.1875l-3.453125 0l0 -14.1875l-4.156372 0l0 -2.875l11.828247 0l0 2.875zm10.796631 6.796875l-5.375 0l0 4.53125l6.359375 0l0 2.859375l-9.796631 0l0 -17.0625l9.765381 0l0 2.875l-6.328125 0l0 4.03125l5.375 0l0 2.765625zm8.136719 1.15625l-1.71875 0l0 6.234375l-3.4375 0l0 -17.0625l5.484375 0q2.59375 0 4.0 1.34375q1.421875 1.34375 1.421875 3.8125q0 3.390625 -2.46875 4.75l2.984375 6.984375l0 0.171875l-3.703125 0l-2.5625 -6.234375zm-1.71875 -2.875l1.953125 0q1.03125 0 1.546875 -0.6875q0.515625 -0.6875 0.515625 -1.828125q0 -2.5625 -2.0 -2.5625l-2.015625 0l0 5.078125zm21.757812 9.109375l-3.4375 0l-5.046875 -11.1875l0 11.1875l-3.4375 0l0 -17.0625l3.4375 0l5.0625 11.203125l0 -11.203125l3.421875 0l0 17.0625z" fill-rule="nonzero"/><path fill="#000000" fill-opacity="0.0" d="m-0.0010375632 263.68536l325.80374 0l0 225.48734l-325.80374 0z" fill-rule="evenodd"/><path fill="#cccccc" d="m73.86958 349.7434l-10.734375 0l0 9.046875l12.703125 0l0 5.71875l-19.59375 0l0 -34.125l19.546875 0l0 5.734375l-12.65625 0l0 8.0625l10.734375 0l0 5.5625zm14.9296875 -19.359375l6.4375 24.671875l6.421875 -24.671875l9.0 0l0 34.125l-6.90625 0l0 -9.234375l0.625 -14.234375l-6.8125 23.46875l-4.6875 0l-6.828125 -23.46875l0.640625 14.234375l0 9.234375l-6.890625 0l0 -34.125l9.0 0zm34.289062 22.125l0 12.0l-6.890625 0l0 -34.125l11.625 0q5.0625 0 8.0625 3.140625q3.015625 3.140625 3.015625 8.15625q0 5.015625 -2.984375 7.921875q-2.96875 2.90625 -8.234375 2.90625l-4.59375 0zm0 -5.75l4.734375 0q1.96875 0 3.046875 -1.28125q1.078125 -1.296875 1.078125 -3.75q0 -2.5625 -1.109375 -4.0625q-1.09375 -1.515625 -2.953125 -1.546875l-4.796875 0l0 10.640625zm27.601562 17.75l-6.890625 0l0 -34.125l6.890625 0l0 34.125zm16.125 -12.46875l-3.421875 0l0 12.46875l-6.890625 0l0 -34.125l11.0 0q5.171875 0 8.0 2.6875q2.828125 2.671875 2.828125 7.625q0 6.796875 -4.953125 9.515625l5.984375 13.96875l0 0.328125l-7.40625 0l-5.140625 -12.46875zm-3.421875 -5.75l3.921875 0q2.0625 0 3.09375 -1.359375q1.03125 -1.375 1.03125 -3.671875q0 -5.140625 -4.015625 -5.140625l-4.03125 0l0 10.171875zm26.859375 18.21875l-6.890625 0l0 -34.125l6.890625 0l0 34.125zm28.921875 -11.375q-0.25 5.84375 -3.28125 8.84375q-3.015625 3.0 -8.53125 3.0q-5.78125 0 -8.875 -3.8125q-3.078125 -3.8125 -3.078125 -10.859375l0 -5.75q0 -7.03125 3.1875 -10.828125q3.1875 -3.8125 8.859375 -3.8125q5.578125 0 8.46875 3.125q2.90625 3.109375 3.296875 8.9375l-6.90625 0q-0.09375 -3.609375 -1.125 -4.96875q-1.015625 -1.375 -3.734375 -1.375q-2.765625 0 -3.921875 1.9375q-1.140625 1.921875 -1.203125 6.359375l0 6.4375q0 5.09375 1.125 7.0q1.140625 1.890625 3.90625 1.890625q2.71875 0 3.75 -1.328125q1.03125 -1.328125 1.171875 -4.796875l6.890625 0zm20.53125 4.390625l-9.390625 0l-1.828125 6.984375l-7.296875 0l10.671875 -34.125l6.296875 0l10.734375 34.125l-7.359375 0l-1.828125 -6.984375zm-7.890625 -5.75l6.375 0l-3.1875 -12.15625l-3.1875 12.15625zm27.164047 7.015625l12.09375 0l0 5.71875l-18.98436 0l0 -34.125l6.8906097 0l0 28.40625z" fill-rule="nonzero"/><path fill="#cccccc" d="m66.64302 422.50903l-6.890625 0l0 -34.125l6.890625 0l0 34.125zm29.65625 0l-6.890625 0l-10.078125 -22.390625l0 22.390625l-6.890625 0l0 -34.125l6.890625 0l10.09375 22.40625l0 -22.40625l6.875 0l0 34.125zm27.625 -28.390625l-8.4375 0l0 28.390625l-6.90625 0l0 -28.390625l-8.296875 0l0 -5.734375l23.640625 0l0 5.734375zm21.59375 13.625l-10.734375 0l0 9.046875l12.703125 0l0 5.71875l-19.59375 0l0 -34.125l19.546875 0l0 5.734375l-12.65625 0l0 8.0625l10.734375 0l0 5.5625zm29.789062 14.765625l-6.890625 0l-10.078125 -22.390625l0 22.390625l-6.890625 0l0 -34.125l6.890625 0l10.09375 22.40625l0 -22.40625l6.875 0l0 34.125zm19.9375 -8.953125q0 -2.09375 -1.0625 -3.15625q-1.0625 -1.0625 -3.875 -2.21875q-5.140625 -1.9375 -7.390625 -4.546875q-2.25 -2.625 -2.25 -6.1875q0 -4.3125 3.0625 -6.921875q3.0625 -2.609375 7.765625 -2.609375q3.140625 0 5.59375 1.328125q2.46875 1.3125 3.796875 3.734375q1.328125 2.40625 1.328125 5.484375l-6.875 0q0 -2.390625 -1.015625 -3.640625q-1.015625 -1.265625 -2.9375 -1.265625q-1.8125 0 -2.828125 1.078125q-1.0 1.0625 -1.0 2.859375q0 1.40625 1.125 2.546875q1.125 1.140625 3.984375 2.359375q5.0 1.796875 7.25 4.421875q2.265625 2.625 2.265625 6.6875q0 4.453125 -2.84375 6.96875q-2.828125 2.5 -7.703125 2.5q-3.296875 0 -6.015625 -1.359375q-2.71875 -1.359375 -4.265625 -3.890625q-1.53125 -2.53125 -1.53125 -5.984375l6.921875 0q0 2.953125 1.140625 4.296875q1.15625 1.328125 3.75 1.328125q3.609375 0 3.609375 -3.8125zm18.703125 8.953125l-6.890625 0l0 -34.125l6.890625 0l0 34.125zm27.890625 -28.390625l-8.4375 0l0 28.390625l-6.90625 0l0 -28.390625l-8.296875 0l0 -5.734375l23.640625 0l0 5.734375zm14.249985 9.59375l5.140625 -15.328125l7.5 0l-9.140625 21.75l0 12.375l-6.9843597 0l0 -12.375l-9.171875 -21.75l7.5 0l5.1562347 15.328125z" fill-rule="nonzero"/><path fill="#000000" fill-opacity="0.0" d="m179.6639 3.6238089l258.42706 0l0 225.48734l-258.42706 0z" fill-rule="evenodd"/><path fill="#cccccc" d="m259.91647 90.5256l-10.70311 0l0 13.921875l-6.890625 0l0 -34.125l18.89061 0l0 5.734375l-11.999985 0l0 8.75l10.70311 0l0 5.71875zm12.421875 13.921875l-6.890625 0l0 -34.125l6.890625 0l0 34.125zm27.890625 -28.390625l-8.4375 0l0 28.390625l-6.90625 0l0 -28.390625l-8.296875 0l0 -5.734375l23.640625 0l0 5.734375zm26.06253 0l-8.4375 0l0 28.390625l-6.90625 0l0 -28.390625l-8.2969055 0l0 -5.734375l23.640656 0l0 5.734375zm21.59375 13.625l-10.734375 0l0 9.046875l12.703125 0l0 5.71875l-19.59375 0l0 -34.125l19.546875 0l0 5.734375l-12.65625 0l0 8.0625l10.734375 0l0 5.5625zm5.9296875 14.765625l0 -34.125l9.015625 0q5.984375 0 9.53125 3.796875q3.546875 3.796875 3.625 10.40625l0 5.53125q0 6.71875 -3.5625 10.5625q-3.546875 3.828125 -9.78125 3.828125l-8.828125 0zm6.890625 -28.390625l0 22.671875l2.0625 0q3.4375 0 4.84375 -1.8125q1.40625 -1.828125 1.484375 -6.28125l0 -5.921875q0 -4.78125 -1.34375 -6.671875q-1.328125 -1.890625 -4.546875 -1.984375l-2.5 0z" fill-rule="nonzero"/><path fill="#cccccc" d="m251.12352 128.32248l6.4374847 24.671875l6.421875 -24.671875l9.0 0l0 34.125l-6.90625 0l0 -9.234375l0.625 -14.234375l-6.8125 23.46875l-4.6874847 0l-6.828125 -23.46875l0.640625 14.234375l0 9.234375l-6.890625 0l0 -34.125l9.0 0zm51.414047 20.125q0 6.875 -3.25 10.671875q-3.234375 3.796875 -9.0 3.796875q-5.75 0 -9.03125 -3.765625q-3.28125 -3.765625 -3.328125 -10.53125l0 -5.84375q0 -7.03125 3.25 -10.96875q3.265625 -3.953125 9.0625 -3.953125q5.6875 0 8.96875 3.875q3.28125 3.875 3.328125 10.890625l0 5.828125zm-6.90625 -5.71875q0 -4.609375 -1.3125 -6.859375q-1.3125 -2.25 -4.078125 -2.25q-2.75 0 -4.0625 2.171875q-1.3125 2.15625 -1.359375 6.59375l0 6.0625q0 4.484375 1.328125 6.609375q1.34375 2.109375 4.140625 2.109375q2.6875 0 4.0 -2.0625q1.3125 -2.078125 1.34375 -6.4375l0 -5.9375zm11.859375 19.71875l0 -34.125l9.0156555 0q5.984375 0 9.53125 3.796875q3.546875 3.796875 3.625 10.40625l0 5.53125q0 6.71875 -3.5625 10.5625q-3.546875 3.828125 -9.78125 3.828125l-8.8281555 0zm6.8906555 -28.390625l0 22.671875l2.0625 0q3.4375 0 4.84375 -1.8125q1.40625 -1.828125 1.484375 -6.28125l0 -5.921875q0 -4.78125 -1.34375 -6.671875q-1.328125 -1.890625 -4.546875 -1.984375l-2.5 0zm37.851562 13.625l-10.734375 0l0 9.046875l12.703125 0l0 5.71875l-19.59375 0l0 -34.125l19.546875 0l0 5.734375l-12.65625 0l0 8.0625l10.734375 0l0 5.5625zm12.8203125 9.046875l12.09375 0l0 5.71875l-18.984375 0l0 -34.125l6.890625 0l0 28.40625z" fill-rule="nonzero"/><path fill="#000000" fill-opacity="0.0" d="m145.97556 523.7469l325.80374 0l0 225.48737l-325.80374 0z" fill-rule="evenodd"/><path fill="#cccccc" d="m233.39696 612.1018l-3.421875 0l0 12.46875l-6.890625 0l0 -34.125l11.0 0q5.171875 0 8.0 2.6875q2.828125 2.671875 2.828125 7.625q0 6.796875 -4.953125 9.515625l5.984375 13.96875l0 0.328125l-7.40625 0l-5.140625 -12.46875zm-3.421875 -5.75l3.921875 0q2.0625 0 3.09375 -1.359375q1.03125 -1.375 1.03125 -3.671875q0 -5.140625 -4.015625 -5.140625l-4.03125 0l0 10.171875zm35.95314 11.234375l-9.390625 0l-1.8281403 6.984375l-7.296875 0l10.67189 -34.125l6.296875 0l10.734375 34.125l-7.359375 0l-1.828125 -6.984375zm-7.890625 -5.75l6.375 0l-3.1875 -12.15625l-3.1875 12.15625zm44.132812 12.734375l-6.890625 0l-10.078125 -22.390625l0 22.390625l-6.890625 0l0 -34.125l6.890625 0l10.09375 22.40625l0 -22.40625l6.875 0l0 34.125zm5.53125 0l0 -34.125l9.015625 0q5.984375 0 9.53125 3.796875q3.546875 3.796875 3.625 10.40625l0 5.53125q0 6.71875 -3.5625 10.5625q-3.546875 3.828125 -9.78125 3.828125l-8.828125 0zm6.890625 -28.390625l0 22.671875l2.0625 0q3.4375 0 4.84375 -1.8125q1.40625 -1.828125 1.484375 -6.28125l0 -5.921875q0 -4.78125 -1.34375 -6.671875q-1.328125 -1.890625 -4.546875 -1.984375l-2.5 0zm44.242188 14.390625q0 6.875 -3.25 10.671875q-3.234375 3.796875 -9.0 3.796875q-5.75 0 -9.03125 -3.765625q-3.28125 -3.765625 -3.328125 -10.53125l0 -5.84375q0 -7.03125 3.25 -10.96875q3.265625 -3.953125 9.0625 -3.953125q5.6875 0 8.96875 3.875q3.28125 3.875 3.328125 10.890625l0 5.828125zm-6.90625 -5.71875q0 -4.609375 -1.3125 -6.859375q-1.3125 -2.25 -4.078125 -2.25q-2.75 0 -4.0625 2.171875q-1.3125 2.15625 -1.359375 6.59375l0 6.0625q0 4.484375 1.328125 6.609375q1.34375 2.109375 4.140625 2.109375q2.6875 0 4.0 -2.0625q1.3125 -2.078125 1.34375 -6.4375l0 -5.9375zm20.859375 -14.40625l6.4375 24.671875l6.421875 -24.671875l9.0 0l0 34.125l-6.90625 0l0 -9.234375l0.625 -14.234375l-6.8125 23.46875l-4.6875 0l-6.828125 -23.46875l0.640625 14.234375l0 9.234375l-6.890625 0l0 -34.125l9.0 0z" fill-rule="nonzero"/><path fill="#cccccc" d="m225.70555 670.57056l0 12.0l-6.890625 0l0 -34.125l11.625 0q5.0625 0 8.0625 3.140625q3.015625 3.140625 3.015625 8.15625q0 5.015625 -2.984375 7.921875q-2.96875 2.90625 -8.234375 2.90625l-4.59375 0zm0 -5.75l4.734375 0q1.96875 0 3.046875 -1.28125q1.078125 -1.296875 1.078125 -3.75q0 -2.5625 -1.109375 -4.0625q-1.09375 -1.515625 -2.953125 -1.546875l-4.796875 0l0 10.640625zm30.742203 5.28125l-3.4218903 0l0 12.46875l-6.890625 0l0 -34.125l11.000015 0q5.171875 0 8.0 2.6875q2.828125 2.671875 2.828125 7.625q0 6.796875 -4.953125 9.515625l5.984375 13.96875l0 0.328125l-7.40625 0l-5.140625 -12.46875zm-3.4218903 -5.75l3.9218903 0q2.0625 0 3.09375 -1.359375q1.03125 -1.375 1.03125 -3.671875q0 -5.140625 -4.015625 -5.140625l-4.0312653 0l0 10.171875zm43.687515 4.21875q0 6.875 -3.25 10.671875q-3.234375 3.796875 -9.0 3.796875q-5.75 0 -9.03125 -3.765625q-3.28125 -3.765625 -3.328125 -10.53125l0 -5.84375q0 -7.03125 3.25 -10.96875q3.265625 -3.953125 9.0625 -3.953125q5.6875 0 8.96875 3.875q3.28125 3.875 3.328125 10.890625l0 5.828125zm-6.90625 -5.71875q0 -4.609375 -1.3125 -6.859375q-1.3125 -2.25 -4.078125 -2.25q-2.75 0 -4.0625 2.171875q-1.3125 2.15625 -1.359375 6.59375l0 6.0625q0 4.484375 1.328125 6.609375q1.34375 2.109375 4.140625 2.109375q2.6875 0 4.0 -2.0625q1.3125 -2.078125 1.34375 -6.4375l0 -5.9375zm34.984375 8.34375q-0.25 5.84375 -3.28125 8.84375q-3.015625 3.0 -8.53125 3.0q-5.78125 0 -8.875 -3.8125q-3.078125 -3.8125 -3.078125 -10.859375l0 -5.75q0 -7.03125 3.1875 -10.828125q3.1875 -3.8125 8.859375 -3.8125q5.578125 0 8.46875 3.125q2.90625 3.109375 3.296875 8.9375l-6.90625 0q-0.09375 -3.609375 -1.125 -4.96875q-1.015625 -1.375 -3.734375 -1.375q-2.765625 0 -3.921875 1.9375q-1.140625 1.921875 -1.203125 6.359375l0 6.4375q0 5.09375 1.125 7.0q1.140625 1.890625 3.90625 1.890625q2.71875 0 3.75 -1.328125q1.03125 -1.328125 1.171875 -4.796875l6.890625 0zm21.875 -3.390625l-10.734375 0l0 9.046875l12.703125 0l0 5.71875l-19.59375 0l0 -34.125l19.546875 0l0 5.734375l-12.65625 0l0 8.0625l10.734375 0l0 5.5625zm20.335938 5.8125q0 -2.09375 -1.0625 -3.15625q-1.0625 -1.0625 -3.875 -2.21875q-5.140625 -1.9375 -7.390625 -4.546875q-2.25 -2.625 -2.25 -6.1875q0 -4.3125 3.0625 -6.921875q3.0625 -2.609375 7.765625 -2.609375q3.140625 0 5.59375 1.328125q2.46875 1.3125 3.796875 3.734375q1.328125 2.40625 1.328125 5.484375l-6.875 0q0 -2.390625 -1.015625 -3.640625q-1.015625 -1.265625 -2.9375 -1.265625q-1.8125 0 -2.828125 1.078125q-1.0 1.0625 -1.0 2.859375q0 1.40625 1.125 2.546875q1.125 1.140625 3.984375 2.359375q5.0 1.796875 7.25 4.421875q2.265625 2.625 2.265625 6.6875q0 4.453125 -2.84375 6.96875q-2.828125 2.5 -7.703125 2.5q-3.296875 0 -6.015625 -1.359375q-2.71875 -1.359375 -4.265625 -3.890625q-1.53125 -2.53125 -1.53125 -5.984375l6.921875 0q0 2.953125 1.140625 4.296875q1.15625 1.328125 3.75 1.328125q3.609375 0 3.609375 -3.8125zm25.921875 0q0 -2.09375 -1.0625 -3.15625q-1.0625 -1.0625 -3.875 -2.21875q-5.140625 -1.9375 -7.390625 -4.546875q-2.25 -2.625 -2.25 -6.1875q0 -4.3125 3.0625 -6.921875q3.0625 -2.609375 7.765625 -2.609375q3.140625 0 5.59375 1.328125q2.46875 1.3125 3.796875 3.734375q1.328125 2.40625 1.328125 5.484375l-6.875 0q0 -2.390625 -1.015625 -3.640625q-1.015625 -1.265625 -2.9375 -1.265625q-1.8125 0 -2.828125 1.078125q-1.0 1.0625 -1.0 2.859375q0 1.40625 1.125 2.546875q1.125 1.140625 3.984375 2.359375q5.0 1.796875 7.25 4.421875q2.265625 2.625 2.265625 6.6875q0 4.453125 -2.84375 6.96875q-2.828125 2.5 -7.703125 2.5q-3.296875 0 -6.015625 -1.359375q-2.71875 -1.359375 -4.265625 -3.890625q-1.53125 -2.53125 -1.53125 -5.984375l6.921875 0q0 2.953125 1.140625 4.296875q1.15625 1.328125 3.75 1.328125q3.609375 0 3.609375 -3.8125z" fill-rule="nonzero"/><path fill="#000000" fill-opacity="0.0" d="m1233.2108 -397.9101l426.41956 0l0 164.39915l-426.41956 0z" fill-rule="evenodd"/><path fill="#cccccc" d="m1413.7955 -326.1549q0 -1.03125 -0.53125 -1.5625q-0.53125 -0.546875 -1.9375 -1.109375q-2.5625 -0.984375 -3.6875 -2.28125q-1.125 -1.3125 -1.125 -3.09375q0 -2.15625 1.515625 -3.453125q1.53125 -1.3125 3.890625 -1.3125q1.578125 0 2.796875 0.671875q1.234375 0.65625 1.890625 1.859375q0.671875 1.203125 0.671875 2.734375l-3.4375 0q0 -1.1875 -0.515625 -1.8125q-0.5 -0.625 -1.46875 -0.625q-0.890625 0 -1.40625 0.53125q-0.5 0.53125 -0.5 1.4375q0 0.703125 0.5625 1.265625q0.5625 0.5625 2.0 1.171875q2.484375 0.90625 3.609375 2.21875q1.140625 1.3125 1.140625 3.34375q0 2.21875 -1.421875 3.484375q-1.40625 1.25 -3.84375 1.25q-1.65625 0 -3.015625 -0.671875q-1.359375 -0.6875 -2.125 -1.953125q-0.765625 -1.265625 -0.765625 -2.984375l3.453125 0q0 1.46875 0.5625 2.140625q0.578125 0.671875 1.890625 0.671875q1.796875 0 1.796875 -1.921875zm13.8984375 0.984375l-4.703125 0l-0.90625 3.5l-3.640625 0l5.328125 -17.0625l3.15625 0l5.359375 17.0625l-3.671875 0l-0.921875 -3.5zm-3.953125 -2.859375l3.1875 0l-1.59375 -6.09375l-1.59375 6.09375zm14.644531 -10.703125l3.21875 12.34375l3.21875 -12.34375l4.5 0l0 17.0625l-3.46875 0l0 -4.625l0.328125 -7.109375l-3.421875 11.734375l-2.34375 0l-3.40625 -11.734375l0.3125 7.109375l0 4.625l-3.4375 0l0 -17.0625l4.5 0zm17.136719 11.0625l0 6.0l-3.4375 0l0 -17.0625l5.8125 0q2.53125 0 4.03125 1.578125q1.515625 1.5625 1.515625 4.078125q0 2.5 -1.5 3.953125q-1.484375 1.453125 -4.125 1.453125l-2.296875 0zm0 -2.875l2.375 0q0.984375 0 1.515625 -0.640625q0.546875 -0.640625 0.546875 -1.875q0 -1.28125 -0.5625 -2.03125q-0.546875 -0.765625 -1.46875 -0.765625l-2.40625 0l0 5.3125zm13.652344 6.015625l6.046875 0l0 2.859375l-9.484375 0l0 -17.0625l3.4375 0l0 14.203125zm16.859375 -4.53125l-5.375 0l0 4.53125l6.359375 0l0 2.859375l-9.796875 0l0 -17.0625l9.765625 0l0 2.875l-6.328125 0l0 4.03125l5.375 0l0 2.765625z" fill-rule="nonzero"/><path fill="#cccccc" d="m1416.2819 -299.01428l1.625 -10.71875l3.40625 0l-3.03125 17.0625l-3.453125 0l-2.0 -10.0625l-1.96875 10.0625l-3.46875 0l-3.046875 -17.0625l3.4375 0l1.609375 10.703125l2.0 -10.703125l2.890625 0l2.0 10.71875zm10.4921875 6.34375l-3.4375 0l0 -17.0625l3.4375 0l0 17.0625zm14.8203125 0l-3.4375 0l-5.046875 -11.1875l0 11.1875l-3.4375 0l0 -17.0625l3.4375 0l5.0625 11.203125l0 -11.203125l3.421875 0l0 17.0625zm2.7734375 0l0 -17.0625l4.515625 0q2.984375 0 4.75 1.90625q1.78125 1.890625 1.8125 5.1875l0 2.765625q0 3.375 -1.78125 5.296875q-1.765625 1.90625 -4.875 1.90625l-4.421875 0zm3.4375 -14.1875l0 11.328125l1.03125 0q1.734375 0 2.4375 -0.90625q0.703125 -0.90625 0.734375 -3.140625l0 -2.96875q0 -2.390625 -0.671875 -3.328125q-0.671875 -0.9375 -2.265625 -0.984375l-1.265625 0zm22.136719 7.1875q0 3.4375 -1.625 5.34375q-1.625 1.890625 -4.515625 1.890625q-2.859375 0 -4.5 -1.875q-1.640625 -1.890625 -1.671875 -5.28125l0 -2.90625q0 -3.515625 1.625 -5.484375q1.640625 -1.984375 4.53125 -1.984375q2.84375 0 4.484375 1.9375q1.640625 1.9375 1.671875 5.4375l0 2.921875zm-3.46875 -2.859375q0 -2.3125 -0.65625 -3.4375q-0.65625 -1.125 -2.03125 -1.125q-1.375 0 -2.03125 1.09375q-0.65625 1.078125 -0.671875 3.296875l0 3.03125q0 2.234375 0.65625 3.296875q0.671875 1.0625 2.0625 1.0625q1.359375 0 2.015625 -1.03125q0.65625 -1.046875 0.65625 -3.21875l0 -2.96875zm17.015625 3.515625l1.625 -10.71875l3.40625 0l-3.03125 17.0625l-3.453125 0l-2.0 -10.0625l-1.96875 10.0625l-3.46875 0l-3.046875 -17.0625l3.4375 0l1.609375 10.703125l2.0 -10.703125l2.890625 0l2.0 10.71875z" fill-rule="nonzero"/><path fill="#000000" fill-opacity="0.0" d="m1233.2108 953.5104l426.41956 0l0 164.39917l-426.41956 0z" fill-rule="evenodd"/><path fill="#cccccc" d="m1391.4655 1024.0625q-0.125 2.921875 -1.640625 4.421875q-1.515625 1.5 -4.265625 1.5q-2.890625 0 -4.4375 -1.90625q-1.53125 -1.90625 -1.53125 -5.437561l0 -2.859375q0 -3.515625 1.59375 -5.421875q1.59375 -1.90625 4.421875 -1.90625q2.796875 0 4.234375 1.5625q1.453125 1.546875 1.65625 4.46875l-3.46875 0q-0.046875 -1.796875 -0.5625 -2.484375q-0.5 -0.6875 -1.859375 -0.6875q-1.375 0 -1.953125 0.96875q-0.578125 0.96875 -0.609375 3.171875l0 3.234375q0 2.531311 0.5625 3.484436q0.578125 0.953125 1.953125 0.953125q1.359375 0 1.875 -0.65625q0.515625 -0.671875 0.59375 -2.40625l3.4375 0zm10.265625 2.1875l-4.703125 0l-0.90625 3.5l-3.640625 0l5.328125 -17.062561l3.15625 0l5.359375 17.062561l-3.671875 0l-0.921875 -3.5zm-3.953125 -2.859436l3.1875 0l-1.59375 -6.09375l-1.59375 6.09375zm13.582031 3.500061l6.046875 0l0 2.859375l-9.484375 0l0 -17.062561l3.4375 0l0 14.203186zm11.640625 2.859375l-3.4375 0l0 -17.062561l3.4375 0l0 17.062561zm2.8984375 0l0 -17.062561l5.265625 0q2.671875 0 4.0625 1.1875q1.390625 1.1875 1.390625 3.484375q0 1.296875 -0.578125 2.234375q-0.5625 0.9375 -1.5625 1.375q1.140625 0.328125 1.765625 1.328125q0.625 0.984375 0.625 2.437561q0 2.484375 -1.375 3.75q-1.359375 1.265625 -3.953125 1.265625l-5.640625 0zm3.4375 -7.421936l0 4.562561l2.203125 0q0.9375 0 1.40625 -0.578125q0.484375 -0.578125 0.484375 -1.625q0 -2.296936 -1.65625 -2.359436l-2.4375 0zm0 -2.5l1.796875 0q2.03125 0 2.03125 -2.109375q0 -1.15625 -0.46875 -1.65625q-0.46875 -0.5 -1.53125 -0.5l-1.828125 0l0 4.265625zm15.199219 3.6875l-1.71875 0l0 6.234436l-3.4375 0l0 -17.062561l5.484375 0q2.59375 0 4.0 1.34375q1.421875 1.34375 1.421875 3.8125q0 3.390625 -2.46875 4.75l2.984375 6.984436l0 0.171875l-3.703125 0l-2.5625 -6.234436zm-1.71875 -2.875l1.953125 0q1.03125 0 1.546875 -0.6875q0.515625 -0.6875 0.515625 -1.828125q0 -2.5625 -2.0 -2.5625l-2.015625 0l0 5.078125zm17.976562 5.609436l-4.703125 0l-0.90625 3.5l-3.640625 0l5.328125 -17.062561l3.15625 0l5.359375 17.062561l-3.671875 0l-0.921875 -3.5zm-3.953125 -2.859436l3.1875 0l-1.59375 -6.09375l-1.59375 6.09375zm21.191406 -7.828125l-4.21875 0l0 14.187561l-3.453125 0l0 -14.187561l-4.15625 0l0 -2.875l11.828125 0l0 2.875zm5.578125 14.187561l-3.4375 0l0 -17.062561l3.4375 0l0 17.062561zm14.9140625 -7.000061q0 3.437561 -1.625 5.343811q-1.625 1.890625 -4.515625 1.890625q-2.859375 0 -4.5 -1.875q-1.640625 -1.890625 -1.671875 -5.281311l0 -2.90625q0 -3.515625 1.625 -5.484375q1.640625 -1.984375 4.53125 -1.984375q2.84375 0 4.484375 1.9375q1.640625 1.9375 1.671875 5.4375l0 2.921875zm-3.46875 -2.859375q0 -2.3125 -0.65625 -3.4375q-0.65625 -1.125 -2.03125 -1.125q-1.375 0 -2.03125 1.09375q-0.65625 1.078125 -0.671875 3.296875l0 3.03125q0 2.234436 0.65625 3.296936q0.671875 1.0625 2.0625 1.0625q1.359375 0 2.015625 -1.03125q0.65625 -1.046875 0.65625 -3.218811l0 -2.96875zm17.859375 9.859436l-3.4375 0l-5.046875 -11.187561l0 11.187561l-3.4375 0l0 -17.062561l3.4375 0l5.0625 11.203125l0 -11.203125l3.421875 0l0 17.062561z" fill-rule="nonzero"/><path fill="#cccccc" d="m1420.1686 1058.75l0 -17.0625l4.515625 0q2.984375 0 4.75 1.90625q1.78125 1.890625 1.8125 5.1875l0 2.765625q0 3.375 -1.78125 5.296875q-1.765625 1.90625 -4.875 1.90625l-4.421875 0zm3.4375 -14.1875l0 11.328125l1.03125 0q1.734375 0 2.4375 -0.90625q0.703125 -0.90625 0.734375 -3.140625l0 -2.96875q0 -2.390625 -0.671875 -3.328125q-0.671875 -0.9375 -2.265625 -0.984375l-1.265625 0zm18.261719 10.6875l-4.703125 0l-0.90625 3.5l-3.640625 0l5.328125 -17.0625l3.15625 0l5.359375 17.0625l-3.671875 0l-0.921875 -3.5zm-3.953125 -2.859375l3.1875 0l-1.59375 -6.09375l-1.59375 6.09375zm21.191406 -7.828125l-4.21875 0l0 14.1875l-3.453125 0l0 -14.1875l-4.15625 0l0 -2.875l11.828125 0l0 2.875zm10.125 10.6875l-4.703125 0l-0.90625 3.5l-3.640625 0l5.328125 -17.0625l3.15625 0l5.359375 17.0625l-3.671875 0l-0.921875 -3.5zm-3.953125 -2.859375l3.1875 0l-1.59375 -6.09375l-1.59375 6.09375z" fill-rule="nonzero"/><path fill="#000000" fill-opacity="0.0" d="m1446.4205 -233.51094c0 29.057877 -46.34021 43.59233 -92.6803 58.115753c-46.34021 14.523422 -92.68042 29.035797 -92.68042 58.0716" fill-rule="evenodd"/><path stroke="#bf9000" stroke-width="4.0" stroke-linejoin="round" stroke-linecap="butt" d="m1446.4205 -233.51094c0 29.057877 -46.34021 43.59233 -92.6803 58.115753c-46.34021 14.523422 -92.68042 29.035797 -92.68042 58.0716" fill-rule="evenodd"/><path fill="#000000" fill-opacity="0.0" d="m438.09094 116.36747c95.22571 0 190.45148 42.110435 190.45148 84.22086" fill-rule="evenodd"/><path stroke="#38761d" stroke-width="4.0" stroke-linejoin="round" stroke-linecap="butt" d="m438.09094 116.36747c95.22571 0 190.45148 42.110435 190.45148 84.22086" fill-rule="evenodd"/><path fill="#000000" fill-opacity="0.0" d="m325.8027 376.42902c58.58029 0 87.87042 -2.6576233 117.16058 -5.3152466c29.29013 -2.6576538 58.58029 -5.315277 117.16055 -5.315277" fill-rule="evenodd"/><path stroke="#38761d" stroke-width="4.0" stroke-linejoin="round" stroke-linecap="butt" d="m325.8027 376.42902c58.58029 0 87.87042 -2.6576233 117.16058 -5.3152466c29.29013 -2.6576538 58.58029 -5.315277 117.16055 -5.315277" fill-rule="evenodd"/><path fill="#000000" fill-opacity="0.0" d="m471.7793 636.4906c78.38153 0 156.76312 -52.741028 156.76312 -105.481995" fill-rule="evenodd"/><path stroke="#38761d" stroke-width="4.0" stroke-linejoin="round" stroke-linecap="butt" d="m471.7793 636.4906c78.38153 0 156.76312 -52.741028 156.76312 -105.481995" fill-rule="evenodd"/><path fill="#000000" fill-opacity="0.0" d="m1446.4205 953.5104c0 -20.843079 -51.599243 -31.261475 -103.19861 -41.686157c-51.599365 -10.424683 -103.19861 -20.85559 -103.19861 -41.71118" fill-rule="evenodd"/><path stroke="#674ea7" stroke-width="4.0" stroke-linejoin="round" stroke-linecap="butt" d="m1446.4205 953.5104c0 -20.843079 -51.599243 -31.261475 -103.19861 -41.686157c-51.599365 -10.424683 -103.19861 -20.85559 -103.19861 -41.71118" fill-rule="evenodd"/><path fill="#000000" fill-opacity="0.0" d="m613.2703 435.45932l221.10236 0l0 78.834625l-221.10236 0z" fill-rule="evenodd"/><path fill="#38761d" d="m637.30786 478.9635l-5.765625 0l-1.328125 4.453125l-2.203125 0l5.5 -17.0625l1.84375 0l5.5 17.0625l-2.203125 0l-1.34375 -4.453125zm-5.203125 -1.859375l4.65625 0l-2.328125 -7.75l-2.328125 7.75zm21.25 -10.75l0 12.125q-0.03125 2.421875 -1.421875 3.796875q-1.375 1.375 -3.84375 1.375q-2.53125 0 -3.875 -1.34375q-1.328125 -1.34375 -1.34375 -3.828125l0 -12.125l2.125 0l0 12.046875q0 1.71875 0.734375 2.578125q0.734375 0.84375 2.359375 0.84375q1.640625 0 2.375 -0.84375q0.734375 -0.859375 0.734375 -2.578125l0 -12.046875l2.15625 0zm13.2734375 1.84375l-4.484375 0l0 15.21875l-2.140625 0l0 -15.21875l-4.484375 0l0 -1.84375l11.109375 0l0 1.84375zm13.6171875 8.1875q0 3.484375 -1.484375 5.375q-1.484375 1.890625 -4.234375 1.890625q-2.640625 0 -4.171875 -1.828125q-1.515625 -1.84375 -1.578125 -5.1875l0 -3.21875q0 -3.421875 1.5 -5.359375q1.515625 -1.9375 4.234375 -1.9375q2.6875 0 4.1875 1.859375q1.515625 1.859375 1.546875 5.296875l0 3.109375zm-2.140625 -2.984375q0 -2.71875 -0.890625 -4.03125q-0.875 -1.3125 -2.703125 -1.3125q-1.78125 0 -2.6875 1.34375q-0.90625 1.328125 -0.921875 3.921875l0 3.0625q0 2.609375 0.90625 3.984375q0.921875 1.375 2.71875 1.375q1.8125 0 2.671875 -1.265625q0.875 -1.265625 0.90625 -3.890625l0 -3.1875zm16.164062 4.59375q-0.140625 2.75 -1.546875 4.203125q-1.40625 1.453125 -3.953125 1.453125q-2.5625 0 -4.078125 -1.953125q-1.515625 -1.953125 -1.515625 -5.296875l0 -3.09375q0 -3.328125 1.546875 -5.25q1.5625 -1.9375 4.25 -1.9375q2.46875 0 3.8125 1.484375q1.359375 1.484375 1.484375 4.234375l-2.171875 0q-0.140625 -2.09375 -0.890625 -2.984375q-0.734375 -0.890625 -2.234375 -0.890625q-1.75 0 -2.6875 1.375q-0.9375 1.359375 -0.9375 4.0l0 3.125q0 2.59375 0.875 3.984375q0.875 1.375 2.546875 1.375q1.671875 0 2.40625 -0.828125q0.75 -0.84375 0.921875 -3.0l2.171875 0zm13.996094 -1.609375q0 3.484375 -1.484375 5.375q-1.484375 1.890625 -4.234375 1.890625q-2.640625 0 -4.171875 -1.828125q-1.515625 -1.84375 -1.578125 -5.1875l0 -3.21875q0 -3.421875 1.5 -5.359375q1.515625 -1.9375 4.234375 -1.9375q2.6875 0 4.1875 1.859375q1.515625 1.859375 1.546875 5.296875l0 3.109375zm-2.140625 -2.984375q0 -2.71875 -0.890625 -4.03125q-0.875 -1.3125 -2.703125 -1.3125q-1.78125 0 -2.6875 1.34375q-0.90625 1.328125 -0.921875 3.921875l0 3.0625q0 2.609375 0.90625 3.984375q0.921875 1.375 2.71875 1.375q1.8125 0 2.671875 -1.265625q0.875 -1.265625 0.90625 -3.890625l0 -3.1875zm10.6171875 3.109375l-3.0 0l0 6.90625l-2.15625 0l0 -17.0625l4.78125 0q2.5 0 3.78125 1.3125q1.296875 1.296875 1.296875 3.8125q0 1.59375 -0.703125 2.765625q-0.6875 1.171875 -1.96875 1.78125l3.3125 7.25l0 0.140625l-2.3125 0l-3.03125 -6.90625zm-3.0 -1.84375l2.59375 0q1.359375 0 2.15625 -0.859375q0.796875 -0.875 0.796875 -2.328125q0 -3.28125 -2.96875 -3.28125l-2.578125 0l0 6.46875zm15.738281 1.84375l-3.0 0l0 6.90625l-2.15625 0l0 -17.0625l4.78125 0q2.5 0 3.78125 1.3125q1.296875 1.296875 1.296875 3.8125q0 1.59375 -0.703125 2.765625q-0.6875 1.171875 -1.96875 1.78125l3.3125 7.25l0 0.140625l-2.3125 0l-3.03125 -6.90625zm-3.0 -1.84375l2.59375 0q1.359375 0 2.15625 -0.859375q0.796875 -0.875 0.796875 -2.328125q0 -3.28125 -2.96875 -3.28125l-2.578125 0l0 6.46875zm18.753906 0.859375l-6.03125 0l0 6.046875l7.03125 0l0 1.84375l-9.171875 0l0 -17.0625l9.0625 0l0 1.84375l-6.921875 0l0 5.484375l6.03125 0l0 1.84375zm5.9023438 6.046875l6.6875 0l0 1.84375l-8.84375 0l0 -17.0625l2.15625 0l0 15.21875zm17.199219 -2.609375l-5.765625 0l-1.328125 4.453125l-2.203125 0l5.5 -17.0625l1.84375 0l5.5 17.0625l-2.203125 0l-1.34375 -4.453125zm-5.203125 -1.859375l4.65625 0l-2.328125 -7.75l-2.328125 7.75zm21.046875 -8.90625l-4.484375 0l0 15.21875l-2.140625 0l0 -15.21875l-4.484375 0l0 -1.84375l11.109375 0l0 1.84375zm4.7578125 15.21875l-2.140625 0l0 -17.0625l2.140625 0l0 17.0625zm14.859375 -7.03125q0 3.484375 -1.484375 5.375q-1.484375 1.890625 -4.234375 1.890625q-2.640625 0 -4.171875 -1.828125q-1.515625 -1.84375 -1.578125 -5.1875l0 -3.21875q0 -3.421875 1.5 -5.359375q1.515625 -1.9375 4.234375 -1.9375q2.6875 0 4.1875 1.859375q1.515625 1.859375 1.546875 5.296875l0 3.109375zm-2.140625 -2.984375q0 -2.71875 -0.890625 -4.03125q-0.875 -1.3125 -2.703125 -1.3125q-1.78125 0 -2.6875 1.34375q-0.90625 1.328125 -0.921875 3.921875l0 3.0625q0 2.609375 0.90625 3.984375q0.921875 1.375 2.71875 1.375q1.8125 0 2.671875 -1.265625q0.875 -1.265625 0.90625 -3.890625l0 -3.1875zm16.601562 10.015625l-2.15625 0l-6.828125 -13.15625l0 13.15625l-2.15625 0l0 -17.0625l2.15625 0l6.859375 13.203125l0 -13.203125l2.125 0l0 17.0625z" fill-rule="nonzero"/><path fill="#000000" fill-opacity="0.0" d="m546.6037 287.08136l193.22833 0l0 78.834656l-193.22833 0z" fill-rule="evenodd"/><path fill="#38761d" d="m594.212 329.61682q-0.140625 2.75 -1.546875 4.203125q-1.40625 1.453125 -3.953125 1.453125q-2.5625 0 -4.078125 -1.953125q-1.515625 -1.953125 -1.515625 -5.296875l0 -3.09375q0 -3.328125 1.546875 -5.25q1.5625 -1.9375 4.25 -1.9375q2.46875 0 3.8125 1.484375q1.359375 1.484375 1.484375 4.234375l-2.171875 0q-0.140625 -2.09375 -0.890625 -2.984375q-0.734375 -0.890625 -2.234375 -0.890625q-1.75 0 -2.6875 1.375q-0.9375 1.359375 -0.9375 4.0l0 3.125q0 2.59375 0.875 3.984375q0.875 1.375 2.546875 1.375q1.671875 0 2.40625 -0.828125q0.75 -0.84375 0.921875 -3.0l2.171875 0zm5.0585938 3.578125l6.6875 0l0 1.84375l-8.84375 0l0 -17.0625l2.15625 0l0 15.21875zm19.417969 -15.21875l0 12.125q-0.03125 2.421875 -1.421875 3.796875q-1.375 1.375 -3.84375 1.375q-2.53125 0 -3.875 -1.34375q-1.328125 -1.34375 -1.34375 -3.828125l0 -12.125l2.125 0l0 12.046875q0 1.71875 0.734375 2.578125q0.734375 0.84375 2.359375 0.84375q1.640625 0 2.375 -0.84375q0.734375 -0.859375 0.734375 -2.578125l0 -12.046875l2.15625 0zm10.7578125 12.75q0 -1.28125 -0.703125 -1.953125q-0.6875 -0.6875 -2.5 -1.328125q-1.796875 -0.640625 -2.75 -1.34375q-0.953125 -0.71875 -1.4375 -1.625q-0.46875 -0.90625 -0.46875 -2.078125q0 -2.03125 1.359375 -3.34375q1.359375 -1.3125 3.546875 -1.3125q1.5 0 2.671875 0.671875q1.171875 0.671875 1.796875 1.875q0.640625 1.1875 0.640625 2.625l-2.15625 0q0 -1.59375 -0.765625 -2.453125q-0.765625 -0.875 -2.1875 -0.875q-1.296875 0 -2.015625 0.734375q-0.71875 0.71875 -0.71875 2.03125q0 1.078125 0.765625 1.8125q0.78125 0.71875 2.40625 1.296875q2.515625 0.828125 3.59375 2.046875q1.09375 1.21875 1.09375 3.1875q0 2.078125 -1.359375 3.328125q-1.34375 1.25 -3.65625 1.25q-1.5 0 -2.765625 -0.640625q-1.25 -0.65625 -1.96875 -1.828125q-0.71875 -1.1875 -0.71875 -2.71875l2.15625 0q0 1.59375 0.875 2.46875q0.890625 0.875 2.421875 0.875q1.40625 0 2.125 -0.71875q0.71875 -0.734375 0.71875 -1.984375zm14.949219 -10.90625l-4.484375 0l0 15.21875l-2.140625 0l0 -15.21875l-4.484375 0l0 -1.84375l11.109375 0l0 1.84375zm10.6953125 7.328125l-6.03125 0l0 6.046875l7.03125 0l0 1.84375l-9.171875 0l0 -17.0625l9.0625 0l0 1.84375l-6.921875 0l0 5.484375l6.03125 0l0 1.84375zm8.902344 0.984375l-3.0 0l0 6.90625l-2.15625 0l0 -17.0625l4.78125 0q2.5 0 3.78125 1.3125q1.296875 1.296875 1.296875 3.8125q0 1.59375 -0.703125 2.765625q-0.6875 1.171875 -1.96875 1.78125l3.3125 7.25l0 0.140625l-2.3125 0l-3.03125 -6.90625zm-3.0 -1.84375l2.59375 0q1.359375 0 2.15625 -0.859375q0.796875 -0.875 0.796875 -2.328125q0 -3.28125 -2.96875 -3.28125l-2.578125 0l0 6.46875zm12.816406 8.75l-2.140625 0l0 -17.0625l2.140625 0l0 17.0625zm14.90625 0l-2.15625 0l-6.828125 -13.15625l0 13.15625l-2.15625 0l0 -17.0625l2.15625 0l6.859375 13.203125l0 -13.203125l2.125 0l0 17.0625zm14.390625 -2.125l-0.375 0.46875q-1.609375 1.890625 -4.734375 1.890625q-2.765625 0 -4.34375 -1.828125q-1.578125 -1.84375 -1.609375 -5.1875l0 -3.359375q0 -3.578125 1.4375 -5.359375q1.4375 -1.796875 4.296875 -1.796875q2.4375 0 3.8125 1.359375q1.375 1.359375 1.515625 3.875l-2.140625 0q-0.125 -1.59375 -0.890625 -2.484375q-0.75 -0.90625 -2.28125 -0.90625q-1.84375 0 -2.703125 1.203125q-0.859375 1.203125 -0.890625 3.84375l0 3.484375q0 2.578125 0.984375 3.953125q0.984375 1.375 2.828125 1.375q1.734375 0 2.640625 -0.84375l0.3125 -0.296875l0 -3.9375l-3.125 0l0 -1.828125l5.265625 0l0 6.375z" fill-rule="nonzero"/><path fill="#000000" fill-opacity="0.0" d="m609.4252 226.50919l193.2284 0l0 78.834656l-193.2284 0z" fill-rule="evenodd"/><path fill="#38761d" d="m653.39874 259.24777l-4.484375 0l0 15.21875l-2.140625 0l0 -15.21875l-4.484375 0l0 -1.84375l11.109375 0l0 1.84375zm10.4765625 10.765625l-5.765625 0l-1.328125 4.453125l-2.203125 0l5.5 -17.0625l1.84375 0l5.5 17.0625l-2.203125 0l-1.34375 -4.453125zm-5.203125 -1.859375l4.65625 0l-2.328125 -7.75l-2.328125 7.75zm13.21875 -0.375l0 6.6875l-2.140625 0l0 -17.0625l5.4375 0q2.375 0 3.734375 1.421875q1.359375 1.421875 1.359375 3.796875q0 2.453125 -1.296875 3.78125q-1.296875 1.328125 -3.640625 1.375l-3.453125 0zm0 -1.828125l3.296875 0q1.421875 0 2.1875 -0.859375q0.765625 -0.859375 0.765625 -2.453125q0 -1.53125 -0.796875 -2.453125q-0.78125 -0.9375 -2.140625 -0.9375l-3.3125 0l0 6.703125zm22.332031 8.515625l-2.15625 0l0 -7.890625l-6.875 0l0 7.890625l-2.140625 0l0 -17.0625l2.140625 0l0 7.328125l6.875 0l0 -7.328125l2.15625 0l0 17.0625zm14.8046875 -7.03125q0 3.484375 -1.484375 5.375q-1.484375 1.890625 -4.234375 1.890625q-2.640625 0 -4.171875 -1.828125q-1.515625 -1.84375 -1.578125 -5.1875l0 -3.21875q0 -3.421875 1.5 -5.359375q1.515625 -1.9375 4.234375 -1.9375q2.6875 0 4.1875 1.859375q1.515625 1.859375 1.546875 5.296875l0 3.109375zm-2.140625 -2.984375q0 -2.71875 -0.890625 -4.03125q-0.875 -1.3125 -2.703125 -1.3125q-1.78125 0 -2.6875 1.34375q-0.90625 1.328125 -0.921875 3.921875l0 3.0625q0 2.609375 0.90625 3.984375q0.921875 1.375 2.71875 1.375q1.8125 0 2.671875 -1.265625q0.875 -1.265625 0.90625 -3.890625l0 -3.1875zm16.601562 10.015625l-2.15625 0l-6.828125 -13.15625l0 13.15625l-2.15625 0l0 -17.0625l2.15625 0l6.859375 13.203125l0 -13.203125l2.125 0l0 17.0625zm14.8125 -7.03125q0 3.484375 -1.484375 5.375q-1.484375 1.890625 -4.234375 1.890625q-2.640625 0 -4.171875 -1.828125q-1.515625 -1.84375 -1.578125 -5.1875l0 -3.21875q0 -3.421875 1.5 -5.359375q1.515625 -1.9375 4.234375 -1.9375q2.6875 0 4.1875 1.859375q1.515625 1.859375 1.546875 5.296875l0 3.109375zm-2.140625 -2.984375q0 -2.71875 -0.890625 -4.03125q-0.875 -1.3125 -2.703125 -1.3125q-1.78125 0 -2.6875 1.34375q-0.90625 1.328125 -0.921875 3.921875l0 3.0625q0 2.609375 0.90625 3.984375q0.921875 1.375 2.71875 1.375q1.8125 0 2.671875 -1.265625q0.875 -1.265625 0.90625 -3.890625l0 -3.1875zm8.2265625 -7.046875l4.453125 13.921875l4.453125 -13.921875l2.765625 0l0 17.0625l-2.140625 0l0 -6.640625l0.1875 -6.65625l-4.453125 13.296875l-1.640625 0l-4.453125 -13.25l0.203125 6.609375l0 6.640625l-2.140625 0l0 -17.0625l2.765625 0zm19.800781 8.5625l3.5 -8.5625l2.421875 0l-4.859375 10.703125l0 6.359375l-2.140625 0l0 -6.359375l-4.84375 -10.703125l2.4375 0l3.484375 8.5625z" fill-rule="nonzero"/><path fill="#000000" fill-opacity="0.0" d="m691.4278 495.95538l209.60632 0l0 78.834656l-209.60632 0z" fill-rule="evenodd"/><path fill="#38761d" d="m718.26025 541.7877l-0.375 0.46875q-1.609375 1.890625 -4.734375 1.890625q-2.765625 0 -4.34375 -1.828125q-1.578125 -1.84375 -1.609375 -5.1875l0 -3.359375q0 -3.578125 1.4375 -5.359375q1.4375 -1.796875 4.296875 -1.796875q2.4375 0 3.8125 1.359375q1.375 1.359375 1.515625 3.875l-2.140625 0q-0.125 -1.59375 -0.890625 -2.484375q-0.75 -0.90625 -2.28125 -0.90625q-1.84375 0 -2.703125 1.203125q-0.859375 1.203125 -0.890625 3.84375l0 3.484375q0 2.578125 0.984375 3.953125q0.984375 1.375 2.828125 1.375q1.734375 0 2.640625 -0.84375l0.3125 -0.296875l0 -3.9375l-3.125 0l0 -1.828125l5.265625 0l0 6.375zm11.6796875 -5.765625l-6.03125 0l0 6.046875l7.03125 0l0 1.84375l-9.171875 0l0 -17.0625l9.0625 0l0 1.84375l-6.921875 0l0 5.484375l6.03125 0l0 1.84375zm14.839844 0.859375q0 3.484375 -1.484375 5.375q-1.484375 1.890625 -4.234375 1.890625q-2.640625 0 -4.171875 -1.828125q-1.515625 -1.84375 -1.578125 -5.1875l0 -3.21875q0 -3.421875 1.5 -5.359375q1.515625 -1.9375 4.234375 -1.9375q2.6875 0 4.1875 1.859375q1.515625 1.859375 1.546875 5.296875l0 3.109375zm-2.140625 -2.984375q0 -2.71875 -0.890625 -4.03125q-0.875 -1.3125 -2.703125 -1.3125q-1.78125 0 -2.6875 1.34375q-0.90625 1.328125 -0.921875 3.921875l0 3.0625q0 2.609375 0.90625 3.984375q0.921875 1.375 2.71875 1.375q1.8125 0 2.671875 -1.265625q0.875 -1.265625 0.90625 -3.890625l0 -3.1875zm8.2265625 -7.046875l4.453125 13.921875l4.453125 -13.921875l2.765625 0l0 17.0625l-2.140625 0l0 -6.640625l0.1875 -6.65625l-4.453125 13.296875l-1.640625 0l-4.453125 -13.25l0.203125 6.609375l0 6.640625l-2.140625 0l0 -17.0625l2.765625 0zm26.457031 10.03125q0 3.484375 -1.484375 5.375q-1.484375 1.890625 -4.234375 1.890625q-2.640625 0 -4.171875 -1.828125q-1.515625 -1.84375 -1.578125 -5.1875l0 -3.21875q0 -3.421875 1.5 -5.359375q1.515625 -1.9375 4.234375 -1.9375q2.6875 0 4.1875 1.859375q1.515625 1.859375 1.546875 5.296875l0 3.109375zm-2.140625 -2.984375q0 -2.71875 -0.890625 -4.03125q-0.875 -1.3125 -2.703125 -1.3125q-1.78125 0 -2.6875 1.34375q-0.90625 1.328125 -0.921875 3.921875l0 3.0625q0 2.609375 0.90625 3.984375q0.921875 1.375 2.71875 1.375q1.8125 0 2.671875 -1.265625q0.875 -1.265625 0.90625 -3.890625l0 -3.1875zm10.6171875 3.109375l-3.0 0l0 6.90625l-2.15625 0l0 -17.0625l4.78125 0q2.5 0 3.78125 1.3125q1.296875 1.296875 1.296875 3.8125q0 1.59375 -0.703125 2.765625q-0.6875 1.171875 -1.96875 1.78125l3.3125 7.25l0 0.140625l-2.3125 0l-3.03125 -6.90625zm-3.0 -1.84375l2.59375 0q1.359375 0 2.15625 -0.859375q0.796875 -0.875 0.796875 -2.328125q0 -3.28125 -2.96875 -3.28125l-2.578125 0l0 6.46875zm12.722656 2.0625l0 6.6875l-2.140625 0l0 -17.0625l5.4375 0q2.375 0 3.734375 1.421875q1.359375 1.421875 1.359375 3.796875q0 2.453125 -1.296875 3.78125q-1.296875 1.328125 -3.640625 1.375l-3.453125 0zm0 -1.828125l3.296875 0q1.421875 0 2.1875 -0.859375q0.765625 -0.859375 0.765625 -2.453125q0 -1.53125 -0.796875 -2.453125q-0.78125 -0.9375 -2.140625 -0.9375l-3.3125 0l0 6.703125zm22.332031 8.515625l-2.15625 0l0 -7.890625l-6.875 0l0 7.890625l-2.140625 0l0 -17.0625l2.140625 0l0 7.328125l6.875 0l0 -7.328125l2.15625 0l0 17.0625zm14.8046875 -7.03125q0 3.484375 -1.484375 5.375q-1.484375 1.890625 -4.234375 1.890625q-2.640625 0 -4.171875 -1.828125q-1.515625 -1.84375 -1.578125 -5.1875l0 -3.21875q0 -3.421875 1.5 -5.359375q1.515625 -1.9375 4.234375 -1.9375q2.6875 0 4.1875 1.859375q1.515625 1.859375 1.546875 5.296875l0 3.109375zm-2.140625 -2.984375q0 -2.71875 -0.890625 -4.03125q-0.875 -1.3125 -2.703125 -1.3125q-1.78125 0 -2.6875 1.34375q-0.90625 1.328125 -0.921875 3.921875l0 3.0625q0 2.609375 0.90625 3.984375q0.921875 1.375 2.71875 1.375q1.8125 0 2.671875 -1.265625q0.875 -1.265625 0.90625 -3.890625l0 -3.1875zm7.6171875 8.171875l6.6875 0l0 1.84375l-8.84375 0l0 -17.0625l2.15625 0l0 15.21875zm20.339844 -5.1875q0 3.484375 -1.484375 5.375q-1.484375 1.890625 -4.234375 1.890625q-2.640625 0 -4.171875 -1.828125q-1.515625 -1.84375 -1.578125 -5.1875l0 -3.21875q0 -3.421875 1.5 -5.359375q1.515625 -1.9375 4.234375 -1.9375q2.6875 0 4.1875 1.859375q1.515625 1.859375 1.546875 5.296875l0 3.109375zm-2.140625 -2.984375q0 -2.71875 -0.890625 -4.03125q-0.875 -1.3125 -2.703125 -1.3125q-1.78125 0 -2.6875 1.34375q-0.90625 1.328125 -0.921875 3.921875l0 3.0625q0 2.609375 0.90625 3.984375q0.921875 1.375 2.71875 1.375q1.8125 0 2.671875 -1.265625q0.875 -1.265625 0.90625 -3.890625l0 -3.1875zm16.132812 7.890625l-0.375 0.46875q-1.609375 1.890625 -4.734375 1.890625q-2.765625 0 -4.34375 -1.828125q-1.578125 -1.84375 -1.609375 -5.1875l0 -3.359375q0 -3.578125 1.4375 -5.359375q1.4375 -1.796875 4.296875 -1.796875q2.4375 0 3.8125 1.359375q1.375 1.359375 1.515625 3.875l-2.140625 0q-0.125 -1.59375 -0.890625 -2.484375q-0.75 -0.90625 -2.28125 -0.90625q-1.84375 0 -2.703125 1.203125q-0.859375 1.203125 -0.890625 3.84375l0 3.484375q0 2.578125 0.984375 3.953125q0.984375 1.375 2.828125 1.375q1.734375 0 2.640625 -0.84375l0.3125 -0.296875l0 -3.9375l-3.125 0l0 -1.828125l5.265625 0l0 6.375zm7.9453125 -6.375l3.5 -8.5625l2.421875 0l-4.859375 10.703125l0 6.359375l-2.140625 0l0 -6.359375l-4.84375 -10.703125l2.4375 0l3.484375 8.5625z" fill-rule="nonzero"/><path fill="#000000" fill-opacity="0.0" d="m838.8373 249.7231l193.2284 0l0 78.83464l-193.2284 0z" fill-rule="evenodd"/><path fill="#38761d" d="m895.301 297.68042l0 -17.0625l4.0625 0q2.984375 0 4.640625 1.875q1.65625 1.859375 1.65625 5.25l0 2.859375q0 3.390625 -1.6875 5.234375q-1.671875 1.84375 -4.859375 1.84375l-3.8125 0zm2.140625 -15.21875l0 13.375l1.71875 0q2.265625 0 3.3125 -1.296875q1.046875 -1.296875 1.0625 -3.828125l0 -3.03125q0 -2.6875 -1.046875 -3.953125q-1.03125 -1.265625 -3.125 -1.265625l-1.921875 0zm19.730469 7.328125l-6.03125 0l0 6.046875l7.03125 0l0 1.84375l-9.171875 0l0 -17.0625l9.0625 0l0 1.84375l-6.921875 0l0 5.484375l6.03125 0l0 1.84375zm14.886719 7.890625l-2.15625 0l-6.828125 -13.15625l0 13.15625l-2.15625 0l0 -17.0625l2.15625 0l6.859375 13.203125l0 -13.203125l2.125 0l0 17.0625zm11.171875 -4.3125q0 -1.28125 -0.703125 -1.953125q-0.6875 -0.6875 -2.5 -1.328125q-1.796875 -0.640625 -2.75 -1.34375q-0.953125 -0.71875 -1.4375 -1.625q-0.46875 -0.90625 -0.46875 -2.078125q0 -2.03125 1.359375 -3.34375q1.359375 -1.3125 3.546875 -1.3125q1.5 0 2.671875 0.671875q1.171875 0.671875 1.796875 1.875q0.640625 1.1875 0.640625 2.625l-2.15625 0q0 -1.59375 -0.765625 -2.453125q-0.765625 -0.875 -2.1875 -0.875q-1.296875 0 -2.015625 0.734375q-0.71875 0.71875 -0.71875 2.03125q0 1.078125 0.765625 1.8125q0.78125 0.71875 2.40625 1.296875q2.515625 0.828125 3.59375 2.046875q1.09375 1.21875 1.09375 3.1875q0 2.078125 -1.359375 3.328125q-1.34375 1.25 -3.65625 1.25q-1.5 0 -2.765625 -0.640625q-1.25 -0.65625 -1.96875 -1.828125q-0.71875 -1.1875 -0.71875 -2.71875l2.15625 0q0 1.59375 0.875 2.46875q0.890625 0.875 2.421875 0.875q1.40625 0 2.125 -0.71875q0.71875 -0.734375 0.71875 -1.984375zm7.2148438 4.3125l-2.140625 0l0 -17.0625l2.140625 0l0 17.0625zm13.734375 -15.21875l-4.484375 0l0 15.21875l-2.140625 0l0 -15.21875l-4.484375 0l0 -1.84375l11.109375 0l0 1.84375zm6.9609375 6.71875l3.5 -8.5625l2.421875 0l-4.859375 10.703125l0 6.359375l-2.140625 0l0 -6.359375l-4.84375 -10.703125l2.4375 0l3.484375 8.5625z" fill-rule="nonzero"/><path fill="#000000" fill-opacity="0.0" d="m822.084 417.12073l193.22833 0l0 78.834656l-193.22833 0z" fill-rule="evenodd"/><path fill="#38761d" d="m870.3095 460.76556q0 -1.28125 -0.703125 -1.953125q-0.6875 -0.6875 -2.5 -1.328125q-1.796875 -0.640625 -2.75 -1.34375q-0.953125 -0.71875 -1.4375 -1.625q-0.46875 -0.90625 -0.46875 -2.078125q0 -2.03125 1.359375 -3.34375q1.359375 -1.3125 3.546875 -1.3125q1.5 0 2.671875 0.671875q1.171875 0.671875 1.796875 1.875q0.640625 1.1875 0.640625 2.625l-2.15625 0q0 -1.59375 -0.765625 -2.453125q-0.765625 -0.875 -2.1875 -0.875q-1.296875 0 -2.015625 0.734375q-0.71875 0.71875 -0.71875 2.03125q0 1.078125 0.765625 1.8125q0.78125 0.71875 2.40625 1.296875q2.515625 0.828125 3.59375 2.046875q1.09375 1.21875 1.09375 3.1875q0 2.078125 -1.359375 3.328125q-1.34375 1.25 -3.65625 1.25q-1.5 0 -2.765625 -0.640625q-1.25 -0.65625 -1.96875 -1.828125q-0.71875 -1.1875 -0.71875 -2.71875l2.15625 0q0 1.59375 0.875 2.46875q0.890625 0.875 2.421875 0.875q1.40625 0 2.125 -0.71875q0.71875 -0.734375 0.71875 -1.984375zm14.949219 -10.90625l-4.484375 0l0 15.21875l-2.140625 0l0 -15.21875l-4.484375 0l0 -1.84375l11.109375 0l0 1.84375zm7.6796875 8.3125l-3.0 0l0 6.90625l-2.15625 0l0 -17.0625l4.78125 0q2.5 0 3.78125 1.3125q1.296875 1.296875 1.296875 3.8125q0 1.59375 -0.703125 2.765625q-0.6875 1.171875 -1.96875 1.78125l3.3125 7.25l0 0.140625l-2.3125 0l-3.03125 -6.90625zm-3.0 -1.84375l2.59375 0q1.359375 0 2.15625 -0.859375q0.796875 -0.875 0.796875 -2.328125q0 -3.28125 -2.96875 -3.28125l-2.578125 0l0 6.46875zm20.753906 -8.3125l0 12.125q-0.03125 2.421875 -1.421875 3.796875q-1.375 1.375 -3.84375 1.375q-2.53125 0 -3.875 -1.34375q-1.328125 -1.34375 -1.34375 -3.828125l0 -12.125l2.125 0l0 12.046875q0 1.71875 0.734375 2.578125q0.734375 0.84375 2.359375 0.84375q1.640625 0 2.375 -0.84375q0.734375 -0.859375 0.734375 -2.578125l0 -12.046875l2.15625 0zm14.0078125 11.640625q-0.140625 2.75 -1.546875 4.203125q-1.40625 1.453125 -3.953125 1.453125q-2.5625 0 -4.078125 -1.953125q-1.515625 -1.953125 -1.515625 -5.296875l0 -3.09375q0 -3.328125 1.546875 -5.25q1.5625 -1.9375 4.25 -1.9375q2.46875 0 3.8125 1.484375q1.359375 1.484375 1.484375 4.234375l-2.171875 0q-0.140625 -2.09375 -0.890625 -2.984375q-0.734375 -0.890625 -2.234375 -0.890625q-1.75 0 -2.6875 1.375q-0.9375 1.359375 -0.9375 4.0l0 3.125q0 2.59375 0.875 3.984375q0.875 1.375 2.546875 1.375q1.671875 0 2.40625 -0.828125q0.75 -0.84375 0.921875 -3.0l2.171875 0zm12.871094 -9.796875l-4.484375 0l0 15.21875l-2.140625 0l0 -15.21875l-4.484375 0l0 -1.84375l11.109375 0l0 1.84375zm12.6953125 -1.84375l0 12.125q-0.03125 2.421875 -1.421875 3.796875q-1.375 1.375 -3.84375 1.375q-2.53125 0 -3.875 -1.34375q-1.328125 -1.34375 -1.34375 -3.828125l0 -12.125l2.125 0l0 12.046875q0 1.71875 0.734375 2.578125q0.734375 0.84375 2.359375 0.84375q1.640625 0 2.375 -0.84375q0.734375 -0.859375 0.734375 -2.578125l0 -12.046875l2.15625 0zm8.4609375 10.15625l-3.0 0l0 6.90625l-2.15625 0l0 -17.0625l4.78125 0q2.5 0 3.78125 1.3125q1.296875 1.296875 1.296875 3.8125q0 1.59375 -0.703125 2.765625q-0.6875 1.171875 -1.96875 1.78125l3.3125 7.25l0 0.140625l-2.3125 0l-3.03125 -6.90625zm-3.0 -1.84375l2.59375 0q1.359375 0 2.15625 -0.859375q0.796875 -0.875 0.796875 -2.328125q0 -3.28125 -2.96875 -3.28125l-2.578125 0l0 6.46875zm18.753906 0.859375l-6.03125 0l0 6.046875l7.03125 0l0 1.84375l-9.171875 0l0 -17.0625l9.0625 0l0 1.84375l-6.921875 0l0 5.484375l6.03125 0l0 1.84375z" fill-rule="nonzero"/><path fill="#000000" fill-opacity="0.0" d="m730.4173 158.25984l193.2284 0l0 78.83464l-193.2284 0z" fill-rule="evenodd"/><path fill="#38761d" d="m759.8108 206.21716l0 -17.0625l4.0625 0q2.984375 0 4.640625 1.875q1.65625 1.859375 1.65625 5.25l0 2.859375q0 3.390625 -1.6875 5.234375q-1.671875 1.84375 -4.859375 1.84375l-3.8125 0zm2.140625 -15.21875l0 13.375l1.71875 0q2.265625 0 3.3125 -1.296875q1.046875 -1.296875 1.0625 -3.828125l0 -3.03125q0 -2.6875 -1.046875 -3.953125q-1.03125 -1.265625 -3.125 -1.265625l-1.921875 0zm19.730469 7.328125l-6.03125 0l0 6.046875l7.03125 0l0 1.84375l-9.171875 0l0 -17.0625l9.0625 0l0 1.84375l-6.921875 0l0 5.484375l6.03125 0l0 1.84375zm11.199219 3.578125q0 -1.28125 -0.703125 -1.953125q-0.6875 -0.6875 -2.5 -1.328125q-1.796875 -0.640625 -2.75 -1.34375q-0.953125 -0.71875 -1.4375 -1.625q-0.46875 -0.90625 -0.46875 -2.078125q0 -2.03125 1.359375 -3.34375q1.359375 -1.3125 3.546875 -1.3125q1.5 0 2.671875 0.671875q1.171875 0.671875 1.796875 1.875q0.640625 1.1875 0.640625 2.625l-2.15625 0q0 -1.59375 -0.765625 -2.453125q-0.765625 -0.875 -2.1875 -0.875q-1.296875 0 -2.015625 0.734375q-0.71875 0.71875 -0.71875 2.03125q0 1.078125 0.765625 1.8125q0.78125 0.71875 2.40625 1.296875q2.515625 0.828125 3.59375 2.046875q1.09375 1.21875 1.09375 3.1875q0 2.078125 -1.359375 3.328125q-1.34375 1.25 -3.65625 1.25q-1.5 0 -2.765625 -0.640625q-1.25 -0.65625 -1.96875 -1.828125q-0.71875 -1.1875 -0.71875 -2.71875l2.15625 0q0 1.59375 0.875 2.46875q0.890625 0.875 2.421875 0.875q1.40625 0 2.125 -0.71875q0.71875 -0.734375 0.71875 -1.984375zm14.949219 -10.90625l-4.484375 0l0 15.21875l-2.140625 0l0 -15.21875l-4.484375 0l0 -1.84375l11.109375 0l0 1.84375zm7.6796875 8.3125l-3.0 0l0 6.90625l-2.15625 0l0 -17.0625l4.78125 0q2.5 0 3.78125 1.3125q1.296875 1.296875 1.296875 3.8125q0 1.59375 -0.703125 2.765625q-0.6875 1.171875 -1.96875 1.78125l3.3125 7.25l0 0.140625l-2.3125 0l-3.03125 -6.90625zm-3.0 -1.84375l2.59375 0q1.359375 0 2.15625 -0.859375q0.796875 -0.875 0.796875 -2.328125q0 -3.28125 -2.96875 -3.28125l-2.578125 0l0 6.46875zm20.753906 -8.3125l0 12.125q-0.03125 2.421875 -1.421875 3.796875q-1.375 1.375 -3.84375 1.375q-2.53125 0 -3.875 -1.34375q-1.328125 -1.34375 -1.34375 -3.828125l0 -12.125l2.125 0l0 12.046875q0 1.71875 0.734375 2.578125q0.734375 0.84375 2.359375 0.84375q1.640625 0 2.375 -0.84375q0.734375 -0.859375 0.734375 -2.578125l0 -12.046875l2.15625 0zm14.0078125 11.640625q-0.140625 2.75 -1.546875 4.203125q-1.40625 1.453125 -3.953125 1.453125q-2.5625 0 -4.078125 -1.953125q-1.515625 -1.953125 -1.515625 -5.296875l0 -3.09375q0 -3.328125 1.546875 -5.25q1.5625 -1.9375 4.25 -1.9375q2.46875 0 3.8125 1.484375q1.359375 1.484375 1.484375 4.234375l-2.171875 0q-0.140625 -2.09375 -0.890625 -2.984375q-0.734375 -0.890625 -2.234375 -0.890625q-1.75 0 -2.6875 1.375q-0.9375 1.359375 -0.9375 4.0l0 3.125q0 2.59375 0.875 3.984375q0.875 1.375 2.546875 1.375q1.671875 0 2.40625 -0.828125q0.75 -0.84375 0.921875 -3.0l2.171875 0zm12.871094 -9.796875l-4.484375 0l0 15.21875l-2.140625 0l0 -15.21875l-4.484375 0l0 -1.84375l11.109375 0l0 1.84375zm4.7578125 15.21875l-2.140625 0l0 -17.0625l2.140625 0l0 17.0625zm14.859375 -7.03125q0 3.484375 -1.484375 5.375q-1.484375 1.890625 -4.234375 1.890625q-2.640625 0 -4.171875 -1.828125q-1.515625 -1.84375 -1.578125 -5.1875l0 -3.21875q0 -3.421875 1.5 -5.359375q1.515625 -1.9375 4.234375 -1.9375q2.6875 0 4.1875 1.859375q1.515625 1.859375 1.546875 5.296875l0 3.109375zm-2.140625 -2.984375q0 -2.71875 -0.890625 -4.03125q-0.875 -1.3125 -2.703125 -1.3125q-1.78125 0 -2.6875 1.34375q-0.90625 1.328125 -0.921875 3.921875l0 3.0625q0 2.609375 0.90625 3.984375q0.921875 1.375 2.71875 1.375q1.8125 0 2.671875 -1.265625q0.875 -1.265625 0.90625 -3.890625l0 -3.1875zm16.601562 10.015625l-2.15625 0l-6.828125 -13.15625l0 13.15625l-2.15625 0l0 -17.0625l2.15625 0l6.859375 13.203125l0 -13.203125l2.125 0l0 17.0625z" fill-rule="nonzero"/></g></svg>